<svg xmlns="http://www.w3.org/2000/svg" xmlns:xlink="http://www.w3.org/1999/xlink" version="1.1" width="125.01945495605469" height="197.48220825195312" viewBox="-0.5000028312206268 -0.4999992847442627 125.01945495605469 197.48220825195312"><g><g data-paper-data="{&quot;isPaintingLayer&quot;:true}" fill-rule="nonzero" stroke-linecap="butt" stroke-linejoin="miter" stroke-miterlimit="10" stroke-dasharray="" stroke-dashoffset="0" font-family="none" font-weight="none" font-size="none" text-anchor="none" style="mix-blend-mode: normal"><g id="Group"><path d="M 119.9332 91.4743 L 118.2307 95.4059 L 114.0239 98.6836 L 110.5185 98.6836 L 107.1129 97.3022 L 99.6009 88.5941 L 97.8983 82.632 C 97.8983 82.632 100.0011 79.7644 100.1015 79.1022 C 100.2018 78.4399 102.8058 75.9454 102.8058 75.9454 C 102.8058 75.9454 105.1099 75.646 105.31 75.9454 C 105.5101 76.2448 106.1111 77.4429 106.1111 77.4429 L 106.5119 80.3369 L 106.2114 83.4308 L 106.3118 85.884 L 105.911 88.1211 L 107.1129 89.9078 C 107.1129 89.9078 108.9164 90.5354 109.6171 90.6755 C 110.3178 90.8156 113.2229 89.9078 113.2229 89.9078 L 116.0269 85.884 L 118.2307 85.884 L 119.9332 87.2486 C 119.9332 87.2474 120.4951 90.1773 119.9332 91.4743 Z " id="Shape" fill="#ef463c" stroke-width="1" stroke="none"/><path d="M 106.0107 97.1016 L 101.7036 100.8955 L 96.1946 103.9888 C 96.1946 103.9888 90.786 104.1888 90.4855 103.9888 C 90.185 103.7889 84.1754 102.3925 84.1754 102.3925 L 78.3665 98.683 L 74.8617 94.9077 L 72.1742 91.5383 L 71.5552 87.4552 L 71.5552 84.529 L 73.8593 83.4314 L 76.8641 84.8284 L 77.8653 87.9223 L 79.468 91.4743 L 83.1748 94.4089 L 89.7848 98.0004 L 94.7926 97.1022 L 98.3983 95.3071 L 101.7036 91.4743 Z " id="Shape" fill="#afd7f2" stroke-width="1" stroke="none"/><path d="M 76.4747 88.5899 C 76.3893 88.3809 76.3767 88.048 76.4122 87.8223 C 76.4927 87.3073 77.1856 87.2421 77.6165 87.3504 C 78.2241 87.5037 78.703 87.9552 78.9939 88.4953 C 79.1405 88.769 79.1844 89.0534 79.2902 89.3378 C 79.3833 89.5893 79.5732 89.8084 79.7096 90.0426 C 80.7974 91.915 82.3046 93.0389 83.962 94.3586 C 85.1868 95.3334 87.0113 96.4029 88.5293 96.8154 C 89.8418 97.1723 91.6099 97.1394 92.953 96.9172 C 95.0426 96.5723 96.6844 95.719 98.2451 94.346 C 98.694 93.9508 99.0894 93.5592 99.4957 93.1245 C 99.9771 92.6084 100.8466 92.0575 100.5191 91.3563 C 100.1616 90.5911 99.5798 89.8857 99.1501 89.1552 C 98.313 87.7295 97.6099 86.2109 97.4098 84.5547 C 96.9867 81.0512 98.194 78.1268 100.6249 75.7514 C 101.9584 74.4484 103.8442 74.3658 105.6063 74.8281 C 107.1573 75.2358 107.6688 76.2376 107.5101 77.8573 C 107.2445 80.5908 106.9692 83.3248 106.7691 86.0636 C 106.6646 87.4971 107.84 89.0103 109.2235 89.4276 C 110.4903 89.8096 112.2084 88.9402 113.1519 87.542 C 113.8575 86.4972 114.6057 85.4679 115.444 84.5284 C 116.4302 83.4212 118.7397 83.7044 119.8208 85.0409 C 120.9524 86.4391 121.6327 87.9821 121.3232 89.8701 C 120.8454 92.7916 119.7559 95.4095 117.7733 97.6411 C 115.5137 100.186 110.075 100.8542 107.2986 98.9213 C 107.2247 98.8698 106.7373 98.4088 106.7012 98.407 C 106.4128 98.3908 106.1045 99.1153 105.9236 99.3387 C 103.929 101.8099 100.2944 103.1871 97.4704 104.42 C 95.2848 105.3738 92.9765 105.3205 90.6333 105.1271 C 89.2631 105.014 87.9272 104.6577 86.6423 104.1817 C 86.036 103.9571 85.4098 103.7475 84.8148 103.5278 C 84.1952 103.299 83.6862 102.8422 83.0654 102.6063 C 82.2661 102.3033 81.5095 101.8524 80.7691 101.4213 C 79.8088 100.8626 78.8497 100.2207 77.9795 99.5387 C 77.5522 99.204 77.2114 98.7477 76.7733 98.4543 C 76.2499 98.104 75.9037 97.5723 75.414 97.1819 C 75.0834 96.919 74.7559 96.6897 74.4548 96.3801 C 74.1411 96.0586 73.8599 95.6783 73.5756 95.3316 C 72.9422 94.5586 72.6075 93.7335 72.2361 92.8161 C 72.0876 92.4509 72.1315 91.9293 72.1748 91.5383 C 72.215 91.1713 72.2018 90.7869 72.5997 90.7396 C 72.8671 90.7084 73.2481 90.7443 73.4716 90.8976 C 74.0095 91.2659 74.1153 92.0449 74.4188 92.5718 C 74.8491 93.3203 75.3509 94.0233 75.81 94.7544 C 76.1874 95.3556 76.6555 95.9089 77.0642 96.4669 C 77.5762 95.8855 78.0744 95.4628 78.3599 94.7304 C 78.5594 94.2173 79.1748 93.5227 79.1369 92.9574 C 79.1003 92.4167 78.3539 91.5569 78.0804 91.0833 C 77.7379 90.4899 77.3923 89.8977 77.0408 89.3097 C 76.8863 89.051 76.5888 88.8725 76.4747 88.5899 Z M 101.1303 88.9133 C 101.7625 89.6581 102.3971 90.3803 103.039 91.124 C 104.1928 92.4611 105.2373 93.755 106.5474 94.9496 C 106.6141 95.0101 106.6796 95.0736 106.7439 95.1376 C 107.3821 95.7759 107.9296 96.5615 108.7421 96.9771 C 111.1411 98.2046 114.7499 97.5465 116.4644 95.464 C 117.3064 94.4412 118.0486 93.2443 118.4771 92.003 C 118.9849 90.5324 119.3442 88.9378 118.4314 87.3995 C 117.8929 86.4918 117.2661 86.4163 116.5906 87.1367 C 115.8941 87.8786 115.2787 88.6989 114.6555 89.5061 C 113.0335 91.606 110.5636 92.6581 108.2781 91.8509 C 106.5191 91.2294 105.0083 90.2138 104.6483 88.0259 C 104.1315 84.8763 104.566 81.8243 105.1604 78.7603 C 105.414 77.4555 104.9729 76.9549 103.679 77.198 C 103.1706 77.2939 102.6459 77.492 102.2138 77.7729 C 99.6844 79.4183 99.0402 83.2901 99.7216 85.9954 C 100.0095 87.1367 100.3575 88.0001 101.1303 88.9133 Z M 98.6525 96.5496 C 98.6321 96.8118 98.9692 96.9501 99.0846 97.1322 C 99.2379 97.3723 99.3178 97.6896 99.42 97.9549 C 99.6249 98.4896 99.7974 99.0387 100.0101 99.5704 C 100.0828 99.7519 100.1135 99.8716 100.167 99.9339 C 100.2289 100.0063 100.3214 100.0009 100.5486 99.9255 C 100.9085 99.8051 101.4608 99.3818 101.789 99.1638 C 102.5606 98.6489 103.6243 98.1321 104.2367 97.4423 C 104.9891 96.5945 104.1249 95.3705 103.4975 94.7227 C 103.2451 94.4622 102.4224 93.5514 102.0516 93.6065 C 101.822 93.6407 101.432 94.2412 101.2896 94.4077 C 100.7817 95.0005 100.0936 95.4005 99.4344 95.855 C 99.2661 95.9705 98.6688 96.3382 98.6525 96.5496 Z M 89.8076 102.9536 C 90.554 103.4236 92.0564 103.2523 92.8953 103.2062 C 93.923 103.1494 94.9476 102.9937 95.9476 102.7524 C 96.4879 102.6218 96.9098 102.4949 97.3959 102.1811 C 97.6165 102.0392 97.947 101.9057 98.1099 101.6907 C 98.2896 101.453 98.2192 101.6464 98.2361 101.3105 C 98.2409 101.2081 98.2385 101.0973 98.2271 100.9812 C 98.1423 100.0866 97.6003 98.8363 96.923 98.3848 C 96.1261 97.8525 94.9428 98.586 94.0997 98.6609 C 93.4602 98.7172 92.8268 98.8519 92.1856 98.889 C 91.5378 98.9267 90.8929 98.9315 90.2451 98.9549 C 90.0948 98.9597 89.6724 100.8644 89.6261 101.0404 C 89.4614 101.6584 89.1393 102.532 89.8076 102.9536 Z M 79.5083 98.2561 C 79.8106 99.0501 81.2355 99.6087 81.9206 99.9848 C 82.8352 100.4872 83.7721 100.9356 84.7295 101.3506 C 85.4416 101.6596 86.1501 102.147 86.9446 102.1967 C 87.069 102.2039 87.1964 102.2009 87.3256 102.1847 C 87.8034 101.0063 88.2499 99.6608 88.3262 98.4064 C 86.8238 98.3417 85.1868 97.4082 83.9404 96.6304 C 83.0486 96.0741 82.0948 95.5753 81.2048 95.0352 C 80.8256 95.5675 80.4975 96.1837 80.1585 96.7495 C 79.9698 97.0651 79.3551 97.8489 79.5083 98.2561 Z " id="Shape" fill="#30419a" stroke-width="1" stroke="none"/></g><g id="Group"><path d="M 21.075 78.3405 L 22.6772 79.6375 L 24.2799 82.6314 L 23.7793 87.2474 L 22.3773 90.6749 L 18.0702 94.7071 L 15.1153 97.1022 L 11.3094 96.5034 L 7.453 95.2059 L 5.3497 92.7107 L 5.1495 90.6743 L 4.5486 87.8205 L 5.7505 85.8828 C 5.7505 85.8828 6.8521 84.9266 7.5534 84.8266 C 8.2547 84.7266 9.0558 85.8828 9.0558 85.8828 L 11.7601 87.7211 L 15.1153 89.318 L 16.7679 89.318 L 18.0702 87.9211 L 18.0702 84.7278 L 18.0702 80.8357 L 18.0702 78.3405 C 19.8731 77.143 21.075 78.3405 21.075 78.3405 Z " id="Shape" fill="#ef463c" stroke-width="1" stroke="none"/><path d="M 21.1754 92.5521 L 22.2769 93.755 L 27.9861 96.5046 L 32.8424 96.5046 L 36.9993 95.2071 L 40.4049 93.2113 L 42.6087 90.6749 L 44.411 88.5935 L 45.4128 86.4253 L 46.715 84.2296 C 46.715 84.2296 47.316 82.4332 47.4164 81.9344 C 47.5167 81.4356 49.2192 81.9344 49.2192 81.9344 L 52.3244 82.7326 L 52.9374 85.2978 L 50.8226 88.5935 L 48.6664 95.8059 L 45.8142 98.0004 L 40.4061 101.3949 L 34.3965 103.3907 L 26.1724 102.9919 L 21.0744 100.8961 L 17.569 97.1022 Z " id="Shape" fill="#afd7f2" stroke-width="1" stroke="none"/><path d="M 47.5636 95.5855 C 47.7691 95.4975 48.0864 95.3783 48.3238 95.4298 C 48.7932 95.5316 48.676 96.5094 48.5618 96.8507 C 48.2932 97.6519 47.6634 98.3812 46.9296 98.7956 C 46.566 99.0016 46.1495 99.1537 45.8082 99.3932 C 45.5227 99.5944 45.2667 99.8429 44.9717 100.0411 C 44.0624 100.6518 43.1579 101.2776 42.1838 101.7841 C 40.8665 102.4679 39.4765 103.0637 38.0546 103.4859 C 35.6117 104.2116 33.1009 104.8116 30.5335 104.5798 C 28.3184 104.3799 26.2229 104.3751 24.1147 103.5535 C 22.0918 102.7655 20.2162 101.5464 18.6808 100.0153 C 18.1826 99.5183 17.7265 98.9752 17.3491 98.3812 C 16.9176 97.7028 16.7962 97.6831 16.0552 98.0244 C 14.1748 98.8902 11.7445 98.5489 9.8899 97.7789 C 7.709 96.8729 5.9308 95.1424 4.7817 93.1036 C 3.2829 90.4438 3.2908 87.5199 4.9308 84.7852 C 5.6357 83.611 8.0414 83.3248 9.4116 84.3212 C 10.292 84.9613 11.1135 85.7325 11.798 86.5768 C 12.6988 87.6881 13.8665 88.1797 15.1946 88.2732 C 17.0311 88.4019 17.7457 87.1594 17.3941 84.8745 C 17.1051 82.9949 16.8527 81.0991 16.7685 79.2028 C 16.691 77.4513 18.2583 76.5627 19.9903 76.7424 C 22.6429 77.0172 23.7565 78.8764 24.6393 80.8764 C 25.1453 82.0219 25.2932 83.4284 25.221 84.696 C 25.1291 86.3109 24.7715 87.9402 24.2944 89.4917 C 24.0221 90.3779 23.2835 91.1216 22.6754 92.0503 C 24.1273 93.8077 25.8803 95.2107 28.2793 95.5394 C 30.685 95.8687 32.7313 95.3328 35.0161 94.8352 C 35.6267 94.7023 36.2048 94.3993 36.7637 94.1335 C 38.1916 93.4544 39.5702 92.6251 40.7577 91.5749 C 41.4674 90.9479 42.1177 90.2893 42.6958 89.5432 C 43.471 88.5432 44.3112 87.6917 44.7421 86.4906 C 44.9158 86.005 44.9446 85.4505 45.5582 85.3487 C 45.8833 85.2948 46.325 85.3655 46.5023 85.6672 C 46.6856 85.9792 46.6585 86.6313 46.5504 86.9618 C 46.4819 87.1714 46.3232 87.2744 46.2162 87.4594 C 46.0684 87.7163 45.9915 88.0055 45.8274 88.2588 C 45.575 88.6474 45.3839 89.0779 45.1285 89.4677 C 44.6285 90.2306 44.0492 90.9371 43.462 91.6347 C 42.9668 92.2227 42.7529 92.4425 43.2691 93.1095 C 43.7685 93.755 44.322 94.3005 44.9049 94.8628 C 45.3406 95.2831 45.7379 95.7879 46.2787 96.0813 C 46.5516 96.2292 46.7247 96.216 46.8695 96.1328 C 47.0864 96.0083 47.2391 95.7256 47.5636 95.5855 Z M 19.1447 92.4365 C 19.2763 92.2892 19.4031 92.1437 19.5239 92.0006 C 20.1063 91.3114 20.7835 90.703 21.3298 89.9827 C 21.8731 89.2665 22.1051 88.5043 22.3839 87.672 C 23.0762 85.605 22.7361 83.547 22.2487 81.474 C 22.0606 80.6722 21.1519 79.9878 20.4566 79.3818 C 20.2084 79.1651 19.6003 79.2686 19.1982 79.3776 C 19.0948 79.4058 19.0834 80.0195 19.1405 80.3453 C 19.3725 81.6632 19.6573 82.9727 19.9043 84.2888 C 20.3641 86.7397 19.0119 89.7671 17.1694 90.439 C 15.5245 91.0389 13.459 90.5228 11.9368 89.8042 C 11.1682 89.4414 10.45 88.9522 9.8695 88.3324 C 9.2439 87.6642 9.0245 86.6121 8.2421 86.0876 C 7.5209 85.6038 6.7787 85.6649 6.3088 86.4229 C 5.4861 87.7492 5.9206 89.5941 6.4085 90.9767 C 6.8244 92.1545 7.8887 93.3401 8.8731 94.0784 C 9.6165 94.6358 10.4849 95.0364 11.3214 95.4592 C 14.2655 96.9465 17.2583 94.5418 19.1447 92.4365 Z M 26.3887 97.4759 C 26.2992 97.3483 25.6688 97.1783 25.4951 97.0765 C 24.8316 96.6867 24.2307 96.1825 23.5918 95.758 C 23.1237 95.4472 22.6123 95.2089 22.1429 94.8999 C 21.8088 94.6796 21.4128 94.0556 20.9452 94.1424 C 20.3304 94.2568 19.6039 95.3382 19.1069 95.7268 C 18.5744 96.143 18.5606 96.5753 18.7631 96.9939 C 19.0077 97.498 19.5666 97.9806 19.9146 98.3878 C 20.2331 98.7603 20.6742 99.0866 21.0744 99.371 C 21.7445 99.8471 22.3923 100.3967 23.1537 100.7255 C 23.7102 100.9656 24.7433 101.4979 25.2523 101.0003 C 25.8412 100.4243 25.9957 99.1387 26.2283 98.3866 C 26.2938 98.1753 26.551 97.7088 26.3887 97.4759 Z M 36.6105 101.4332 C 36.2781 100.8189 35.9963 100.0674 35.6988 99.4081 C 35.3569 98.6501 34.8989 97.8184 34.6898 97.0058 C 33.9452 97.1202 33.2108 97.3028 32.4825 97.4405 C 31.1579 97.6914 29.7799 97.6142 28.4458 97.507 C 28.4206 98.6914 27.938 99.7584 27.7385 100.9075 C 27.7042 101.1039 27.5816 101.4446 27.5179 101.7302 C 27.4861 101.8727 27.4686 102.0009 27.4837 102.0901 C 27.6778 103.247 31.438 102.7003 32.2469 102.6931 C 33.6363 102.6805 35.6387 102.6607 36.6105 101.4332 Z M 44.2607 98.0142 C 44.3418 97.5226 43.3016 96.8933 43.0462 96.5052 C 42.7679 96.0819 42.5149 95.7208 42.1573 95.3436 C 41.801 94.9676 41.6009 94.3885 41.2036 94.0766 C 40.194 94.6191 39.292 95.3179 38.2655 95.843 C 37.7409 96.1112 37.0462 96.734 36.456 96.6591 C 36.3815 96.6496 36.5348 96.9645 36.7271 97.3148 C 36.9506 97.7226 37.2265 98.18 37.2559 98.2315 C 38.0402 99.6207 38.7283 101.3338 40.5942 100.4848 C 41.2114 100.2039 41.7541 99.801 42.3298 99.4369 C 42.7589 99.1656 44.1688 98.5782 44.2607 98.0142 Z " id="Shape" fill="#30419a" stroke-width="1" stroke="none"/></g><g id="Group"><path d="M 53.2271 149.2971 L 49.2204 166.5618 L 48.667 171.9509 L 50.1219 170.9527 L 52.5257 170.0545 L 55.3304 170.5539 L 58.9861 173.2484 C 58.9861 173.2484 59.8364 176.9405 60.1309 177.2399 C 60.4254 177.5393 56.3316 182.629 56.3316 182.629 L 52.5257 184.6253 L 51.2235 191.4113 L 47.8178 194.2059 L 43.2102 194.904 C 43.2102 194.904 39.9049 194.4053 39.6045 193.9065 C 39.304 193.4077 38.039 192.7089 38.039 192.7089 L 32.8935 193.9065 C 32.8935 193.9065 29.8887 193.9065 29.5882 193.9065 C 29.2878 193.9065 26.1724 191.2119 26.1724 191.2119 L 23.6784 187.7186 L 23.2775 184.4253 L 24.2793 182.2302 L 21.1742 182.2302 L 18.3695 179.4357 L 16.066 174.7454 L 16.8671 170.0395 L 19.471 167.46 L 23.1772 165.7636 L 26.5828 166.2624 L 26.5828 162.0709 C 26.5828 162.0709 28.0852 159.5758 28.3857 159.4764 C 28.6862 159.377 31.1904 158.0788 31.1904 158.0788 L 35.0967 158.2788 L 38.8028 160.3746 L 39.7042 163.0691 L 53.3262 145.205 Z " id="Shape" fill="#ffffff" stroke-width="1" stroke="none"/><path d="M 58.9698 172.0538 C 63.0702 176.5825 59.4735 181.9529 55.715 184.2559 C 55.6105 184.3193 55.4987 184.3738 55.3845 184.4199 C 53.6459 185.1181 53.1219 186.3666 53.1682 188.2342 C 53.2848 192.9532 48.9248 196.0136 45.081 196.4166 C 42.4885 196.6878 40.0954 196.1441 38.1345 194.2993 C 37.3376 193.549 36.4825 194.046 35.8436 194.3693 C 33.4927 195.5579 30.209 195.8399 27.926 194.3382 C 26.9596 193.7023 25.9849 193.3795 25.1573 192.479 C 24.4128 191.6694 23.8346 190.7209 23.2583 189.7898 C 22.7277 188.933 22.4272 187.9312 22.2505 186.9462 C 22.191 186.6169 22.1694 183.9367 22.063 183.8834 C 17.1976 181.4452 14.7709 177.474 15.3827 172.0197 C 15.6423 169.7066 17.3058 167.954 19.1135 166.4438 C 20.9783 164.887 23.3238 165.1403 25.4512 164.6523 C 26.0059 159.9686 27.5203 157.9058 30.9308 157.1441 C 34.834 156.2729 38.3064 157.5836 40.4302 160.9213 C 41.0396 159.9261 41.4674 159.0471 42.057 158.2938 C 44.4747 155.2047 46.9596 152.1676 49.3791 149.0809 C 50.1477 148.1007 50.7493 146.9917 51.5011 145.9966 C 52.1099 145.19 52.7721 144.4026 53.5203 143.7278 C 54.0245 143.2727 55.1027 144.0792 54.9885 144.9026 C 54.6099 147.6324 54.1567 150.3533 53.6952 153.0712 C 53.5113 154.1496 53.2457 155.2166 52.9891 156.2819 C 52.3905 158.7674 51.7739 161.2488 51.167 163.7319 C 50.6628 165.793 50.1616 167.8552 49.6063 170.1365 C 50.8737 169.8132 51.831 169.5 52.813 169.3318 C 55.063 168.9462 56.9789 169.5881 58.4668 171.3575 C 58.6501 171.576 58.7769 171.8437 58.9698 172.0538 Z M 57.3058 173.8221 C 56.1844 171.9874 54.3322 171.0605 52.2541 171.7461 C 50.9428 172.1778 49.7775 173.0359 48.5149 173.6364 C 47.9981 173.8819 47.1555 174.2472 46.8893 174.0322 C 46.4789 173.7005 46.1748 172.8646 46.2823 172.3335 C 46.8088 169.7276 47.1832 167.0288 48.1868 164.5984 C 49.4458 161.5494 49.9951 158.3597 50.8593 155.2328 C 51.4073 153.2508 51.9686 151.273 52.5239 149.2929 C 52.3893 149.227 52.2547 149.1599 52.1201 149.0941 C 51.8521 149.3821 51.563 149.6539 51.3208 149.9617 C 49.3028 152.5269 47.2703 155.0807 45.2908 157.6746 C 44.1051 159.2285 42.8214 160.7536 41.9356 162.4721 C 41.3593 163.5906 40.8004 164.5996 39.7361 165.2301 C 39.3485 165.46 38.694 165.5816 38.3346 165.4043 C 38.0768 165.2774 37.9602 164.5421 38.039 164.1271 C 38.2685 162.911 37.9458 161.8937 37.2505 160.9147 C 36.2854 159.556 34.7944 159.4399 33.3509 159.1842 C 31.2709 158.8165 29.3953 159.5794 28.4644 161.1775 C 27.6345 162.602 27.8719 165.5091 28.9218 166.7732 C 29.7439 167.7636 29.6333 168.5348 28.5606 169.2827 C 27.7595 169.8407 27.0251 169.5443 26.3725 168.5408 C 26.0041 167.9743 25.5642 167.2702 24.9927 167.051 C 22.676 166.163 18.9278 168.0067 18.1123 170.4024 C 16.7739 174.331 18.2156 179.3279 22.1688 181.5182 C 22.8779 181.911 23.2505 181.7416 23.8719 181.3362 C 24.8388 180.7057 25.9302 180.1997 27.0378 179.8692 C 27.8316 179.6321 28.6604 179.9626 28.6543 181.0117 C 28.6489 182.0068 28.4536 182.9751 27.2968 183.3439 C 26.6369 183.5547 25.9506 183.711 25.3304 184.005 C 24.9897 184.1661 24.4963 184.5882 24.5221 184.8481 C 24.8569 188.1761 26.7499 192.4389 30.5179 193.0628 C 32.563 193.4011 34.1664 193.1287 36.0762 192.3796 C 36.2595 192.3077 36.4386 192.0538 36.4921 191.8508 C 36.9753 190.018 37.4206 188.1743 37.8971 186.3396 C 38.1628 185.3187 38.9266 184.7475 39.6339 185.1067 C 40.4843 185.5385 40.5648 186.2319 40.3274 187.1719 C 39.9717 188.5845 39.8448 190.0557 39.6658 191.5077 C 39.6351 191.7562 39.7625 192.0832 39.926 192.2874 C 41.1315 193.7927 44.1387 194.7496 45.9795 194.0963 C 50.3749 192.5365 51.0516 190.9587 51.4164 186.9534 C 51.5696 185.2684 51.0942 184.4654 49.4236 184.1553 C 48.4332 183.9714 48.0756 183.4721 47.7709 182.7122 C 48.9753 181.1314 49.0786 181.1081 50.9861 182.0763 C 51.4885 182.3308 51.9536 182.6853 52.4813 182.8547 C 52.9104 182.9924 53.4873 183.093 53.8605 182.9176 C 56.0942 181.8685 57.4278 179.9764 58.3106 177.768 C 58.9116 176.2627 58.0612 175.0585 57.3058 173.8221 Z " id="Shape" fill="#30419a" stroke-width="1" stroke="none"/></g><g id="Group"><path d="M 67.8497 135.4244 L 62.024 136.8214 L 53.4266 136.8214 L 50.1213 135.2244 L 55.3298 122.3506 L 65.1453 122.3506 Z " id="Shape" fill="#ef463c" stroke-width="1" stroke="none"/><path d="M 54.209 80.7357 L 59.4362 80.7357 L 64.6345 80.7357 L 68.6507 82.2326 L 71.5552 85.8822 C 71.5552 85.8822 72.4566 89.0186 72.1333 89.518 C 71.81 90.0174 73.2036 96.2047 73.2036 96.2047 L 73.2036 107.0828 L 71.0546 116.4639 L 66.0522 120.7548 C 66.0522 120.7548 60.7379 122.3518 60.1375 122.35 C 59.5372 122.3482 55.8304 121.9524 55.8304 121.9524 L 51.8238 119.3578 L 47.7174 113.8688 L 46.9164 110.0767 L 46.9164 104.6289 L 48.1183 97.7136 L 50.8226 87.2474 Z " id="Shape" fill="#afd7f2" stroke-width="1" stroke="none"/><path d="M 63.3142 93.755 L 64.6345 96.1053 L 64.6345 99.5986 L 63.3142 103.3907 L 60.7878 104.6295 L 57.7379 103.3907 L 55.3298 99.1992 L 55.3298 95.8059 L 57.6333 93.755 L 60.1459 92.5515 Z " id="Shape" fill="#f7ec1e" stroke-width="1" stroke="none"/><path d="M 54.2192 98.6639 C 54.3665 96.313 54.9296 94.0832 56.8232 92.4078 C 58.081 91.2946 59.0696 91.2988 60.7385 91.7874 C 62.0197 92.1629 63.173 92.4629 64.078 93.5413 C 65.4753 95.2065 65.7902 97.1771 66.0516 99.3818 C 65.8779 100.477 65.7691 101.7458 65.4614 102.9649 C 65.0636 104.5439 62.2938 106.178 60.554 105.8505 C 57.2319 105.2241 53.9987 102.1823 54.2192 98.6639 Z M 56.6285 99.1489 C 56.8605 99.7087 57.093 100.4836 57.4843 101.1692 C 58.2541 102.5176 60.6273 103.3691 61.6868 102.7518 C 63.3503 101.7823 64.215 98.5537 63.4218 96.7873 C 62.8304 95.4705 61.7385 94.8993 60.551 94.3406 C 59.7715 93.9748 59.1501 94.1712 58.5299 94.664 C 57.1525 95.758 56.9692 97.3543 56.6285 99.1489 Z " id="Shape" fill="#30419a" stroke-width="1" stroke="none"/><path d="M 73.6357 91.2054 C 73.7673 91.7569 73.9098 92.2862 73.9879 92.8515 C 74.0882 93.5772 74.2727 94.3149 74.2884 95.0466 C 74.3064 95.8795 74.4104 96.7238 74.4578 97.5591 C 74.4915 98.1621 74.5708 98.7237 74.6285 99.3219 C 74.7625 100.7123 74.9049 102.1057 74.8533 103.5044 C 74.7667 105.8714 74.432 108.2252 73.9638 110.5455 C 73.6531 112.0862 73.0774 113.5742 72.7649 115.1149 C 72.2745 117.5393 70.6315 119.0674 68.8184 120.4979 C 68.4338 120.8009 68.0642 121.1506 67.6291 121.3572 C 66.4554 121.9158 66.4735 122.9002 66.6622 123.9194 C 67.2559 127.1211 67.8779 130.318 68.5023 133.5143 C 68.944 135.7753 68.7974 136.4645 67.1952 137.1627 C 66.1585 137.6148 64.9554 137.6788 63.8328 137.9435 C 60.596 138.7058 57.3605 137.7615 54.1135 137.9148 C 52.7577 137.9788 51.3196 137.419 50.0059 136.9166 C 48.9188 136.5016 48.8148 135.3861 49.1033 134.4041 C 49.3581 133.5353 49.8881 132.7502 50.2559 131.9102 C 51.0053 130.1988 51.7469 128.4827 52.4554 126.7534 C 53.0083 125.4032 53.5065 124.0308 54.0504 122.614 C 51.0882 120.7231 48.667 118.3172 47.1219 115.2184 C 46.3815 113.7329 46.042 112.0108 45.7343 110.3563 C 45.4212 108.6707 45.3569 106.9486 45.462 105.2397 C 45.5528 103.7637 45.8106 102.3314 46.1507 100.8895 C 46.3418 100.0806 46.4801 99.2591 46.7042 98.4573 C 46.9939 97.4214 47.2547 96.3687 47.6453 95.3628 C 47.8773 94.7652 48.0768 94.1454 48.2715 93.5347 C 48.4644 92.9311 48.6315 92.3239 48.8364 91.7251 C 49.0576 91.0797 49.1411 90.3964 49.3677 89.7528 C 49.5456 89.2474 49.703 88.7438 49.8491 88.2318 C 49.9993 87.7055 49.9801 87.1217 50.2427 86.6295 C 50.4891 86.1678 51.1489 85.7265 51.6976 85.9385 C 52.2235 86.1415 52.1219 87.0283 52.078 87.4558 C 52.0384 87.8432 51.9134 88.1756 51.8196 88.545 C 51.6718 89.1282 51.5732 89.7168 51.3497 90.2791 C 50.2835 92.9652 49.3593 95.6873 48.8941 98.5483 C 48.5414 100.7165 48.1291 102.8769 47.843 105.0535 C 47.7319 105.8966 47.9933 106.6834 48.7703 107.2887 C 50.6736 108.7701 52.7739 109.8953 55.1123 110.3755 C 57.2926 110.8228 59.554 110.8641 61.7619 111.2018 C 64.5954 111.6353 67.2217 111.0539 69.6165 109.6144 C 70.4819 109.0935 71.7487 108.7653 71.8935 107.4516 C 72.1027 105.5565 72.5287 103.6314 72.3707 101.7608 C 72.2631 100.4908 72.2078 99.2177 72.1213 97.9459 C 71.9747 95.7861 71.9873 93.6041 71.6826 91.4623 C 71.6207 91.027 71.5149 90.6006 71.4104 90.1743 C 71.3172 89.7935 71.2775 89.351 71.1297 88.9917 C 70.8887 88.4061 70.7998 87.8792 70.8797 87.2337 C 70.9019 87.0552 70.9747 86.8451 71.1489 86.7469 C 71.3064 86.6582 71.7842 86.6325 71.9482 86.7025 C 72.548 86.9588 72.5462 87.8313 72.7938 88.3288 C 72.9614 88.6654 72.9795 89.0043 73.084 89.3474 C 73.1243 89.4785 73.179 89.6025 73.2385 89.7246 C 73.4717 90.206 73.5137 90.7012 73.6357 91.2054 Z M 56.9116 127.3917 C 57.1453 126.4349 57.3785 125.4786 57.6135 124.5212 C 57.7331 124.0326 57.9446 123.6823 57.3094 123.5667 C 56.9915 123.5092 56.45 123.6014 56.1868 123.7978 C 55.8232 124.0691 55.706 124.6457 55.5185 125.0325 C 55.2295 125.6283 54.8767 126.1912 54.5906 126.7888 C 54.0173 127.9869 53.6003 129.2522 53.0161 130.4467 C 52.7559 130.9796 52.5257 131.5299 52.301 132.0784 C 52.0582 132.67 51.536 133.5706 51.584 134.2275 C 51.5876 134.276 51.5967 134.3239 51.6093 134.3712 C 51.834 135.1789 53.3923 135.7621 54.0792 135.7735 C 54.6543 135.7831 54.8172 135.5669 54.965 135.0502 C 55.1315 134.47 55.3262 133.8574 55.4692 133.2766 C 55.9518 131.3156 56.432 129.3533 56.9116 127.3917 Z M 61.2829 132.949 C 61.1808 131.5473 61.078 130.1443 60.9759 128.742 C 60.8989 127.6875 60.822 126.6337 60.7451 125.5792 C 60.721 125.2487 60.8232 124.2499 60.6201 123.9906 C 60.5215 123.8691 59.6435 123.8499 59.6441 123.8535 C 59.6814 124.2852 59.4176 124.7864 59.34 125.2104 C 59.2613 125.6409 59.1928 126.066 59.0852 126.4906 C 58.7884 127.6678 58.4176 128.921 58.2355 130.1497 C 58.0131 131.6491 57.3262 133.0359 57.1555 134.5556 C 56.9416 136.4615 60.1964 136.5998 61.1862 135.5759 C 61.7872 134.9544 61.337 133.6969 61.2829 132.949 Z M 66.0985 130.5024 C 65.7036 129.0354 65.1339 127.5744 64.8557 126.0816 C 64.7385 125.4535 64.718 124.0242 64.2667 123.5439 C 63.9759 123.2356 63.0564 123.2805 62.7018 123.5062 C 62.6237 124.1014 62.7451 124.8415 62.7884 125.4445 C 62.8605 126.4355 63.0468 127.4438 63.0444 128.4378 C 63.0402 130.0653 62.9795 131.712 63.042 133.3389 C 63.0768 134.2897 62.9422 135.2939 64.0414 135.649 C 64.8106 135.8969 65.6363 135.7064 66.1964 135.2448 C 66.7265 134.8089 67.0191 134.131 66.8016 133.355 C 66.5408 132.4257 66.3551 131.4515 66.0985 130.5024 Z M 70.8142 112.1149 C 67.0402 114.3023 63.1321 113.8646 59.2511 113.4119 C 55.3791 112.9604 51.6153 112.1036 48.3346 109.8827 C 47.8551 114.667 52.9067 119.7465 58.706 120.7237 C 64.6423 121.7236 70.1333 116.4208 70.8142 112.1149 Z " id="Shape" fill="#30419a" stroke-width="1" stroke="none"/></g><g id="Group"><path d="M 91.688 31.9348 L 91.688 83.8296 L 89.685 86.8235 L 54.2091 86.8235 L 27.9861 84.4284 L 28.5871 72.1533 L 27.9861 30.039 L 28.3869 26.9451 L 89.685 30.039 Z " id="Shape" fill="#afd7f2" stroke-width="1" stroke="none"/><path d="M 81.7721 46.366 L 81.2715 51.0958 L 74.4608 53.491 L 68.3509 52.5623 L 65.2457 50.0983 C 65.2457 50.0983 64.7451 47.5031 64.6447 47.0481 C 64.5444 46.593 65.2457 44.2978 65.2457 44.2978 C 65.2457 44.2978 67.1489 41.8147 67.4494 41.2159 C 67.7499 40.6171 71.2553 40.8171 71.6561 40.7171 C 72.057 40.6171 78.6676 41.2159 78.6676 41.2159 Z " id="Shape" fill="#ffffff" stroke-width="1" stroke="none"/><path d="M 50.8226 49.4001 C 50.8226 49.4001 44.1117 52.7934 43.7114 52.5629 C 43.3112 52.3323 39.3046 52.5934 39.3485 52.5629 C 39.3923 52.5323 35.4981 50.5977 35.4981 50.5977 C 35.4981 50.5977 34.3965 47.5037 34.3965 47.099 C 34.3965 46.6942 35.0979 43.5122 35.0979 43.5122 C 35.0979 43.5122 36.6003 41.9153 36.9007 41.6159 C 37.2012 41.3165 42.3094 39.7195 42.3094 39.7195 L 50.322 40.2183 Z " id="Shape" fill="#ffffff" stroke-width="1" stroke="none"/><path d="M 83.1748 61.874 L 82.3731 77.4424 L 41.2072 76.7196 L 40.4062 59.8782 L 82.3731 59.8782 Z " id="Shape" fill="#f9f5b5" stroke-width="1" stroke="none"/><path d="M 27.4855 42.3141 L 28.3869 65.1673 L 2.8455 55.7981 L 1.8443 53.491 L 26.1724 41.8147 Z " id="Shape" fill="#f7ec1e" stroke-width="1" stroke="none"/><path d="M 58.1345 6.8858 L 61.7902 1.4968 L 63.3142 2.0955 L 70.5546 17.4645 L 75.2535 29.3109 L 48.1183 27.4439 Z " id="Shape" fill="#f7ec1e" stroke-width="1" stroke="none"/><path d="M 121.8365 49.8983 L 122.5378 51.7946 L 99.6009 62.4728 L 91.8887 65.5667 L 91.688 39.719 Z " id="Shape" fill="#f7ec1e" stroke-width="1" stroke="none"/><g id="Shape"><path d="M 93.3515 65.9744 C 93.0498 66.3157 93.2036 67.5474 93.1886 68.0588 C 93.1225 70.2653 93.1435 72.4539 93.0498 74.6562 C 92.9741 76.44 93.0113 78.2268 92.965 80.0111 C 92.9218 81.6734 92.6928 83.3158 92.6189 84.9751 C 92.5522 86.4714 90.1255 88.5037 88.6141 88.4989 C 86.7102 88.4929 84.8064 88.5145 82.9031 88.542 C 82.2373 88.5522 81.5474 88.46 80.8875 88.5396 C 80.328 88.6073 79.8124 88.4917 79.2535 88.4941 C 78.8647 88.4959 78.4747 88.4845 78.0864 88.4995 C 76.7938 88.5492 75.4867 88.545 74.194 88.5438 C 73.051 88.5426 71.9073 88.566 70.7643 88.5869 C 69.6351 88.6073 68.5143 88.5642 67.3929 88.5576 C 65.917 88.5492 64.441 88.5294 62.9662 88.4803 C 61.2637 88.4235 59.5618 88.3546 57.8605 88.2809 C 56.6964 88.2306 55.5414 88.1863 54.3791 88.0666 C 52.5047 87.8732 50.6255 87.7337 48.7439 87.5887 C 48.0618 87.5361 47.3797 87.5007 46.6982 87.4462 C 45.807 87.375 44.9296 87.1708 44.0354 87.1277 C 43.1844 87.087 42.3232 87.0971 41.4735 87.0205 C 40.8148 86.9612 40.1567 86.9025 39.4975 86.8498 C 36.9795 86.6487 34.4584 86.4792 31.9416 86.2654 C 30.8971 86.1768 29.8479 86.0678 28.822 85.8619 C 27.5666 85.6098 27.3899 84.5445 27.3683 83.5278 C 27.3244 81.4919 27.5293 79.4411 27.3503 77.4214 C 27.0594 74.1454 27.4879 70.9048 27.5792 67.6492 C 27.6105 66.5451 27.2 66.1157 26.1928 65.7577 C 22.4013 64.4104 18.6634 62.914 14.8791 61.5458 C 12.6507 60.7399 10.3569 60.1129 8.1207 59.3255 C 6.4043 58.722 4.6754 58.1028 3.0606 57.2783 C 2.039 56.7568 1.0702 55.961 0.3611 55.0658 C -0.0734 54.5167 -0.2783 53.4772 0.7042 52.9156 C 2.8148 51.7108 4.9079 50.4707 7.0612 49.3456 C 9.9993 47.8103 12.801 46.0211 16.0323 45.0356 C 17.9662 44.4457 19.7547 43.3883 21.6171 42.559 C 22.1339 42.329 22.7042 42.2129 23.206 41.9584 C 24.2271 41.441 25.3004 40.9668 26.1814 40.2632 C 26.5348 39.98 26.5317 39.1405 26.5335 38.5543 C 26.5432 35.9155 26.447 33.2754 26.4897 30.6378 C 26.5125 29.2181 26.6814 27.7912 26.92 26.3906 C 26.971 26.0918 27.6129 25.6769 27.9783 25.681 C 31.2313 25.7206 34.4825 25.8643 37.7355 25.9337 C 39.6507 25.9745 41.5672 25.9852 43.4831 26.0086 C 44.2902 26.0188 45.0402 26.0786 45.8274 26.1828 C 46.4079 26.2595 47.3911 26.2313 47.8677 25.8445 C 48.1598 25.608 48.2229 25.1074 48.3899 24.7966 C 48.7757 24.0793 49.1327 23.3518 49.5071 22.6261 C 51.0474 19.6399 52.6297 16.6753 54.0317 13.5994 C 55.1946 11.048 56.2493 8.4474 57.3971 5.8888 C 58.176 4.1542 58.9981 2.4368 59.8671 0.7453 C 60.4891 -0.4649 63.3214 -0.1439 64.0624 1.2932 C 65.5822 4.241 66.9807 7.2505 68.4464 10.2252 C 68.7337 10.8078 69.1898 11.3168 69.4212 11.9156 C 70.5089 14.7329 71.5305 17.5753 72.6057 20.3974 C 73.423 22.5452 74.2487 24.6919 75.1598 26.8002 C 75.3515 27.2451 75.8941 27.763 76.3394 27.8325 C 77.7036 28.0445 79.0979 28.0636 80.4819 28.1415 C 83.1423 28.2917 85.8076 28.3834 88.4632 28.5959 C 89.5912 28.6863 91.4536 28.666 92.2565 29.6127 C 92.7595 30.2049 92.5432 31.3821 92.6255 32.1383 C 92.7703 33.473 92.8983 34.8101 92.9218 36.1532 C 92.9482 37.6771 93.2619 38.6992 94.8172 39.2333 C 96.9698 39.9728 99.0149 41.1482 101.2168 41.5889 C 104.5642 42.2596 107.5876 43.7404 110.7799 44.7829 C 113.1453 45.5547 115.4777 46.4337 117.8106 47.3031 C 119.4729 47.9229 121.1531 48.5193 122.7487 49.2845 C 124.2186 49.9887 124.4566 52.0802 123.2355 53.2305 C 122.6285 53.8029 121.8581 54.2203 121.1195 54.6341 C 119.7325 55.4125 118.3617 56.2454 116.9019 56.8639 C 113.0624 58.4914 109.2048 60.0818 105.3064 61.5626 C 103.194 62.3656 101.06 63.1122 98.9248 63.8541 C 97.837 64.2314 96.7499 64.608 95.6634 64.9894 C 95.0281 65.2128 93.8262 65.4409 93.3515 65.9744 Z M 27.1423 63.4536 C 26.9915 63.3997 27.0528 61.0087 27.0426 60.7363 C 27.0089 59.8046 26.9747 58.8729 26.9404 57.9417 C 26.8737 56.1214 26.807 54.3011 26.7403 52.4802 C 26.6754 50.7072 26.6105 48.9336 26.5456 47.1606 C 26.5131 46.2888 26.4813 45.4164 26.4494 44.5439 C 26.4134 43.5506 26.0702 43.6709 25.1802 43.9092 C 23.7277 44.2984 22.4302 44.908 21.0041 45.4098 C 19.4795 45.9469 17.9692 46.5277 16.4795 47.154 C 13.569 48.378 10.7343 49.7791 8.0059 51.3659 C 6.5354 52.2216 5.1255 53.1808 3.3322 54.3179 C 4.3172 55.0179 4.9704 55.5795 5.7126 55.9777 C 6.3028 56.2939 7.0053 56.3999 7.6513 56.6178 C 10.2078 57.4813 12.7691 58.3304 15.3136 59.2261 C 19.1646 60.5812 23.0035 61.9716 27.1423 63.4536 Z M 50.9518 26.1074 C 58.3238 26.5439 65.3551 26.9601 72.6598 27.3924 C 71.9278 25.1721 71.3629 23.1853 70.6189 21.2674 C 69.1417 17.4591 67.5979 13.6766 66.0155 9.9103 C 65.2565 8.1031 64.4073 6.3265 63.4765 4.602 C 63.1507 3.9985 62.4572 3.5931 61.959 3.1231 C 59.1676 6.7188 57.319 10.5007 55.6952 14.4047 C 54.0858 18.2735 52.1628 22.0225 50.9518 26.1074 Z M 90.6868 75.8496 C 90.6411 72.2988 90.4891 68.7492 90.4723 65.1984 C 90.456 61.8817 90.578 58.5645 90.6069 55.2472 C 90.6435 50.9503 90.7132 46.6523 90.6459 42.3566 C 90.6111 40.1034 90.5161 37.8489 90.2763 35.6071 C 90.1784 34.6898 90.1207 33.7988 90.0738 32.8826 C 90.0209 31.8491 89.8214 31.6258 88.8503 31.5396 C 87.7253 31.4402 86.5942 31.442 85.468 31.3575 C 84.5492 31.2887 83.596 30.9713 82.6844 31.006 C 79.8929 31.1126 77.0624 30.5629 74.2775 30.2995 C 69.0041 29.7995 63.7337 29.0702 58.4494 28.9372 C 53.4506 28.8109 48.4656 28.2923 43.4747 28.2923 C 42.5612 28.2923 41.6814 28.1924 40.7709 28.1924 C 39.7553 28.1924 38.7475 28.1427 37.7295 28.1427 C 37.0852 28.1427 36.4554 28.1211 35.813 28.0804 C 34.4578 27.9948 33.0816 28.0391 31.7283 27.9744 C 30.8154 27.9301 29.8593 28.0582 28.9993 28.3397 C 28.8491 28.3888 29.0816 29.5923 29.1315 30.2635 C 29.1435 30.4258 29.1381 30.5899 29.1345 30.7534 C 29.0546 34.3251 28.8827 37.8974 28.917 41.468 C 28.9608 46.0289 29.3274 50.5905 29.2613 55.1478 C 29.203 59.177 30.2048 63.1152 29.8929 67.1696 C 29.6123 70.8156 29.7343 74.4963 29.7697 78.1609 C 29.7878 80.0381 30.0035 81.9129 30.1381 83.9056 C 33.6838 84.1427 36.8857 84.3853 40.0912 84.5631 C 42.8238 84.7152 45.5648 84.7355 48.295 84.917 C 51.9158 85.1577 55.5245 85.5942 59.1471 85.7708 C 63.6772 85.9918 68.2162 86.1337 72.7511 86.1283 C 77.8424 86.1229 82.9326 85.9205 88.0233 85.7912 C 88.926 85.7684 90.1351 84.6146 90.194 83.6961 C 90.3046 81.9739 90.3515 80.2477 90.453 78.525 C 90.5047 77.631 90.6988 76.74 90.6868 75.8496 Z M 93.1646 62.9524 C 93.569 62.9524 93.7914 63.0081 93.9704 62.9446 C 97.9945 61.5135 102.0335 60.1243 106.0263 58.6124 C 109.6766 57.2298 113.2986 55.7664 116.8863 54.2287 C 118.3418 53.6048 119.6718 52.691 121.0594 51.9084 C 121.0384 51.727 121.0173 51.5449 120.9969 51.3635 C 120.4813 51.0749 119.9903 50.724 119.4446 50.5126 C 118.5726 50.1749 117.6429 49.9815 116.7745 49.6348 C 114.8845 48.8803 113.0317 48.0337 111.1387 47.2894 C 109.2878 46.5619 107.4116 45.8978 105.5354 45.2379 C 103.3995 44.4865 101.2493 43.7727 99.1069 43.0392 C 98.3851 42.7925 97.6844 42.4566 96.9452 42.3009 C 95.6874 42.0362 94.4723 41.1285 93.1652 41.8548 C 93.1652 48.9456 93.1652 55.9412 93.1646 62.9524 Z " stroke-width="1" fill="#30419a" stroke="none"/><path d="M 84.6826 72.685 C 84.7138 73.8365 84.7811 76.9106 84.0293 77.8286 C 83.846 78.0525 83.6201 78.2166 83.3659 78.3363 C 82.2721 78.8507 80.6501 78.5345 79.5834 78.5483 C 77.6033 78.5735 75.575 78.6136 73.5864 78.7028 C 72.1477 78.7675 70.7192 79.0267 69.2799 79.0962 C 68.4332 79.1375 67.5762 78.9261 66.7235 78.9201 C 65.7511 78.9142 64.7769 79.0734 63.807 79.0453 C 62.7571 79.0154 61.7132 78.7926 60.6628 78.7543 C 55.2848 78.5555 49.9061 78.3812 44.5269 78.222 C 43.7541 78.1992 42.9698 78.2555 42.2036 78.3639 C 40.1459 78.6531 39.4795 77.9645 39.5924 75.9214 C 39.67 74.5263 39.4025 73.1161 39.4007 71.7126 C 39.3977 69.6953 39.5281 67.678 39.5396 65.6601 C 39.5456 64.5679 39.3905 63.4769 39.3653 62.3835 C 39.3406 61.3321 39.3286 60.2722 39.4284 59.2273 C 39.4981 58.5028 39.9506 58.1807 40.7805 58.2286 C 42.7631 58.3435 44.7523 58.3232 46.7379 58.3872 C 48.441 58.4423 50.1429 58.5765 51.846 58.6046 C 53.7908 58.6369 55.7373 58.5699 57.6826 58.586 C 59.2144 58.5986 60.7469 58.6705 62.2793 58.7178 C 63.6321 58.7597 64.9861 58.8615 66.337 58.8339 C 68.2475 58.795 70.1573 58.5765 72.066 58.5926 C 73.8485 58.6076 75.6273 58.8914 77.4104 58.9411 C 78.917 58.983 80.435 58.9291 81.9344 58.7794 C 82.6886 58.7046 83.1237 58.8902 83.3551 59.5627 C 83.6039 60.2854 83.9596 61.0099 84.0173 61.7524 C 84.2986 65.393 84.5846 69.0378 84.6826 72.685 Z M 47.0269 62.4326 C 46.8665 60.8614 46.6622 60.7249 45.0095 60.9327 C 44.3689 61.0129 43.712 61.0177 43.066 60.9866 C 41.6585 60.9189 41.3442 61.25 41.3935 62.6224 C 41.5209 66.1864 41.6537 69.751 41.6916 73.3161 C 41.718 75.7658 41.6489 75.7664 44.1363 75.8005 C 44.2998 75.8029 44.4626 75.8143 44.6802 75.8238 C 46.7367 75.7604 46.7349 75.7604 46.7481 73.57 C 46.7583 71.8617 46.4969 70.0929 46.8569 68.4606 C 47.307 66.4187 47.2343 64.4487 47.0269 62.4326 Z M 53.938 61.1698 C 52.3809 61.0914 51.1622 60.9961 49.944 60.9985 C 49.7084 60.9991 49.2968 61.3608 49.2691 61.5919 C 49.1291 62.7596 49.1231 63.9428 49.0083 65.1146 C 48.8298 66.9307 48.7968 68.7594 48.8761 70.5821 C 48.9368 71.9737 48.7944 73.9395 49.3467 75.2418 C 49.798 76.3071 51.4753 76.143 52.456 75.9616 C 53.453 75.7765 53.5618 75.1592 53.5762 74.2173 C 53.6045 72.4383 53.8719 70.6635 53.9206 68.8827 C 53.9897 66.3343 53.9374 63.7817 53.938 61.1698 Z M 60.7872 61.1357 C 59.2601 61.1357 58.0492 61.1542 56.8388 61.1285 C 56.1165 61.1123 55.7637 61.2111 55.7854 62.1338 C 55.8779 66.1086 55.9031 70.0863 55.8539 74.0616 C 55.8286 76.1047 56.0822 76.0466 58.0462 76.2346 C 59.8719 76.4088 60.0089 76.1729 60.0095 74.34 C 60.0095 72.0988 60.1345 69.8552 60.2685 67.6163 C 60.3935 65.523 60.6003 63.4338 60.7872 61.1357 Z M 67.2685 61.265 C 65.8142 61.265 64.468 61.265 63.0924 61.265 C 62.9506 61.932 62.7331 62.559 62.6958 63.1967 C 62.5402 65.8864 62.4176 68.5785 62.3268 71.2713 C 62.2775 72.7263 62.2655 74.1868 62.3551 75.6376 C 62.3737 75.9436 62.911 76.4627 63.2114 76.4639 C 64.5738 76.4705 65.9356 76.3268 67.2691 76.2388 C 67.2691 71.221 67.2691 66.3098 67.2685 61.265 Z M 75.3004 61.4692 C 75.2709 61.4392 75.2289 61.4123 75.1754 61.3895 C 74.718 61.1925 73.4759 61.2584 73.0738 61.25 C 72.3899 61.2363 69.5354 60.7973 69.453 61.7632 C 69.0636 66.3541 69.161 70.9414 69.7625 75.5101 C 69.8046 75.8262 70.2409 76.2927 70.5438 76.3352 C 71.337 76.4454 72.1622 76.4071 72.9674 76.3424 C 75.1105 76.1699 75.1069 76.152 75.0618 73.9682 C 75.0588 73.8107 75.1321 73.6526 75.1381 73.494 C 75.209 71.4641 75.3004 69.4342 75.334 67.4031 C 75.3521 66.2954 75.3521 65.187 75.3491 64.0787 C 75.3479 63.5326 75.7283 61.9129 75.3004 61.4692 Z M 82.4993 71.8287 C 82.4831 70.0444 82.3989 68.2612 82.2986 66.4792 C 82.2475 65.5577 82.2048 64.6338 82.1351 63.7134 C 82.0924 63.144 82.1844 62.2093 81.9224 61.6991 C 81.6814 61.2309 81.3923 61.3243 80.7998 61.3249 C 79.84 61.3261 78.0612 60.9626 77.5239 61.7135 C 76.9512 62.5147 77.2842 64.0745 77.2878 65.0074 C 77.2992 67.7498 77.3142 70.4923 77.3671 73.2347 C 77.4128 75.6232 77.4572 75.622 79.7385 75.819 C 80.2253 75.8514 80.7144 75.9286 81.197 75.8969 C 81.4278 75.8813 81.8052 75.6939 81.8424 75.5244 C 82.1135 74.3011 82.5107 73.0604 82.4993 71.8287 Z " stroke-width="1" fill="#30419a" stroke="none"/><path d="M 35.7535 52.476 C 33.9392 51.2839 32.9025 49.2306 32.8454 46.2439 C 32.8148 44.6625 33.1411 43.5619 34.167 42.3063 C 35.1567 41.0956 36.4879 39.8537 37.9656 39.2573 C 39.4182 38.6717 41.0161 38.5357 42.5618 38.3986 C 45.3262 38.1525 48.1075 38.4771 50.8196 39.0142 C 53.7349 39.592 55.6147 41.2333 56.7944 43.8128 C 56.9945 44.2499 57.039 44.8403 56.9398 45.3152 C 56.6027 46.9301 56.304 48.5738 55.7385 50.115 C 55.3641 51.1348 54.5378 51.9108 53.5979 52.4239 C 52.8112 52.8539 51.7745 53.0467 50.9272 53.382 C 49.4188 53.9784 47.9476 54.1125 46.3497 54.2592 C 42.6766 54.5951 38.9284 54.5622 35.7535 52.476 Z M 43.0546 51.788 C 40.9368 48.2355 39.6495 44.7248 42.0504 40.8177 C 37.2667 42.138 35.1676 43.835 35.542 46.1607 C 36.206 50.2899 37.8479 51.627 43.0546 51.788 Z " stroke-width="1" fill="#30419a" stroke="none"/><path d="M 87.1916 47.1612 C 87.2439 50.3198 86.0185 52.8778 83.1513 54.2233 C 81.81 54.852 80.0924 54.6975 78.5414 54.861 C 77.6976 54.9502 76.846 54.9634 75.8418 55.0197 C 73.4638 54.6664 70.8905 55.0999 68.3827 54.1802 C 64.0834 52.6024 61.6483 47.6445 64.6345 43.0081 C 66.2289 40.5327 68.5498 39.7321 71.2223 39.3722 C 74.8989 38.8765 78.5618 38.9423 82.1147 40.0363 C 85.3328 41.0279 87.1189 42.7865 87.1916 47.1612 Z M 73.911 52.5449 C 71.3509 49.0528 70.3617 45.5577 72.7541 41.7722 C 71.8569 41.4458 70.1057 41.7536 68.6766 42.4003 C 65.6886 43.7524 64.9548 48.5079 67.0384 50.4042 C 68.9098 52.1066 71.2541 52.4359 73.911 52.5449 Z " stroke-width="1" fill="#30419a" stroke="none"/><path d="M 58.7872 53.3736 C 58.8773 53.2287 58.9993 53.0862 59.1567 52.9485 C 60.0678 52.1521 60.7445 52.7024 61.2902 53.5634 C 61.5678 54.0017 61.6069 54.7323 61.4566 55.2418 C 61.3719 55.5316 60.6321 55.867 60.2787 55.7855 C 59.0762 55.5089 58.1549 54.3874 58.7872 53.3736 Z " stroke-width="1" fill="#30419a" stroke="none"/></g></g></g></g></svg>