<svg version="1.1" xmlns="http://www.w3.org/2000/svg" xmlns:xlink="http://www.w3.org/1999/xlink" width="103.96054" height="50.06445" viewBox="0,0,103.96054,50.06445"><g transform="translate(-188.3274,-154.94804)"><g data-paper-data="{&quot;isPaintingLayer&quot;:true}" fill-rule="nonzero" stroke-linecap="butt" stroke-linejoin="miter" stroke-miterlimit="10" stroke-dasharray="" stroke-dashoffset="0" style="mix-blend-mode: normal"><path d="M211.69907,177.29059c1.31789,-13.60482 14.81752,-23.42948 30.15228,-21.94402c15.33476,1.48547 26.69767,13.71855 25.37978,27.32336c-1.31789,13.60482 -14.81753,23.42949 -30.15228,21.94402c-15.33476,-1.48547 -26.69767,-13.71855 -25.37978,-27.32337z" fill="#726658" stroke="none" stroke-width="1"/><path d="M211.69907,177.29059c1.31789,-13.60482 14.81752,-23.42948 30.15228,-21.94402c15.33476,1.48547 26.69767,13.71855 25.37978,27.32336c-1.31789,13.60482 -14.81753,23.42949 -30.15228,21.94402c-15.33476,-1.48547 -26.69767,-13.71855 -25.37978,-27.32337z" fill="none" stroke="#ffffff" stroke-width="0.5"/><path d="M265.63264,189.06964c-8.45234,1.23379 -18.64365,0.43344 -29.07604,-2.73218c-9.64187,-2.92528 -17.99016,-7.41211 -24.20572,-12.59153" fill="none" stroke="#c2b59b" stroke-width="0.5"/><path d="M263.34344,193.10974c-5.04593,1.90234 -10.7425,2.11005 -16.20464,0.58229" fill="none" stroke="#c2b59b" stroke-width="0.5"/><path d="M219.60466,189.18927c-2.0837,-0.24907 -4.19499,-0.66959 -6.30703,-1.26902" fill="none" stroke="#c2b59b" stroke-width="0.5"/><path d="M243.51947,192.77379c-5.23242,3.6927 -13.01779,5.69538 -22.01668,5.71582" fill="none" stroke="#c2b59b" stroke-width="0.5"/><path d="M242.68864,187.94016c-5.34008,4.75226 -14.34207,7.27305 -24.90355,7.10998" fill="none" stroke="#c2b59b" stroke-width="0.5"/><path d="M251.39083,189.30256c-2.27063,3.60989 -6.00801,5.95345 -10.51165,6.98704" fill="none" stroke="#c2b59b" stroke-width="0.5"/><path d="M245.77194,188.69798c-3.41605,6.90882 -8.22618,12.23686 -13.49679,15.10002" fill="none" stroke="#c2b59b" stroke-width="0.5"/><path d="M249.113,203.43076c-2.61738,-1.41897 -5.14672,-3.22827 -7.48719,-5.42115c-0.39258,-0.36556 -0.77425,-0.74011 -1.14557,-1.11767" fill="none" stroke="#c2b59b" stroke-width="0.5"/><path d="M255.49927,200.66663c-3.94667,-0.90977 -7.92986,-2.68711 -11.62538,-5.29758" fill="none" stroke="#c2b59b" stroke-width="0.5"/><path d="M223.57317,194.83119c-4.53958,-4.91158 -7.43014,-11.41358 -7.88849,-18.51586" fill="none" stroke="#c2b59b" stroke-width="0.5"/><path d="M266.80454,185.83958c-8.90534,0.76594 -19.21221,-3.41532 -27.02742,-11.87024c-4.92686,-5.33188 -8.08302,-11.51902 -9.37426,-17.57372" fill="none" stroke="#c2b59b" stroke-width="0.5"/><path d="M255.44025,159.87288c0.90355,2.4857 1.28189,5.25911 1.00296,8.13863c-0.54891,5.66647 -3.5215,10.44512 -7.6445,13.16024" fill="none" stroke="#c2b59b" stroke-width="0.5"/><path d="M223.81028,181.28595c-0.1141,-1.11419 -0.11971,-2.24902 -0.00825,-3.39963c0.99445,-10.26594 10.9439,-17.7033 22.22311,-16.61069c11.27722,1.09241 19.61526,10.30025 18.62071,20.56719c-0.13788,1.42334 -0.44907,2.7897 -0.91033,4.08727" fill="none" stroke="#c2b59b" stroke-width="0.5"/><path d="M265.18833,190.0574c0.17111,-0.36621 0.64796,-1.54472 0.64796,-1.54472c7.84785,-1.74546 12.76515,-4.15557 12.7117,-6.7257c-0.09938,-4.77182 -17.28132,-8.28885 -38.37954,-7.85407c-21.09902,0.43269 -38.12305,4.65093 -38.02367,9.42274c0.04993,2.43014 4.53185,4.53508 11.70504,5.95833c0,0 0.45728,1.10825 0.72084,1.48844c0.26357,0.38019 1.17365,1.69908 1.17365,1.69908c-16.09415,-1.84436 -27.06513,-5.83877 -27.16623,-10.6861c-0.14491,-7.07092 22.89693,-13.27819 51.46774,-13.86619c28.56981,-0.5881 51.84711,4.67176 51.99212,11.74168c0.10507,4.94115 -11.11792,9.46011 -27.63441,11.93415c0,0 0.613,-1.20451 0.78481,-1.56763z" fill="#f9ed32" stroke="none" stroke-width="1" opacity="0.8"/><g fill="none" stroke="#c2b59b" stroke-width="0.5"><path d="M213.85082,189.31408c-7.17419,-1.42335 -11.65611,-3.5283 -11.70505,-5.95834c-0.09838,-4.77172 16.92466,-8.99004 38.02367,-9.42273c21.09822,-0.43478 38.28017,3.08225 38.37954,7.85407c0.05345,2.57012 -4.86385,4.98023 -12.7117,6.7257"/><path d="M215.74431,192.5015c-16.09415,-1.84436 -27.06513,-5.83877 -27.16623,-10.6861c-0.14491,-7.07092 22.89693,-13.27819 51.46774,-13.86619c28.56981,-0.5881 51.84711,4.67176 51.99212,11.74168c0.10507,4.94115 -11.11792,9.46011 -27.63441,11.93415"/></g></g></g></svg>