<svg version="1.1" xmlns="http://www.w3.org/2000/svg" xmlns:xlink="http://www.w3.org/1999/xlink" width="118.87507" height="212.90962" viewBox="0,0,118.87507,212.90962"><g transform="translate(-177.44332,-96.5452)"><g data-paper-data="{&quot;isPaintingLayer&quot;:true}" stroke="none" stroke-width="1" stroke-linecap="butt" stroke-linejoin="miter" stroke-miterlimit="10" stroke-dasharray="" stroke-dashoffset="0" style="mix-blend-mode: normal"><g fill-rule="nonzero"><path d="M250.58343,103.15673l2.295,1.3l4.088,5.1l6.294,11.4l4.092,16.3l3.793,21.8l0.998,6l-5.989,28l-10.481,6.9l-7.386,1.6l-11.394,0.4l-8.27,-0.7l-6.488,-1.5l-6.089,-3.7l-4.791,-6.4l-7.087,-20.9v-9.8v-7.5l0.798,-12.2l1.498,-10.1l2.795,-8.8l3.393,-8l3.815,-4.9l4.57,-3.9l6.089,2.7l8.284,1.2l6.589,-0.6l5.29,-1.5l3.294,-2.2" fill="#c1b4d8"/><path d="M259.26743,186.05673h0.281l-0.481,6.2l-0.2,6.9l-1.901,0.6l-7.282,1.498l-13.835,0.702l-10.221,-0.9l-4.99,-2.209l0.099,-11.991l8.585,1.3l15.072,0.5l11.179,-0.999l3.694,-1.601" fill="#897ab8"/><path d="M211.65443,116.05673l3.294,1.2l3.394,3.4l1.597,4.5v6.4l-4.143,6l-3.643,1.6l-5.49,-0.5l-1.497,-0.7l1.597,-9.4l3.095,-9.7l1.796,-2.8" fill="#ef463c"/><path d="M221.13743,103.15673l4.791,-3.1l5.805,-2.4l8.394,0.3l6.862,2.4l2.695,2.2v1l-4.391,2.5l-7.357,1.171l-7.916,-0.271l-6.288,-1.6l-2.595,-2.2" fill="#ef463c"/><path d="M219.44043,158.65673l0.499,1.9l0.699,21v16.2l-1.198,1.1l-2.973,3.8l-1.092,6.301v9.499v5.901l-1.092,-2.001l-6.123,-13.299l-6.388,-17.101l-2.994,-14l0.998,-12l4.491,-6.4l6.588,-2.433l8.585,1.533" fill="#ef463c"/><path d="M267.05341,160.05773l4.391,0.399l4.592,2.8l4.691,6.8l0.4,11.4l-1.697,11.301l-1.398,2.4l-4.791,16.8l-7.486,13.999l-0.2,-5.599l0.3,-9.9l-1.198,-6.8l-2.496,-3.301l-3.875,-1.5l1.32,-13.4l0.459,-12.199l0.599,-11.601l0.4,-1.1l2.495,-1l3.494,0.501" fill="#ef463c"/><path d="M205.86443,133.55673l0.2,-2.9l1.697,-5.6l1.497,-4.7l4.192,1.9l1.925,2.9v4.6l-2.822,3.3l-4.493,1l-2.196,-0.5" fill="#ffffff"/><path d="M258.25843,199.77173c-0.639,0.711 -1.232,1.226 -2.208,1.162c-0.545,-0.037 -1.105,0.249 -1.665,0.357c-1.014,0.194 -2.029,0.384 -3.049,0.538c-1.371,0.206 -2.745,0.41 -4.124,0.554c-0.982,0.101 -1.976,0.096 -2.962,0.15c-0.323,0.018 -0.646,0.045 -0.961,0.109c-1.111,0.226 -2.231,0.206 -3.356,0.155c-0.374,-0.018 -0.758,-0.133 -1.089,0.184c-0.073,0.071 -0.25,0.062 -0.376,0.048c-1.955,-0.208 -3.91,-0.424 -5.865,-0.634c-0.161,-0.016 -0.343,-0.061 -0.482,-0.007c-0.975,0.375 -1.913,0.059 -2.858,-0.123c-0.19,-0.037 -0.378,-0.087 -0.568,-0.122c-0.663,-0.121 -1.324,-0.249 -1.989,-0.353c-0.512,-0.08 -1.029,-0.124 -1.542,-0.192c-1.024,-0.137 -2.04,-0.25 -2.866,-1.009c-0.419,-0.386 -0.948,-0.66 -1.446,-0.952c-0.342,-0.201 -1.116,-0.039 -1.388,0.298c-0.883,1.096 -1.875,2.152 -2.297,3.515c-0.526,1.696 -1.036,3.411 -1.12,5.211c-0.06,1.262 -0.191,2.524 -0.213,3.787c-0.037,2.029 0.084,4.052 0.399,6.062c0.055,0.351 -0.011,0.718 0.021,1.073c0.116,1.289 0.053,2.638 0.438,3.841c0.291,0.911 0.321,1.749 0.312,2.634c-0.823,0.333 -1.538,0.075 -1.967,-0.598c-0.668,-1.049 -1.351,-2.092 -2.096,-3.086c-0.626,-0.835 -1.172,-1.69 -1.542,-2.676c-0.304,-0.813 -0.784,-1.559 -1.098,-2.368c-0.679,-1.745 -1.289,-3.515 -1.952,-5.266c-0.354,-0.937 -0.767,-1.852 -1.141,-2.782c-0.308,-0.767 -0.613,-1.536 -0.888,-2.314c-0.116,-0.328 -0.147,-0.685 -0.22,-1.027c-0.073,-0.343 -0.053,-0.756 -0.243,-1.015c-0.798,-1.09 -1.18,-2.337 -1.522,-3.614c-0.097,-0.363 -0.368,-0.678 -0.496,-1.037c-0.617,-1.729 -1.199,-3.469 -1.819,-5.197c-0.293,-0.82 -0.65,-1.618 -0.961,-2.433c-0.228,-0.595 -0.462,-1.167 -0.537,-1.835c-0.098,-0.883 -0.474,-1.733 -0.707,-2.603c-0.239,-0.896 -0.481,-1.793 -0.67,-2.7c-0.329,-1.58 -0.648,-3.163 -0.914,-4.753c-0.156,-0.925 -0.235,-1.864 -0.287,-2.801c-0.094,-1.652 -0.221,-3.308 -0.187,-4.959c0.032,-1.52 0.255,-3.036 0.402,-4.552c0.015,-0.155 0.084,-0.307 0.13,-0.46c0.254,-0.834 0.521,-1.663 0.758,-2.502c0.105,-0.372 0.192,-0.759 0.213,-1.143c0.032,-0.596 0.237,-1.026 0.775,-1.352c0.279,-0.17 0.459,-0.538 0.629,-0.847c0.566,-1.028 1.218,-1.992 2.119,-2.752c0.252,-0.213 0.375,-0.402 0.354,-0.731c-0.024,-0.385 0.031,-0.775 0.012,-1.16c-0.056,-1.16 -0.141,-2.318 -0.195,-3.479c-0.016,-0.351 0.009,-0.707 0.048,-1.057c0.173,-1.546 0.386,-3.088 0.525,-4.636c0.054,-0.598 -0.083,-1.212 -0.063,-1.815c0.021,-0.669 0.119,-1.337 0.191,-2.004c0.053,-0.481 0.129,-0.961 0.178,-1.441c0.142,-1.395 0.25,-2.795 0.421,-4.186c0.173,-1.418 0.386,-2.832 0.616,-4.243c0.358,-2.196 0.707,-4.396 1.14,-6.578c0.18,-0.911 0.567,-1.781 0.858,-2.67c0.079,-0.244 0.228,-0.498 0.209,-0.736c-0.077,-0.991 0.282,-1.851 0.753,-2.67c0.692,-1.202 0.88,-2.566 1.297,-3.856c0.04,-0.123 0.047,-0.257 0.099,-0.372c0.692,-1.499 1.389,-2.994 2.084,-4.49c0.114,-0.244 0.343,-0.414 0.189,-0.787c-0.071,-0.173 0.214,-0.582 0.435,-0.767c0.813,-0.681 1.447,-1.477 1.853,-2.462c0.086,-0.206 0.215,-0.405 0.363,-0.572c1.135,-1.267 2.279,-2.525 3.418,-3.789c0.064,-0.071 0.139,-0.15 0.163,-0.239c0.235,-0.867 1.011,-1.278 1.658,-1.65c0.784,-0.45 1.374,-1.075 2.036,-1.635c0.348,-0.295 0.655,-0.579 1.136,-0.697c0.459,-0.113 0.873,-0.416 1.302,-0.646c0.541,-0.289 1.077,-0.584 1.61,-0.887c0.191,-0.108 0.377,-0.232 0.545,-0.373c0.384,-0.321 0.712,-0.649 1.286,-0.728c0.517,-0.071 0.994,-0.446 1.486,-0.69c0.168,-0.084 0.323,-0.233 0.498,-0.261c0.7,-0.113 1.405,-0.2 2.111,-0.276c0.865,-0.096 1.731,-0.218 2.598,-0.245c0.983,-0.03 1.971,-0.005 2.952,0.063c2.922,0.203 5.81,0.702 8.49,1.886c1.758,0.776 3.526,1.626 4.998,2.947c0.603,0.539 1.274,1.007 1.942,1.464c1.531,1.05 2.618,2.499 3.691,3.973c0.571,0.785 1.221,1.513 1.806,2.289c0.388,0.517 0.766,1.052 1.075,1.62c0.954,1.759 1.874,3.538 2.805,5.309c0.089,0.173 0.14,0.373 0.258,0.523c1.248,1.599 1.731,3.538 2.321,5.41c0.849,2.692 1.578,5.421 2.337,8.139c0.157,0.559 0.214,1.143 0.334,1.711c0.121,0.573 0.187,1.172 0.408,1.705c0.726,1.756 0.99,3.622 1.384,5.457c0.294,1.363 0.566,2.73 0.802,4.103c0.332,1.917 0.611,3.844 0.936,5.762c0.135,0.795 0.339,1.577 0.497,2.368c0.165,0.825 0.289,1.659 0.471,2.481c0.236,1.07 0.531,2.126 0.76,3.197c0.121,0.568 0.173,1.153 0.227,1.734c0.052,0.573 0.228,0.974 0.76,1.354c1.505,1.079 3.036,2.166 4.347,3.464c1.885,1.864 3.28,4.068 3.913,6.727c0.552,2.318 0.882,4.65 0.966,7.021c0.047,1.392 0.032,2.789 -0.026,4.181c-0.025,0.606 -0.259,1.2 -0.346,1.808c-0.165,1.189 -0.227,2.397 -0.457,3.574c-0.249,1.268 -0.641,2.507 -0.97,3.76c-0.115,0.436 -0.222,0.875 -0.34,1.31c-0.264,0.972 -0.501,1.952 -0.809,2.909c-0.289,0.895 -0.689,1.753 -0.978,2.649c-0.415,1.293 -0.774,2.602 -1.155,3.906c-0.527,1.806 -1.046,3.615 -1.58,5.42c-0.163,0.556 -0.379,1.096 -0.544,1.652c-0.752,2.534 -2.124,4.804 -3.068,7.257c-0.57,1.479 -1.23,2.925 -1.874,4.374c-0.183,0.414 -0.472,0.779 -0.679,1.182c-0.351,0.689 -0.645,1.406 -1.018,2.08c-0.468,0.853 -1.005,1.668 -1.488,2.513c-0.267,0.467 -0.454,0.981 -0.731,1.441c-0.187,0.311 -0.338,0.697 -0.859,0.649c-0.456,-0.042 -0.672,-0.277 -0.878,-0.649c-0.252,-0.455 -0.369,-0.876 -0.154,-1.381c0.217,-0.511 0.211,-1.056 0.213,-1.612c0.004,-0.807 0.189,-1.612 0.21,-2.419c0.027,-1.189 -0.024,-2.381 -0.043,-3.572c-0.006,-0.356 -0.027,-0.713 -0.026,-1.067c0.004,-1.159 0.034,-2.317 0.017,-3.475c-0.01,-0.735 -0.082,-1.467 -0.129,-2.201c-0.02,-0.324 -0.082,-0.65 -0.06,-0.972c0.117,-1.654 -0.159,-3.258 -0.475,-4.876c-0.168,-0.86 -0.323,-1.708 -0.664,-2.507c-0.16,-0.376 -0.378,-0.773 -0.68,-1.03c-0.776,-0.656 -1.559,-1.341 -2.444,-1.819c-0.655,-0.355 -1.476,-0.403 -2.184,-0.578zM205.39443,145.37572c0.726,0.357 1.369,0.747 2.061,1c3.115,1.14 6.379,1.692 9.614,2.342c0.761,0.153 1.548,0.172 2.322,0.252c2.899,0.3 5.795,0.621 8.696,0.886c1.064,0.097 2.142,0.043 3.213,0.083c2.266,0.086 4.531,0.258 6.797,0.261c1.712,0.003 3.429,-0.331 5.135,-0.279c1.769,0.054 3.455,-0.435 5.204,-0.506c2.286,-0.092 4.559,-0.499 6.835,-0.789c1.025,-0.132 2.063,-0.231 3.059,-0.489c1.093,-0.283 2.15,-0.718 3.212,-1.116c0.789,-0.296 1.562,-0.634 2.339,-0.96c0.889,-0.374 1.789,-0.723 2.657,-1.144c0.781,-0.379 1.168,-1.058 1.056,-1.742c-0.344,-2.08 -0.705,-4.159 -1.065,-6.237c-0.021,-0.123 -0.101,-0.235 -0.143,-0.357c-0.301,-0.883 -0.654,-1.754 -0.885,-2.656c-0.385,-1.499 -0.462,-3.059 -0.999,-4.539c-0.516,-1.425 -0.869,-2.909 -1.301,-4.364c-0.193,-0.65 -0.396,-1.297 -0.605,-1.941c-0.347,-1.075 -0.589,-2.203 -1.077,-3.213c-1.277,-2.647 -2.66,-5.245 -4.011,-7.857c-0.147,-0.285 -0.361,-0.537 -0.547,-0.802c-0.877,-1.244 -1.742,-2.495 -2.636,-3.726c-0.96,-1.322 -2.122,-2.42701 -3.489,-3.19701c-1.177,0.569 -2.273,1.122 -3.39,1.631c-0.853,0.388 -1.707,0.913 -2.605,1.035c-1.845,0.248 -3.56,1.27601 -5.503,0.92101c-0.115,-0.022 -0.247,0.075 -0.374,0.087c-1.26,0.115 -2.521,0.33 -3.777,0.309c-1.64,-0.027 -3.276,-0.272 -4.917,-0.361c-0.666,-0.036 -1.237,-0.314 -1.855,-0.475c-0.965,-0.251 -1.954,-0.426 -2.939,-0.594c-1.865,-0.316 -3.398,-1.241 -4.793,-2.559c-0.89,0.805 -1.783,1.617 -2.682,2.422c-0.899,0.804 -1.59,1.763 -2.231,2.784c-0.858,1.364 -1.836,2.652 -2.705,4.009c-0.356,0.558 -0.663,1.179 -0.693,1.906c1.099,0.419 2.156,0.816 3.207,1.225c0.241,0.094 0.519,0.175 0.692,0.349c0.98,0.984 2.124,1.872 2.859,3.02c1.962,3.061 2.64,6.445 1.956,10.064c-0.362,1.913 -1.138,3.66 -2.147,5.291c-1.427,2.305 -3.721,3.478 -6.177,4.285c-2.243,0.737 -4.55,0.516 -6.933,-0.046c-0.143,1.916 -0.284,3.781 -0.435,5.787zM221.29743,185.91973c1.316,0.359 2.458,0.685 3.608,0.983c1.483,0.386 2.988,0.596 4.528,0.532c0.584,-0.025 1.175,-0.044 1.753,0.026c1.868,0.229 3.731,0.441 5.62,0.339c0.969,-0.052 1.944,0.026 2.916,0.045c1.475,0.03 2.956,0.134 4.429,0.074c1.64,-0.067 3.287,-0.053 4.917,-0.36c1.201,-0.225 2.426,-0.305 3.64,-0.463c0.442,-0.058 0.876,-0.184 1.319,-0.233c1.551,-0.17 2.95,-0.816 4.367,-1.4c0.164,-0.068 0.323,-0.345 0.341,-0.54c0.132,-1.312 0.286,-2.627 0.31,-3.943c0.015,-0.896 -0.139,-1.79 0.127,-2.678c0.071,-0.243 0.048,-0.516 0.057,-0.775c0.032,-1.136 0.044,-2.271 0.095,-3.405c0.097,-2.204 0.255,-4.406 0.311,-6.612c0.055,-2.091 -0.012,-4.187 0.026,-6.281c0.014,-0.763 0.343,-1.506 1.07,-1.798c0.89,-0.357 1.772,-0.801 2.774,-0.821c1.473,-0.028 2.946,-0.08 4.418,-0.111c0.155,-0.003 0.311,0.084 0.469,0.113c0.678,0.126 1.356,0.246 2.089,0.379c-0.437,-2.19 -0.878,-4.249 -1.254,-6.321c-0.378,-2.078 -0.64,-4.177 -1.093,-6.322c-0.741,0.383 -1.334,0.759 -1.976,1.007c-1.134,0.436 -2.308,0.766 -3.447,1.192c-1.546,0.578 -3.066,1.234 -4.707,1.504c-0.659,0.11 -1.357,0.076 -1.982,0.279c-1.463,0.477 -2.959,0.471 -4.462,0.515c-0.55,0.016 -1.1,0.1 -1.646,0.181c-1.21,0.179 -2.412,0.433 -3.628,0.552c-1.144,0.113 -2.303,0.071 -3.455,0.135c-0.805,0.046 -1.606,0.222 -2.408,0.221c-1.737,-0.002 -3.476,-0.089 -5.213,-0.126c-0.839,-0.019 -1.693,0.094 -2.514,-0.028c-1.327,-0.198 -2.642,-0.134 -3.966,-0.075c-0.412,0.017 -0.829,-0.034 -1.241,-0.08c-0.632,-0.072 -1.26,-0.185 -1.892,-0.246c-0.992,-0.096 -1.985,-0.218 -2.979,-0.234c-1.432,-0.021 -2.828,-0.394 -4.268,-0.328c-0.495,0.023 -1.014,-0.14 -1.498,-0.294c-1.39,-0.442 -2.77,-0.897 -4.265,-0.684c-0.149,0.021 -0.314,-0.05 -0.466,-0.095c-0.334,-0.101 -0.663,-0.222 -0.998,-0.317c-0.583,-0.167 -1.18,-0.292 -1.754,-0.487c-1.16,-0.395 -2.307,-0.829 -3.464,-1.231c-0.144,-0.05 -0.32,-0.007 -0.479,-0.007c-0.608,3.462 -0.745,8.696 -0.294,9.756c1.321,-0.327 2.637,-0.61 3.93,-0.982c1.603,-0.461 3.199,-0.335 4.8,-0.056c1.301,0.227 2.597,0.479 3.895,0.72c0.698,0.129 1.403,0.229 2.091,0.395c0.719,0.174 0.892,0.526 0.787,1.27c-0.043,0.312 -0.035,0.651 0.042,0.954c0.234,0.925 0.369,1.849 0.209,2.801c-0.027,0.158 -0.058,0.332 -0.02,0.482c0.469,1.852 -0.034,3.744 0.242,5.612c0.131,0.882 -0.044,1.805 -0.017,2.708c0.038,1.264 0.219,2.53 0.186,3.79c-0.05,2.009 -0.073,4.012 0.007,6.02c0.062,1.539 0.013,3.085 0.013,4.748zM214.44343,221.36273c-0.05,-0.914 -0.096,-1.638 -0.128,-2.363c-0.027,-0.612 -0.036,-1.223 -0.058,-1.836c-0.038,-1.032 -0.098,-2.064 -0.114,-3.098c-0.008,-0.515 0.139,-1.042 0.08,-1.546c-0.158,-1.362 -0.209,-2.705 0.028,-4.068c0.132,-0.761 0.301,-1.518 0.42,-2.275c0.332,-2.104 1.038,-4.048 2.033,-5.918c0.383,-0.723 1.023,-1.15199 1.542,-1.719c0.615,-0.67 1.439,-1.225 1.471,-2.278c0.019,-0.634 0.045,-1.268 0.036,-1.902c-0.034,-2.187 -0.109,-4.373 -0.116,-6.56c-0.007,-2.128 0.12,-4.258 0.054,-6.38401c-0.05,-1.636 0.221,-3.275 -0.071,-4.909c-0.05,-0.274 0.067,-0.574 0.079,-0.863c0.032,-0.805 0.216,-1.651 0.034,-2.406c-0.265,-1.095 -0.314,-2.173 -0.3,-3.276c0.012,-0.84 0.012,-1.681 -0.003,-2.522c-0.021,-1.223 -0.027,-2.44899 -0.101,-3.66999c-0.076,-1.257 -0.2,-2.512 -0.353,-3.762c-0.057,-0.46 -0.255,-0.843 -0.87,-0.863c-0.542,-0.016 -1.078,-0.193 -1.618,-0.295c-1.99,-0.375 -3.963,-0.835 -6.026,-0.537c-2.283,0.33 -4.555,0.606 -6.395,2.226c-1.359,1.198 -2.541,2.526 -3.107,4.271c-0.569,1.754 -1.043,3.541 -1.215,5.39c-0.108,1.158 -0.263,2.31301 -0.32,3.47301c-0.039,0.809 0.037,1.625 0.088,2.437c0.067,1.068 0.06,2.155 0.262,3.199c0.579,2.989 0.849,6.044 1.867,8.947c0.429,1.224 0.666,2.514 1.087,3.742c0.63,1.84 1.348,3.649 2.022,5.474c0.673,1.821 1.345,3.644 2.007,5.471c0.53,1.462 1.033,2.934 1.576,4.39c0.113,0.304 0.352,0.561 0.534,0.838c-0.02,0.46 -0.02,0.946 0.147,1.364c0.551,1.381 1.165,2.736 1.752,4.101c0.332,0.776 0.758,1.52899 0.964,2.33799c0.424,1.67 1.379,3.06701 2.145,4.56201c0.124,0.245 0.311,0.458 0.567,0.827zM266.53443,222.65373c0.425,-0.94 1.035,-1.75 1.64,-2.568c0.576,-0.781 1.085,-1.599 1.375,-2.54c0.208,-0.676 0.423,-1.355 0.699,-2.006c0.352,-0.834 0.769,-1.64 1.156,-2.462c0.616,-1.311 1.233,-2.622 1.842,-3.937c0.095,-0.204 0.165,-0.425 0.22,-0.644c0.212,-0.841 0.383,-1.694 0.627,-2.525c0.197,-0.671 0.501,-1.31 0.713,-1.978c0.147,-0.461 0.18,-0.958 0.331,-1.417c0.704,-2.15 1.184,-4.365 2.005,-6.483c0.544,-1.405 0.941,-2.873 1.332,-4.331c0.458,-1.714 1.172,-3.36001 1.258,-5.18c0.047,-1.025 0.23,-2.071 0.534,-3.052c0.392,-1.269 0.3,-2.562 0.365,-3.837c0.068,-1.302 -0.131,-2.616 -0.185,-3.927c-0.062,-1.487 -0.037,-2.987 -0.47,-4.429c-0.333,-1.112 -0.558,-2.313 -1.152,-3.276c-1.086,-1.763 -2.39,-3.403 -4.025,-4.713c-0.579,-0.464 -1.127,-1.059 -2.002,-1.034c-0.217,0.006 -0.456,-0.234 -0.659,-0.393c-1.272,-0.988 -2.703,-1.456 -4.316,-1.392c-0.768,0.03 -1.55,0.094 -2.303,-0.019c-1.035,-0.156 -1.998,0.046 -2.964,0.323c-0.42,0.121 -0.79,0.37 -0.88,0.829c-0.14,0.718 -0.277,1.443 -0.326,2.171c-0.159,2.393 -0.016,4.805 -0.462,7.181c-0.029,0.158 -0.003,0.326 -0.009,0.488c-0.072,1.977 -0.149,3.954 -0.216,5.93c-0.012,0.325 0.016,0.65 0.025,0.976c0.015,0.642 0.041,1.284 0.038,1.926c-0.002,0.454 -0.06,0.907 -0.065,1.361c-0.012,1.13 0.131,2.258 -0.062,3.389c-0.085,0.501 -0.03,1.026 -0.046,1.54c-0.041,1.159 -0.069,2.318 -0.135,3.475c-0.041,0.711 -0.109,1.425 -0.225,2.127c-0.106,0.639 0.161,1.396 -0.532,1.878c-0.055,0.039 -0.047,0.184 -0.052,0.28c-0.06,1.196 -0.116,2.392 -0.17,3.525c0.71,0.273 1.373,0.459 1.969,0.774c0.622,0.33 1.16,0.818 1.771,1.175c0.85,0.495 1.444,1.266 1.817,2.088c0.518,1.137 0.954,2.374 1.089,3.607c0.282,2.58 0.351,5.184 0.494,7.78c0.034,0.64 0.029,1.282 0.013,1.924c-0.02,0.84 -0.175,1.692 -0.083,2.518c0.182,1.62 0.222,3.227 0.026,4.878zM233.04543,189.35773c0.064,0.727 0.131,1.361 0.173,1.996c0.184,2.849 0.365,5.698 0.537,8.547c0.057,0.937 0.281,1.144 1.221,1.252c1.718,0.198 3.426,0.073 5.14,-0.04c0.872,-0.059 1.751,-0.005 2.622,-0.063c0.806,-0.053 1.61,-0.186 2.414,-0.283c0.791,-0.095 1.581,-0.189 2.397,-0.287c-0.054,-1.305 -0.131,-2.486 -0.138,-3.666c-0.005,-0.642 0.169,-1.286 0.158,-1.927c-0.021,-1.063 -0.108,-2.125 -0.201,-3.183c-0.062,-0.699 -0.182,-1.391 -0.288,-2.184c-1.152,0.058 -2.213,0.134 -3.276,0.157c-1,0.022 -2.022,0.117 -2.992,-0.06c-0.967,-0.176 -1.914,-0.227 -2.887,-0.205c-0.713,0.016 -1.427,-0.043 -2.142,-0.051c-0.868,-0.011 -1.736,-0.003 -2.738,-0.003zM222.35743,103.15973c0.426,1.059 1.382,1.417 2.262,1.701c1.533,0.494 3.113,0.864 4.694,1.183c2.84,0.572 5.713,0.599 8.603,0.455c2.064,-0.102 4.007,-0.717 5.979,-1.194c1.085,-0.263 2.085,-0.867 3.151,-1.238c0.738,-0.256 1.227,-0.786 1.907,-1.365c-0.922,-0.557 -1.747,-1.105 -2.619,-1.566c-0.588,-0.311 -1.274,-0.438 -1.859,-0.753c-1.45,-0.781 -3.024,-1.115 -4.617,-1.409c-0.532,-0.098 -1.058,-0.278 -1.591,-0.297c-1.614,-0.059 -3.23,0.055 -4.842,0.073c-2.095,0.021 -4.019,0.501 -5.886,1.375c-0.743,0.349 -1.506,0.657 -2.23,1.041c-1.046,0.554 -2.121,1.076 -2.952,1.994zM221.13243,198.36873c1.331,0.828 2.794,1.416 4.31,1.703c1.868,0.351 3.786,0.439 5.683,0.644c0.476,0.051 0.804,-0.168 0.807,-0.626c0.006,-1.032 0.238,-2.081 -0.091,-3.092c-0.25,-0.769 -0.189,-1.533 -0.14,-2.31c0.022,-0.349 0.03,-0.7 0.025,-1.05c-0.017,-1.131 -0.03,-2.262 -0.071,-3.392c-0.015,-0.4 -0.107,-0.797 -0.169,-1.234c-0.775,-0.049 -1.419,-0.122 -2.065,-0.127c-1.721,-0.012 -3.415,-0.204 -5.095,-0.592c-0.958,-0.222 -1.94,-0.472 -3.001,-0.075c0.036,1.72 -0.222,3.424 0.072,5.137c0.079,0.46 0.009,0.954 -0.042,1.426c-0.13,1.184 -0.451,2.35401 -0.223,3.58801zM257.71843,198.58573c0.168,-1.386 0.337,-2.698 0.48,-4.013c0.132,-1.217 0.036,-2.433 0.352,-3.664c0.268,-1.039 0.403,-2.2 0.061,-3.365c-0.276,0.053 -0.595,0.02 -0.761,0.164c-0.503,0.441 -1.11,0.44 -1.705,0.584c-1.972,0.48 -3.954,0.828 -5.984,0.89c-0.404,0.012 -0.805,0.159 -1.27,0.258c0.137,1.849 0.297,3.616 0.388,5.387c0.093,1.789 0.12,3.581 0.177,5.411c1.421,-0.187 2.708,-0.321 3.984,-0.534c0.792,-0.133 1.624,-0.273 2.332,-0.625c0.592,-0.294 1.162,-0.47 1.946,-0.493zM210.33343,119.97473c0.634,0.157 1.091,0.306 1.559,0.38c1.032,0.165 1.861,0.814 2.579,1.418c1.289,1.085 1.783,2.738 2.233,4.323c0.349,1.228 -0.033,2.45 -0.314,3.65c-0.139,0.596 -0.203,1.278 -0.544,1.741c-0.527,0.716 -1.228,1.319 -1.915,1.898c-0.921,0.776 -2.107,0.933 -3.221,1.27c-1.384,0.42 -2.737,0.371 -4.152,-0.03c-0.183,0.9 -0.366,1.806 -0.541,2.668c0.493,0.188 0.874,0.278 1.195,0.467c0.822,0.486 1.726,0.656 2.646,0.722c1.207,0.085 2.362,-0.255 3.482,-0.65c1.182,-0.416 2.251,-1.036 3.122,-1.981c1.844,-2.004 2.567,-4.516 3.255,-7.049c0.017,-0.06 0.018,-0.128 0.008,-0.19c-0.101,-0.666 -0.184,-1.335 -0.313,-1.995c-0.148,-0.762 -0.369,-1.509 -0.5,-2.273c-0.539,-3.117 -2.616,-5.026 -5.13,-6.586c-0.739,-0.458 -1.564,-0.488 -2.474,-0.26c-0.29,0.738 -0.596,1.517 -0.975,2.477zM206.83343,132.98172c0.4,0 0.654,-0.074 0.833,0.013c1.018,0.487 2.029,0.298 3.019,-0.026c0.639,-0.208 1.241,-0.532 1.857,-0.81c0.748,-0.336 1.363,-0.864 1.769,-1.551c0.25,-0.424 0.232,-0.996 0.396,-1.48c0.539,-1.595 0.076,-3.093 -0.553,-4.501c-0.794,-1.775 -2.44,-2.536 -4.253,-3.178c-1.661,3.724 -2.228,7.626 -3.068,11.533z" fill="#30419a"/><g fill="#30419a"><path d="M259.60243,155.22773c-0.947,0.504 -1.239,0.476 -1.883,-0.119c-0.093,-0.087 -0.193,-0.169 -0.282,-0.261c-0.668,-0.687 -0.623,-1.357 0.118,-1.932c0.349,-0.271 0.715,-0.424 1.151,-0.219c0.496,0.231 0.872,0.563 0.892,1.154c0.016,0.45 0.004,0.901 0.004,1.377z"/><path d="M236.88543,154.21973c0.392,0.618 1.006,0.77 1.045,1.511c0.029,0.551 -0.03,1.052 -0.439,1.267c-0.374,0.196 -0.91,0.108 -1.372,0.092c-0.098,-0.004 -0.274,-0.24 -0.269,-0.364c0.022,-0.609 0.019,-1.237 0.179,-1.814c0.071,-0.26 0.504,-0.421 0.856,-0.692z"/><path d="M215.56143,152.03973c0.608,0.362 0.738,0.959 0.863,1.559c0.093,0.442 0.063,0.966 -0.369,1.074c-0.366,0.093 -0.923,-0.056 -1.22,-0.306c-0.787,-0.661 -0.715,-1.25 0.109,-1.887c0.198,-0.153 0.408,-0.291 0.617,-0.44z"/></g></g><g fill-rule="nonzero"><g><path d="M252.67943,225.95673c0.443,6.708 -1.11,2.964 -3.993,8.799c-2.882,5.835 -3.394,3.5 -0.699,9.5c2.695,6 1.997,6.401 1.597,13.936c-0.399,7.535 -4.791,16.42 -4.791,16.42l-2.495,10.244l-1.697,13.001l-2.127,9.499c0,0 1.229,0.3 -0.318,-15.1c-1.547,-15.4 -2.743,-11.735 -6.423,-24.192c-3.68,-12.458 -1.713,-20.208 -0.915,-22.208c0.799,-1.999 1.689,-5.977 -1.497,-9.4c-3.185,-3.423 -1.698,-3.333 -3.593,-5.4c-1.895,-2.067 -1.996,-9.399 -1.996,-9.399c0,0 0.339,-4.218 2.894,-7.301c2.555,-3.082 4.991,-3.9 7.886,-4.999c2.895,-1.1 10.281,0.9 10.281,0.9c11.379,3.7 7.443,8.993 7.886,15.7z" fill="#f7ec1e"/><path d="M240.12743,215.95673l2.57,1.5l2.995,3.199l-0.599,9.5l-1.398,6.1l-1.098,7.301l-3.438,15.6l-2.152,-10.8l-1.796,-9.501l-2.496,-9.5v-6.9l2.396,-4.099l5.016,-2.4" fill="#fbf5a8"/></g><g fill="#30419a"><path d="M236.82743,288.47373c-0.011,-2.128 -0.257,-3.633 -0.663,-5.118c-0.412,-1.506 -0.79,-3.019 -1.202,-4.525c-0.065,-0.24 -0.243,-0.449 -0.333,-0.685c-0.37,-0.965 -0.705,-1.944 -1.092,-2.9c-0.374,-0.931 -0.833,-1.826 -1.188,-2.763c-0.315,-0.834 -0.54,-1.702 -0.801,-2.558c-0.237,-0.773 -0.474,-1.545 -0.705,-2.32c-0.453,-1.517 -0.913,-3.03 -1.349,-4.551c-0.448,-1.556 -0.756,-3.137 -0.762,-4.766c-0.001,-0.517 0.025,-1.037 -0.006,-1.552c-0.065,-1.068 -0.198,-2.132 -0.225,-3.2c-0.015,-0.574 0.146,-1.152 0.205,-1.729c0.105,-1.029 0.127,-2.07 0.31,-3.085c0.133,-0.739 0.279,-1.495 0.671,-2.18c0.235,-0.411 0.333,-0.9 0.479,-1.36c0.047,-0.151 0.01,-0.337 0.083,-0.466c0.487,-0.855 0.423,-1.8 0.533,-2.731c0.139,-1.175 -0.163,-2.103 -0.954,-2.984c-1.055,-1.176 -2.016,-2.439 -2.986,-3.687c-0.271,-0.349 -0.434,-0.781 -0.648,-1.176c-0.613,-1.133 -1.379,-2.212 -1.804,-3.411c-0.513,-1.452 -0.743,-3.005 -1.088,-4.515c-0.079,-0.349 -0.08,-0.721 -0.199,-1.053c-0.437,-1.219 -0.246,-2.425 -0.006,-3.645c0.148,-0.751 0.223,-1.516 0.353,-2.271c0.058,-0.343 0.124,-0.695 0.264,-1.009c0.461,-1.035 0.926,-2.07 1.453,-3.072c0.328,-0.627 0.742,-1.218 1.168,-1.787c0.466,-0.618 1.022,-1.171 1.483,-1.794c0.52,-0.702 1.185,-1.2 1.955,-1.564c0.996,-0.469 1.987,-0.962 3.019,-1.333c0.874,-0.314 1.804,-0.47 2.71,-0.695c0.03,-0.007 0.074,0.019 0.095,0.005c0.742,-0.471 1.441,-0.187 2.182,0.049c0.48,0.152 1.035,0.18 1.539,0.118c0.931,-0.116 1.796,0.117 2.673,0.337c0.126,0.032 0.254,0.073 0.381,0.068c1.843,-0.063 3.418,0.755 5.013,1.515c0.467,0.223 0.949,0.413 1.419,0.63c2.557,1.18 4.139,3.176 4.741,5.905c0.286,1.291 0.507,2.619 0.544,3.935c0.054,1.932 -0.016,3.873 -0.168,5.8c-0.091,1.178 -0.425,2.338 -0.674,3.501c-0.052,0.245 -0.202,0.472 -0.323,0.7c-0.382,0.717 -0.765,1.433 -1.158,2.143c-0.17,0.312 -0.333,0.636 -0.55,0.914c-0.619,0.788 -1.235,1.581 -1.906,2.323c-0.953,1.053 -1.553,2.309 -2.18,3.556c-0.304,0.605 -0.057,1.146 0.154,1.68c0.14,0.358 0.35,0.702 0.585,1.01c2.042,2.658 2.979,5.691 3.195,9.011c0.128,1.955 0.105,3.879 -0.173,5.826c-0.174,1.212 -0.1,2.466 -0.454,3.662c-0.75,2.542 -1.207,5.167 -2.283,7.618c-0.808,1.839 -1.456,3.745 -2.195,5.614c-0.89,2.243 -1.439,4.571 -1.914,6.936c-0.507,2.524 -0.978,5.042 -1.22,7.613c-0.168,1.776 -0.577,3.531 -0.877,5.295c-0.043,0.256 -0.079,0.513 -0.101,0.771c-0.048,0.542 -0.059,1.091 -0.132,1.632c-0.404,2.966 -0.839,5.931 -1.227,8.899c-0.118,0.902 -0.122,1.82 -0.179,2.729c-0.008,0.131 -0.008,0.263 -0.029,0.39c-0.127,0.784 -0.618,1.289 -1.238,1.281c-0.555,-0.008 -1.012,-0.499 -1.083,-1.287c-0.184,-2.042 -0.365,-4.085 -0.486,-6.131c-0.161,-2.73 -0.264,-5.466 -0.392,-8.199c-0.093,-1.982 -0.188,-3.966 -0.254,-5.364zM239.30843,300.09873c0.078,0.008 0.156,0.015 0.232,0.022c0.125,-0.888 0.257,-1.77501 0.369,-2.66501c0.17,-1.353 0.297,-2.713 0.494,-4.062c0.279,-1.899 0.62,-3.78799 0.904,-5.68499c0.183,-1.222 0.251,-2.466 0.478,-3.678c0.442,-2.365 0.908,-4.729 1.467,-7.068c0.331,-1.386 0.801,-2.745 1.311,-4.077c0.647,-1.689 1.508,-3.30101 2.076,-5.01301c0.71,-2.139 1.258,-4.336 1.797,-6.526c0.662,-2.683 0.958,-5.414 0.968,-8.184c0.009,-2.405 -0.599,-4.653 -1.484,-6.855c-0.155,-0.384 -0.208,-0.833 -0.438,-1.161c-0.833,-1.194 -1.654,-2.377 -2.196,-3.754c-0.214,-0.543 -0.404,-1.075 -0.267,-1.587c0.22,-0.831 0.573,-1.633 0.932,-2.419c0.224,-0.492 0.553,-0.939 0.852,-1.397c0.192,-0.296 0.375,-0.613 0.63,-0.849c1.117,-1.039 1.837,-2.388 2.792,-3.554c1.17,-1.429 1.531,-3.246 1.939,-5.01c0.043,-0.187 0.022,-0.388 0.027,-0.582c0.028,-0.942 0.053,-1.882 0.081,-2.822c0.049,-1.68 0.136,-3.354 -0.195,-5.025c-0.366,-1.848 -1.167,-3.447 -2.684,-4.578c-0.758,-0.564 -1.636,-0.997 -2.511,-1.363c-1.187,-0.496 -2.415,-0.909 -3.647,-1.286c-0.987,-0.303 -2.006,-0.512 -3.017,-0.732c-0.343,-0.075 -0.705,-0.063 -1.059,-0.083c-0.825,-0.043 -1.678,0.262 -2.472,-0.226c-0.113,-0.069 -0.322,-0.022 -0.472,0.02c-1.275,0.36 -2.605,0.55 -3.765,1.262c-0.187,0.115 -0.438,0.121 -0.638,0.219c-0.867,0.424 -1.894,0.694 -2.549,1.34c-1.027,1.013 -1.92,2.212 -2.654,3.46c-1.247,2.117 -1.74,4.505 -2.033,6.929c-0.024,0.193 -0.028,0.393 -0.003,0.585c0.31,2.387 0.728,4.743 1.732,6.962c0.536,1.184 1.111,2.336 1.971,3.321c0.995,1.14 2.006,2.266 2.986,3.422c0.61,0.722 1.208,1.518 1.245,2.478c0.051,1.248 0.485,2.515 -0.033,3.762c-0.034,0.082 0.016,0.194 0.002,0.289c-0.068,0.441 -0.092,0.899 -0.229,1.318c-0.311,0.953 -0.698,1.883 -1.017,2.833c-0.225,0.668 -0.389,1.357 -0.576,2.037c-0.339,1.236 -0.367,2.498 -0.347,3.765c0.032,2.063 -0.029,4.111 0.332,6.175c0.467,2.663 1.289,5.216 2.029,7.796c0.896,3.12 2.142,6.116 3.381,9.113c0.272,0.655 0.534,1.321 0.717,2.004c0.227,0.844 0.329,1.72299 0.552,2.56799c0.476,1.794 0.989,3.57701 1.076,5.45001c0.054,1.17 0.114,2.342 0.213,3.51c0.056,0.665 -0.006,1.363 0.469,1.949c0.122,0.151 0.101,0.437 0.11,0.662c0.046,1.269 0.096,2.53799 0.119,3.80899c0.018,1.06 0.003,2.12101 0.003,3.18101z"/><path d="M246.58143,226.32773c0.041,1.219 -0.326,2.373 -0.494,3.555c-0.22,1.57 -0.701,3.013 -1.302,4.447c-0.098,0.237 -0.158,0.497 -0.195,0.753c-0.302,1.992 -0.685,3.979 -0.868,5.984c-0.29,3.147 -1.261,6.175 -1.537,9.322c-0.069,0.8 -0.311,1.601 -0.58,2.363c-0.617,1.743 -0.729,3.573 -0.898,5.374c-0.276,2.913 -0.373,5.84 -0.544,8.762c-0.011,0.163 -0.013,0.327 -0.041,0.486c-0.079,0.445 -0.35,0.702 -0.804,0.689c-0.462,-0.011 -0.735,-0.297 -0.746,-0.742c-0.018,-0.781 -0.018,-1.566 0.036,-2.345c0.22,-3.245 -0.052,-6.424 -1.083,-9.535c-0.388,-1.168 -0.632,-2.389 -0.88,-3.6c-0.372,-1.816 -0.712,-3.639 -1.023,-5.469c-0.35,-2.051 -0.647,-4.111 -0.978,-6.166c-0.057,-0.35 -0.127,-0.708 -0.264,-1.034c-1.056,-2.505 -1.655,-5.144 -2.097,-7.804c-0.328,-1.983 -0.478,-4.007 -0.54,-6.016c-0.038,-1.245 0.033,-2.566 0.412,-3.736c0.609,-1.879 1.453,-3.697 3.324,-4.753c0.416,-0.236 0.739,-0.633 1.136,-0.909c0.313,-0.218 0.661,-0.473 1.018,-0.519c1.18,-0.159 2.386,-0.464 3.557,-0.044c1.681,0.606 3.352,1.34 4.22,3.017c0.592,1.141 0.934,2.421 1,3.736c0.07,1.394 0.116,2.789 0.171,4.184zM239.12443,255.45773c0.089,-0.006 0.179,-0.012 0.268,-0.018c0.033,-0.114 0.079,-0.229 0.096,-0.346c0.243,-1.576 0.455,-3.158 0.73,-4.73c0.285,-1.632 0.648,-3.251 0.945,-4.881c0.355,-1.951 0.676,-3.906 1.014,-5.86c0.378,-2.174 0.574,-4.391 1.56,-6.416c0.069,-0.143 0.087,-0.313 0.12,-0.471c0.284,-1.329 0.568,-2.658 0.846,-3.987c0.046,-0.219 0.081,-0.444 0.09,-0.667c0.068,-1.747 0.212,-3.486 0.056,-5.242c-0.153,-1.722 -0.691,-3.189 -2.012,-4.359c-1.138,-1.009 -2.562,-0.86 -3.893,-1.058c-0.482,-0.071 -1.11,-0.023 -1.487,0.238c-0.981,0.682 -2.03,1.38 -2.734,2.313c-0.787,1.042 -1.284,2.329 -1.147,3.736c0.017,0.179 -0.064,0.367 -0.1,0.55c-0.062,0.314 -0.194,0.634 -0.172,0.941c0.07,0.971 0.211,1.938 0.298,2.908c0.1,1.095 0.053,2.218 0.279,3.287c0.523,2.48 0.996,4.982 2.034,7.324c0.155,0.351 0.227,0.747 0.285,1.131c0.186,1.254 0.309,2.519 0.528,3.767c0.447,2.532 0.918,5.061 1.419,7.583c0.285,1.426 0.649,2.838 0.977,4.257z"/></g><g><path d="M211.65443,259.55573l1.397,1.35l0.699,1.851l-0.499,4.599l-2.396,4.101l-2.695,1.999h-3.294l-3.593,-1.099l-1.797,-2.001l-1.725,0.6h-4.363l-4.393,-2.892l-1.996,-3.207v-3.834l1.996,-3.267l3.095,-1.1l-1.098,-2.7l1.198,-2.8l3.094,-2.3l4.801,0.701l3.384,1.8l0.699,-1.2l3.294,-1.8l3.593,1.399l2.196,3.5v3.6l-1.597,2.7" fill="#ffffff"/><path d="M199.17043,271.39773c-1.88,1.164 -3.889,0.806 -5.848,0.684c-2.093,-0.132 -3.621,-1.319 -4.843,-2.943c-0.43,-0.571 -0.813,-1.179 -1.237,-1.756c-1.968,-2.682 -1.747,-5.479 -0.374,-8.294c0.366,-0.749 0.885,-1.455 1.458,-2.063c0.52,-0.552 1.208,-0.943 1.932,-1.487c-0.035,-0.392 -0.101,-0.962 -0.134,-1.533c-0.062,-1.087 0.291,-2.023 0.95,-2.897c0.877,-1.163 1.833,-2.188 3.225,-2.737c1.769,-0.698 3.549,-0.783 5.301,-0.033c1.129,0.485 2.198,1.107 3.383,1.713c0.209,-0.262 0.444,-0.563 0.687,-0.86c1.674,-2.037 4.643,-2.345 6.725,-0.71c1.098,0.864 2.16,1.728 2.983,2.91c1.434,2.057 1.184,5.552 -0.419,7.296c-0.15,0.163 -0.284,0.339 -0.478,0.574c0.347,0.28 0.65,0.513 0.939,0.762c0.538,0.462 0.911,1.015 0.93,1.755c0.05,1.99 -0.001,3.973 -0.446,5.925c-0.273,1.201 -0.827,2.26 -1.684,3.146c-0.857,0.887 -1.688,1.807 -2.606,2.625c-1.105,0.985 -2.415,1.36 -3.898,1.007c-0.789,-0.187 -1.604,-0.273 -2.386,-0.485c-1.623,-0.44 -3.126,-1.112 -4.16,-2.599zM197.12543,249.46973c-1.79,-0.171 -3.562,0.865 -4.431,2.153c-0.091,0.135 -0.191,0.263 -0.288,0.394c-1.107,1.491 -0.98,2.848 0.386,4.113c0.449,0.415 0.549,0.821 0.296,1.197c-0.247,0.369 -0.678,0.445 -1.225,0.219c-0.971,-0.402 -1.596,-0.318 -2.259,0.414c-0.904,0.999 -1.653,2.112 -1.956,3.448c-0.394,1.74 -0.363,3.426 0.807,4.928c0.44,0.564 0.822,1.173 1.234,1.759c1.171,1.663 2.744,2.538 4.805,2.478c0.749,-0.021 1.504,0.059 2.242,-0.024c0.495,-0.057 1.036,-0.225 1.424,-0.518c0.229,-0.175 0.226,-0.687 0.283,-1.054c0.087,-0.567 0.389,-0.927 0.823,-0.917c0.428,0.008 0.773,0.36 0.785,0.944c0.028,1.392 0.888,2.177 1.965,2.813c0.22,0.132 0.469,0.238 0.719,0.298c1.196,0.29 2.398,0.56 3.598,0.839c0.681,0.158 1.277,-0.027 1.846,-0.405c1.52,-1.01 2.643,-2.397 3.656,-3.877c0.267,-0.39 0.408,-0.889 0.522,-1.358c0.42,-1.724 0.458,-3.485 0.395,-5.243c-0.011,-0.309 -0.24,-0.663 -0.469,-0.897c-0.385,-0.393 -0.859,-0.694 -1.28,-1.053c-0.563,-0.481 -0.609,-0.943 -0.145,-1.513c0.247,-0.301 0.53,-0.573 0.802,-0.854c1.203,-1.248 1.507,-3.802 0.41,-5.455c-0.729,-1.1 -1.748,-1.821 -2.726,-2.619c-0.994,-0.811 -2.174,-0.768 -3.239,-0.381c-1.027,0.373 -1.77,1.162 -1.76,2.432c0.004,0.567 -0.527,0.844 -1.048,0.615c-0.174,-0.077 -0.309,-0.238 -0.475,-0.335c-1.171,-0.697 -2.34,-1.4 -3.523,-2.075c-0.697,-0.394 -1.452,-0.57 -2.174,-0.46599z" fill="#30419a"/></g><g><path d="M281.12743,233.15573l0.948,-1.7l1.647,-1.3h2.994l3.494,1.8l1.398,2.8l-0.5,3.401l-1.098,2.7l2.595,1.95l0.599,3.75l-1.198,3.9l-3.194,1.999h-5.09l-4.791,-2.599l-1.498,-3l-1.896,0.577l-2.296,-1.177l-1.797,-2.801l-0.499,-3.9l1.198,-2.899l3.094,-2.7l2.596,-0.801h3.294" fill="#ffffff"/><path d="M280.43743,232.26173c0.378,-1.02 1.249,-1.811 2.083,-2.633c0.487,-0.48 1.067,-0.661 1.749,-0.736c2.143,-0.236 4.028,0.505 5.662,1.713c1.489,1.099 2.542,2.62 2.493,4.629c-0.019,0.777 -0.083,1.557 -0.186,2.326c-0.147,1.079 -0.489,2.091 -1.249,2.971c0.272,0.155 0.527,0.244 0.708,0.413c0.515,0.484 1.16,0.918 1.471,1.52c1.119,2.172 1.356,4.485 0.563,6.819c-0.81,2.385 -3.639,4.383 -6.151,4.428c-1.624,0.031 -3.24,0.037 -4.843,-0.382c-2.849,-0.745 -4.579,-2.684 -5.907,-5.243c-0.117,0 -0.341,-0.027 -0.554,0.006c-1.196,0.183 -2.24,-0.143 -3.206,-0.855c-2.009,-1.485 -2.908,-3.55 -3.067,-5.963c-0.06,-0.898 0.019,-1.829 0.189,-2.713c0.234,-1.209 0.856,-2.249 1.795,-3.069c0.759,-0.662 1.51,-1.341 2.307,-1.958c1.09,-0.845 2.257,-1.591 3.699,-1.573c0.761,0.011 1.521,0.181 2.444,0.3zM280.27643,233.72373c-0.321,0 -0.626,0.072 -0.879,-0.012c-1.583,-0.522 -2.865,0.107 -4.063,1.033c-0.668,0.517 -1.278,1.111 -1.942,1.633c-1.12,0.88 -1.685,2.04 -1.819,3.434c-0.127,1.324 0.086,2.606 0.585,3.827c0.471,1.154 1.29,2.034 2.377,2.634c1.148,0.635 1.992,0.304 2.471,-0.913c0.106,-0.272 0.159,-0.60799 0.354,-0.78899c0.204,-0.194 0.586,-0.37901 0.818,-0.312c0.236,0.066 0.455,0.42001 0.546,0.693c0.071,0.216 -0.099,0.502 -0.098,0.758c0.005,0.836 0.037,1.672 0.06,2.509c0.976,1.447 2.059,2.768 3.791,3.363c1.825,0.628 3.709,0.668 5.594,0.485c1.87,-0.184 3.955,-2.064 4.337,-3.883c0.336,-1.598 0.183,-3.17701 -0.473,-4.687c-0.256,-0.592 -0.672,-1.03199 -1.269,-1.29c-0.766,-0.332 -0.901,-0.297 -1.493,0.354c-0.131,0.142 -0.262,0.299 -0.426,0.391c-0.551,0.309 -1.142,-0.006 -1.222,-0.634c-0.094,-0.734 0.356,-1.52 1.001,-1.851c0.336,-0.17 0.651,-0.397 0.934,-0.645c1.039,-0.911 1.193,-2.202 1.395,-3.451c0.293,-1.808 -0.378,-3.346 -1.76,-4.401c-1.315,-1.007 -2.86,-1.718 -4.625,-1.438c-0.359,0.056 -0.717,0.241 -1.028,0.44c-0.266,0.172 -0.466,0.45 -0.696,0.68c-0.603,0.603 -0.971,1.297 -0.878,2.185c0.016,0.16 0.012,0.325 -0.004,0.487c-0.053,0.547 -0.314,0.851 -0.74,0.87c-0.436,0.021 -0.72,-0.254 -0.801,-0.799c-0.034,-0.222 -0.032,-0.449 -0.047,-0.671z" fill="#30419a"/></g></g><g><g><path d="M219.07602,240.86502l-0.337,10.34l0.563,2.957l0.975,1.609l1.087,1.46l0.863,2.132l0.637,2.732l-0.563,3.517l-0.675,1.011l-1.913,0.748l0.788,0.486l1.087,1.647l0.337,2.844l-0.75,3.555l-2.625,2.881h-4.013l-3.037,-0.936l-3,-2.132l-3.45,0.785l-3.375,-0.935l-2.513,-2.507c0,0 0,-3.81599 0,-3.92899c0,-0.112 2.663,-4.45301 2.663,-4.45301l6.037,-5.314l3.713,-5.5l1.875,-3.61799l1.7,-3.891l3.1,-5.089z" fill="#ffffff" fill-rule="evenodd"/><path d="M208.05602,276.66102c-1.04,0.93 -2.3,0.809 -3.487,0.513c-1.308,-0.325 -2.594,-0.799 -3.825,-1.352c-2.086,-0.935 -3.234,-3.542 -2.689,-5.764c0.576,-2.353 1.735,-4.366 3.475,-6.04c0.86,-0.826 1.767,-1.605 2.676,-2.379c2.239,-1.906 4.353,-3.884 5.882,-6.472c1.351,-2.287 2.516,-4.637 3.507,-7.092c0.553,-1.373 1.129,-2.752 1.86,-4.034c0.823,-1.443 1.477,-2.966 2.292,-4.409c0.219,-0.386 0.351,-0.823 0.529,-1.234c0.076,-0.176 0.143,-0.364 0.258,-0.513c0.228,-0.296 0.515,-0.498 0.919,-0.345c0.375,0.142 0.592,0.432 0.553,0.82c-0.138,1.402 -0.305,2.8 -0.465,4.2c-0.095,0.829 -0.254,1.655 -0.282,2.486c-0.047,1.418 0.049,2.84199 -0.028,4.25799c-0.106,1.943 0.744,3.64102 1.264,5.42401c0.084,0.286 0.369,0.52 0.579,0.762c0.981,1.128 1.888,2.308 2.275,3.781c0.187,0.709 0.321,1.45 0.34,2.181c0.029,1.092 -0.034,2.19 -0.111,3.281c-0.1,1.416 -0.739,2.456 -2.188,2.806c-0.012,0.108 -0.049,0.193 -0.023,0.222c0.98,1.06 1.337,2.321 1.271,3.739c-0.033,0.708 -0.004,1.419 -0.009,2.129c-0.021,2.673 -1.377,4.567 -3.543,5.96c-0.756,0.487 -1.642,0.60699 -2.519,0.55399c-2.088,-0.126 -4.091,-0.63 -5.913,-1.671c-0.888,-0.507 -1.687,-1.169 -2.598,-1.811zM217.69102,244.25402c-0.477,0.827 -0.83399,1.457 -1.20099,2.081c-1.342,2.277 -2.727,4.53 -4.019,6.835c-1.273,2.274 -2.287,4.707 -4.051,6.675c-0.836,0.932 -1.742,1.807 -2.668,2.649c-1.024,0.932 -2.155,1.748 -3.155,2.703c-1.325,1.265 -2.252,2.782 -2.82,4.556c-0.457,1.423 -0.382,2.672 0.637,3.781c0.361,0.392 0.795,0.78 1.275,0.989c0.972,0.426 1.992,0.747 3.004,1.073c0.362,0.116 0.759,0.156 1.142,0.165c1.124,0.028 1.868,-0.666 1.967,-1.798c0.022,-0.256 -0.003,-0.52 0.049,-0.769c0.087,-0.406 0.486,-0.714 0.839,-0.654c0.384,0.064 0.659,0.289 0.7,0.694c0.035,0.352 0.074,0.717 0.016,1.061c-0.182,1.078 0.322,1.783 1.178,2.323c0.191,0.12 0.37799,0.247 0.576,0.356c1.343,0.731 2.755,1.301 4.278,1.461c0.851,0.088 1.836,0.201 2.566,-0.127c1.667,-0.75 2.787,-2.117 2.983,-3.999c0.126,-1.212 0.066,-2.449 0.031,-3.673c-0.024,-0.814 -0.393,-1.49 -1.093,-1.948c-0.459,-0.299 -0.914,-0.61 -1.399,-0.859c-0.407,-0.209 -0.739,-0.436 -0.647,-0.943c0.094,-0.52 0.492,-0.6 0.949,-0.626c0.644,-0.036 1.29,-0.086 1.925,-0.194c0.83,-0.142 1.153,-0.429 1.215,-1.269c0.099,-1.346 0.201,-2.71 0.086,-4.048c-0.072,-0.833 -0.457,-1.67701 -0.86,-2.431c-0.375,-0.7 -0.97,-1.28 -1.448,-1.928c-0.285,-0.387 -0.631,-0.768 -0.778,-1.209c-0.708,-2.136 -1.497,-4.25 -1.297,-6.586c0.116,-1.361 0.01999,-2.74399 0.01999,-4.34099z" fill="#30419a" fill-rule="nonzero"/></g><g><path d="M269.73702,228.19302l4.276,3.966l5.024,4.94l4.35,2.058l4.688,0.299l3.488,0.674l2.062,1.384l1.462,1.871l0.3,1.909l-0.862,3.33l-2.925,0.524l0.675,2.582l-0.15,3.255l-3.45,1.609l-4.575,-0.673l-1.8,-1.684l-1.2,2.881l-2.55,1.347l-4.387,0.824l-2.926,-1.871l-1.312,-4.229v-6.137l1.838,-4.266l0.374,-2.469l-0.074,-2.582l-0.6,-3.405l-2.176,-5.575l0.45,-0.562" fill="#ffffff" fill-rule="evenodd"/><path d="M293.06602,250.11802c0.104,0.993 0.221,2.041 0.31901,3.091c0.098,1.053 -0.466,1.921 -0.85001,2.833c-0.067,0.162 -0.33,0.272 -0.526,0.346c-0.359,0.138 -0.774,0.163 -1.095,0.353c-1.047,0.619 -2.25,0.845 -3.36,0.732c-1.646,-0.168 -3.488,0.024 -4.781,-1.599c-0.225,0.391 -0.409,0.679 -0.562,0.982c-0.474,0.939 -1.19,1.578 -2.207,1.903c-1.565,0.5 -3.103,1.056 -4.771,1.192c-1.972,0.163 -3.351,-0.583 -4.535,-2.168c-1.368,-1.833 -1.667,-3.868 -1.717,-6.017c-0.03,-1.257 -0.072,-2.52 0.012,-3.772c0.051,-0.788 0.25,-1.588 0.516,-2.336c0.367,-1.03 0.84,-2.024 1.305,-3.016c0.724,-1.549 0.764,-3.187 0.608,-4.828c-0.107,-1.119 -0.367,-2.224 -0.589,-3.329c-0.076,-0.375 -0.213,-0.746 -0.378,-1.093c-0.975,-2.062 -1.966,-4.119 -2.955,-6.175c-0.166,-0.346 -0.214,-0.689 0.053,-0.994c0.3,-0.344 0.697,-0.321 1.069,-0.156c0.586,0.262 1.155,0.562 1.729,0.849c0.057,0.028 0.114,0.068 0.152,0.117c1.648,2.099 3.694,3.841 5.346,5.935c1.011,1.28 2.264,2.284 3.58,3.226c0.313,0.223 0.635,0.461 0.874,0.756c0.922,1.135 2.122,1.603 3.556,1.634c1.743,0.038 3.49,0.061 5.226,0.203c2.504,0.203 4.668,1.132 6.291,3.154c0.621,0.775 0.893,1.63 0.929,2.583c0.026,0.709 -0.011,1.42 0.012,2.129c0.022,0.688 -0.222,1.26299 -0.681,1.754c-0.309,0.329 -0.604,0.695 -0.976,0.936c-0.468,0.303 -1.007,0.49701 -1.594,0.77501zM292.01,247.81002c0.272,0.613 0.81,0.565 1.32,0.473c0.566,-0.102 1.416,-1.174 1.438,-1.785c0.021,-0.611 0.019,-1.226 -0.01299,-1.838c-0.039,-0.76 -0.3,-1.426 -0.834,-2.007c-1.442,-1.567 -3.277,-2.234 -5.34,-2.352c-1.675,-0.095 -3.354,-0.114 -5.031,-0.169c-1.734,-0.056 -3.193,-0.694 -4.331,-2.024c-0.166,-0.194 -0.34701,-0.39 -0.55901,-0.53c-1.68,-1.119 -3.134,-2.471 -4.397,-4.049c-0.745,-0.93 -1.589,-1.783 -2.424,-2.636c-0.415,-0.426 -0.912,-0.772 -1.301,-1.096c0.004,0.013 0.04,0.159 0.097,0.297c0.233,0.566 0.54,1.11 0.695,1.696c0.475,1.8 0.921,3.605 1.432,5.397c0.566,1.984 0.45999,4.084 -0.48201,6.042c-0.488,1.017 -0.94399,2.05301 -1.35199,3.10401c-0.195,0.501 -0.326,1.055 -0.344,1.59c-0.045,1.353 -0.011,2.709 -0.009,4.066c0.002,1.88 0.36,3.625 1.615,5.13999c0.667,0.805 1.362,1.282 2.45,1.275c1.523,-0.009 2.898,-0.56599 4.332,-0.93299c1.257,-0.321 1.914,-1.139 2.245,-2.287c0.158,-0.55 0.197,-1.136 0.27499,-1.709c0.031,-0.223 0.00601,-0.452 0.03501,-0.675c0.058,-0.445 0.319,-0.71 0.774,-0.708c0.45,0.002 0.711,0.274 0.788,0.707c0.035,0.188 0.008,0.387 0.035,0.578c0.158,1.085 1.361,2.248 2.441,2.282c1.324,0.042 2.661,0.118 3.975,-0.006c1.468,-0.139 1.902,-0.53901 1.909,-2.00101c0.003,-0.581 -0.031,-1.16399 0.009,-1.74199c0.056,-0.796 -0.113,-1.39801 -0.868,-1.86601c-0.798,-0.495 -0.675,-1.171 0.187,-1.605c0.374,-0.187 0.744,-0.379 1.233,-0.629z" fill="#30419a" fill-rule="nonzero"/></g><g fill="none" fill-rule="nonzero" font-family="sans-serif" font-weight="normal" font-size="12" text-anchor="start"/><g><path d="M180.95002,285.96801l0.813,0.898v1.696l-1.774,0.998l-1.539,-0.399v-2.095l1.1,-1.098h1.4" fill="#ffffff" fill-rule="evenodd"/><path d="M179.77502,285.508c2.06,0 3.298,1.92901 2.53,3.70601c-0.113,0.263 -0.227,0.528 -0.362,0.78c-0.34,0.637 -0.822,1.05701 -1.601,1.036c-0.641,-0.017 -1.277,0.03699 -1.835,-0.41501c-0.972,-0.787 -1.339,-2.22 -0.844,-3.487c0.023,-0.059 0.059,-0.115 0.079,-0.176c0.357,-1.041 1.011,-1.632 2.033,-1.444zM179.47602,287.18201c-0.406,0.744 -0.544,1.502 -0.311,1.834c0.305,0.436 0.738,0.429 1.179,0.305c0.441,-0.69 0.753,-1.364 0.08,-2.139c-0.292,0 -0.631,0 -0.948,0z" fill="#30419a" fill-rule="nonzero"/></g></g></g></g></svg>