<svg version="1.1" xmlns="http://www.w3.org/2000/svg" xmlns:xlink="http://www.w3.org/1999/xlink" width="257" height="314.39082" viewBox="0,0,257,314.39082"><g transform="translate(-111.5,-144.63994)"><g data-paper-data="{&quot;isPaintingLayer&quot;:true}" stroke-linecap="butt" stroke-linejoin="miter" stroke-miterlimit="10" stroke-dasharray="" stroke-dashoffset="0" style="mix-blend-mode: normal"><path d="M114,208.5v-57h252v57z" fill="none" fill-rule="nonzero" stroke="#ef463c" stroke-width="5"/><text transform="translate(173.95001,194.08599) scale(1.22089,1.22089)" font-size="40" xml:space="preserve" fill="#ef463c" fill-rule="nonzero" stroke="none" stroke-width="1" stroke-linecap="butt" stroke-linejoin="miter" stroke-miterlimit="10" stroke-dasharray="" stroke-dashoffset="0" font-family="Marker" font-weight="normal" text-anchor="start" style="mix-blend-mode: normal"><tspan x="0" dy="0">START</tspan></text><g stroke="none" stroke-width="1"><g><path d="M227.076,408.86501l-0.337,10.34l0.563,2.957l0.975,1.609l1.087,1.46l0.863,2.132l0.637,2.732l-0.563,3.517l-0.675,1.011l-1.913,0.748l0.788,0.486l1.087,1.647l0.337,2.844l-0.75,3.555l-2.625,2.881h-4.013l-3.037,-0.936l-3,-2.132l-3.45,0.785l-3.375,-0.935l-2.513,-2.507c0,0 0,-3.81599 0,-3.92899c0,-0.112 2.663,-4.45301 2.663,-4.45301l6.037,-5.314l3.713,-5.5l1.875,-3.618l1.7,-3.891l3.1,-5.089z" fill="#ffffff" fill-rule="evenodd"/><path d="M216.056,444.66101c-1.04,0.93 -2.3,0.809 -3.487,0.513c-1.308,-0.325 -2.594,-0.799 -3.825,-1.352c-2.086,-0.935 -3.234,-3.542 -2.689,-5.764c0.576,-2.353 1.735,-4.366 3.475,-6.04c0.86,-0.826 1.767,-1.605 2.676,-2.379c2.239,-1.906 4.353,-3.884 5.882,-6.472c1.351,-2.287 2.516,-4.637 3.507,-7.092c0.553,-1.373 1.129,-2.752 1.86,-4.034c0.823,-1.443 1.477,-2.966 2.292,-4.409c0.219,-0.386 0.351,-0.823 0.529,-1.234c0.076,-0.176 0.143,-0.364 0.258,-0.513c0.228,-0.296 0.515,-0.498 0.919,-0.345c0.375,0.142 0.592,0.432 0.553,0.82c-0.138,1.402 -0.305,2.8 -0.465,4.2c-0.095,0.829 -0.254,1.65499 -0.282,2.486c-0.047,1.418 0.049,2.84199 -0.028,4.25799c-0.106,1.943 0.744,3.64102 1.264,5.42401c0.084,0.286 0.369,0.52 0.579,0.762c0.981,1.128 1.888,2.308 2.275,3.781c0.187,0.709 0.321,1.45 0.34,2.181c0.029,1.092 -0.034,2.19 -0.111,3.281c-0.1,1.416 -0.739,2.456 -2.188,2.806c-0.012,0.108 -0.049,0.193 -0.023,0.222c0.98,1.06 1.337,2.321 1.271,3.739c-0.033,0.708 -0.004,1.419 -0.009,2.129c-0.021,2.673 -1.377,4.567 -3.543,5.96c-0.756,0.487 -1.642,0.60699 -2.519,0.55399c-2.088,-0.126 -4.091,-0.63 -5.913,-1.671c-0.888,-0.507 -1.687,-1.169 -2.598,-1.811zM225.691,412.25401c-0.477,0.827 -0.83399,1.457 -1.20099,2.081c-1.342,2.277 -2.727,4.53 -4.019,6.835c-1.273,2.274 -2.287,4.707 -4.051,6.675c-0.836,0.932 -1.742,1.807 -2.668,2.649c-1.024,0.932 -2.155,1.748 -3.155,2.703c-1.325,1.265 -2.252,2.782 -2.82,4.556c-0.457,1.423 -0.382,2.672 0.637,3.781c0.361,0.392 0.795,0.78 1.275,0.989c0.972,0.426 1.992,0.747 3.004,1.073c0.362,0.116 0.759,0.156 1.142,0.165c1.124,0.028 1.868,-0.666 1.967,-1.798c0.022,-0.256 -0.003,-0.52 0.049,-0.769c0.087,-0.406 0.486,-0.714 0.839,-0.654c0.384,0.064 0.659,0.289 0.7,0.694c0.035,0.352 0.074,0.717 0.016,1.061c-0.182,1.078 0.322,1.783 1.178,2.323c0.191,0.12 0.37799,0.247 0.576,0.356c1.343,0.731 2.755,1.301 4.278,1.461c0.851,0.088 1.836,0.201 2.566,-0.127c1.667,-0.75 2.787,-2.117 2.983,-3.999c0.126,-1.212 0.066,-2.449 0.031,-3.673c-0.024,-0.814 -0.393,-1.49 -1.093,-1.948c-0.459,-0.299 -0.914,-0.61 -1.399,-0.859c-0.407,-0.209 -0.739,-0.436 -0.647,-0.943c0.094,-0.52 0.492,-0.6 0.949,-0.626c0.644,-0.036 1.29,-0.086 1.925,-0.194c0.83,-0.142 1.153,-0.429 1.215,-1.269c0.099,-1.346 0.201,-2.71 0.086,-4.048c-0.072,-0.833 -0.457,-1.67701 -0.86,-2.431c-0.375,-0.7 -0.97,-1.28 -1.448,-1.928c-0.285,-0.387 -0.631,-0.768 -0.778,-1.209c-0.708,-2.136 -1.497,-4.25 -1.297,-6.586c0.116,-1.361 0.01999,-2.74399 0.01999,-4.34099z" fill="#30419a" fill-rule="nonzero"/></g><g><path d="M277.737,396.19301l4.276,3.966l5.024,4.94l4.35,2.058l4.688,0.299l3.488,0.674l2.062,1.384l1.462,1.871l0.3,1.909l-0.862,3.33l-2.925,0.524l0.675,2.582l-0.15,3.255l-3.45,1.609l-4.575,-0.673l-1.8,-1.684l-1.2,2.881l-2.55,1.347l-4.387,0.824l-2.926,-1.871l-1.312,-4.229v-6.137l1.838,-4.266l0.374,-2.469l-0.074,-2.582l-0.6,-3.405l-2.176,-5.575l0.45,-0.562" fill="#ffffff" fill-rule="evenodd"/><path d="M301.066,418.11801c0.104,0.993 0.221,2.041 0.31901,3.091c0.098,1.053 -0.466,1.921 -0.85001,2.833c-0.067,0.162 -0.33,0.272 -0.526,0.346c-0.359,0.138 -0.774,0.163 -1.095,0.353c-1.047,0.619 -2.25,0.845 -3.36,0.732c-1.646,-0.168 -3.488,0.024 -4.781,-1.599c-0.225,0.391 -0.409,0.679 -0.562,0.982c-0.474,0.939 -1.19,1.578 -2.207,1.903c-1.565,0.5 -3.103,1.056 -4.771,1.192c-1.972,0.163 -3.351,-0.583 -4.535,-2.168c-1.368,-1.833 -1.667,-3.868 -1.717,-6.017c-0.03,-1.257 -0.072,-2.52 0.012,-3.772c0.051,-0.788 0.25,-1.588 0.516,-2.336c0.367,-1.03 0.84,-2.024 1.305,-3.016c0.724,-1.549 0.764,-3.187 0.608,-4.828c-0.107,-1.119 -0.367,-2.224 -0.589,-3.329c-0.076,-0.375 -0.213,-0.746 -0.378,-1.093c-0.975,-2.062 -1.966,-4.119 -2.955,-6.175c-0.166,-0.346 -0.214,-0.689 0.053,-0.994c0.3,-0.344 0.697,-0.321 1.069,-0.156c0.586,0.262 1.155,0.562 1.729,0.849c0.057,0.028 0.114,0.068 0.152,0.117c1.648,2.099 3.694,3.841 5.346,5.935c1.011,1.28 2.264,2.284 3.58,3.226c0.313,0.223 0.635,0.461 0.874,0.756c0.922,1.135 2.122,1.603 3.556,1.634c1.743,0.038 3.49,0.061 5.226,0.203c2.504,0.203 4.668,1.132 6.291,3.154c0.621,0.775 0.893,1.63 0.929,2.583c0.026,0.709 -0.011,1.42 0.012,2.129c0.022,0.688 -0.222,1.263 -0.681,1.754c-0.309,0.329 -0.604,0.695 -0.976,0.936c-0.468,0.303 -1.007,0.49701 -1.594,0.77501zM300.01,415.81001c0.272,0.613 0.81,0.565 1.32,0.473c0.566,-0.102 1.416,-1.174 1.438,-1.785c0.021,-0.611 0.019,-1.226 -0.01299,-1.838c-0.039,-0.76 -0.3,-1.426 -0.834,-2.007c-1.442,-1.567 -3.277,-2.234 -5.34,-2.352c-1.675,-0.095 -3.354,-0.114 -5.031,-0.169c-1.734,-0.056 -3.193,-0.694 -4.331,-2.024c-0.166,-0.194 -0.34701,-0.39 -0.55901,-0.53c-1.68,-1.119 -3.134,-2.471 -4.397,-4.049c-0.745,-0.93 -1.589,-1.783 -2.424,-2.636c-0.415,-0.426 -0.912,-0.772 -1.301,-1.096c0.004,0.013 0.04,0.159 0.097,0.297c0.233,0.566 0.54,1.11 0.695,1.696c0.475,1.8 0.921,3.605 1.432,5.397c0.566,1.984 0.45999,4.084 -0.48201,6.042c-0.488,1.017 -0.94399,2.05301 -1.35199,3.10401c-0.195,0.501 -0.326,1.055 -0.344,1.59c-0.045,1.353 -0.011,2.709 -0.009,4.066c0.002,1.88 0.36,3.625 1.615,5.13999c0.667,0.805 1.362,1.282 2.45,1.275c1.523,-0.009 2.898,-0.56599 4.332,-0.933c1.257,-0.321 1.914,-1.139 2.245,-2.287c0.158,-0.55 0.197,-1.13601 0.27499,-1.709c0.031,-0.223 0.00601,-0.452 0.03501,-0.675c0.058,-0.445 0.319,-0.71 0.774,-0.708c0.45,0.002 0.711,0.274 0.788,0.707c0.035,0.188 0.008,0.387 0.035,0.578c0.158,1.085 1.361,2.248 2.441,2.282c1.324,0.042 2.661,0.118 3.975,-0.006c1.468,-0.139 1.902,-0.53901 1.909,-2.00101c0.003,-0.581 -0.031,-1.16399 0.009,-1.74199c0.056,-0.796 -0.113,-1.398 -0.868,-1.866c-0.798,-0.495 -0.675,-1.171 0.187,-1.605c0.374,-0.187 0.744,-0.379 1.233,-0.629z" fill="#30419a" fill-rule="nonzero"/></g><g fill="none" fill-rule="nonzero" font-family="sans-serif" font-weight="normal" font-size="12" text-anchor="start"/><g><path d="M188.95,453.96801l0.813,0.898v1.696l-1.774,0.998l-1.539,-0.399v-2.095l1.1,-1.098h1.4" fill="#ffffff" fill-rule="evenodd"/><path d="M187.775,453.508c2.06,0 3.298,1.92901 2.53,3.70601c-0.113,0.263 -0.227,0.528 -0.362,0.78c-0.34,0.637 -0.822,1.057 -1.601,1.036c-0.641,-0.017 -1.277,0.037 -1.835,-0.415c-0.972,-0.787 -1.339,-2.22 -0.844,-3.487c0.023,-0.059 0.059,-0.115 0.079,-0.176c0.357,-1.041 1.011,-1.632 2.033,-1.444zM187.476,455.18201c-0.406,0.744 -0.544,1.502 -0.311,1.834c0.305,0.436 0.738,0.429 1.179,0.305c0.441,-0.69 0.753,-1.364 0.08,-2.139c-0.292,0 -0.631,0 -0.948,0z" fill="#30419a" fill-rule="nonzero"/></g></g></g></g></svg>