<svg version="1.1" xmlns="http://www.w3.org/2000/svg" xmlns:xlink="http://www.w3.org/1999/xlink" width="28.64118" height="29.16608" viewBox="0,0,28.64118,29.16608"><g transform="translate(-225.67941,-165.41696)"><g data-paper-data="{&quot;isPaintingLayer&quot;:true}" stroke-linecap="butt" stroke-linejoin="miter" stroke-miterlimit="10" stroke-dasharray="" stroke-dashoffset="0" style="mix-blend-mode: normal"><path d="M249.56335,185.51651c-1.72598,2.74399 -4.56688,4.52541 -7.99025,5.31108" fill="none" fill-rule="nonzero" stroke="#c2b59b" stroke-width="0.5"/><path d="M253.77951,181.89454c-0.16156,0.24234 -0.43083,0.43083 -0.61931,0.67316c-0.43083,0.56545 -0.43083,1.07705 -0.18848,1.7233c0.53853,1.40018 0.18848,3.01576 -0.94243,4.01204c-0.53853,0.48468 -1.26554,0.78086 -1.96563,0.86165c-0.96935,0.1077 -0.9155,0.1077 -1.7233,0.88857c-0.67316,0.70008 -0.80779,1.88485 -1.50788,2.55801c-0.43083,0.43083 -1.13091,1.15783 -2.82728,0.86165c-0.9155,-0.18848 -1.58866,-0.45775 -2.47723,-0.64623c-1.3194,-0.26927 -1.15783,-0.13463 -2.10026,0.64623c-1.26554,1.02321 -3.12348,1.64252 -4.44287,0.48468c-0.70008,-0.61931 -1.05013,-1.37325 -1.58866,-2.10026c-0.80779,-1.10399 -1.7233,-1.02321 -2.96191,-1.10399c-1.40018,-0.08078 -2.3426,-1.3194 -2.3426,-2.77343c-0.02692,-0.94243 0.1077,-1.96563 -0.43083,-2.82728c-0.4039,-0.64623 -0.80779,-1.13091 -1.26554,-1.7233c-1.18477,-1.48096 -0.70008,-2.93499 0.02692,-4.4698c0.53853,-1.13091 -0.78086,-1.69637 -0.48468,-2.80035c0.18848,-0.70008 2.2349,-1.66944 2.36953,-3.50044c0.05386,-0.70008 -0.16156,-2.93499 1.37325,-2.77343c0.45775,0.05386 1.07705,0.08078 1.48096,-0.18848c0.51161,-0.35005 0.51161,-0.51161 0.61931,-1.07705c0.32312,-1.7233 1.40018,-2.61187 3.17732,-2.07334c0.67316,0.21541 1.18477,0.53853 1.88485,0.45775c0.72701,-0.08078 1.07705,-0.61931 1.66944,-0.96935c0.64623,-0.4039 1.58866,-0.75394 2.36953,-0.56545c0.75394,0.18848 0.86165,0.78086 1.29247,1.34632c0.88857,1.15783 1.96563,0.16156 3.0427,0.02692c1.3194,-0.16156 2.42338,0.59239 2.69265,1.7233c0.1077,0.43083 0.24234,0.72701 0.53853,1.05013c0.4039,0.43083 0.59239,0.45775 1.13091,0.48468c0.64623,0.02692 1.53481,0.32312 1.99256,0.78086c1.29247,1.34632 0.1077,3.12348 0.26927,4.73905c0.1077,1.21169 1.10399,1.53481 1.77715,2.36953c0.43083,0.51161 0.67316,1.18477 0.70008,1.85793c0.02692,0.72701 -0.16156,1.45403 -0.53853,2.04641z" fill="#df6530" fill-rule="evenodd" stroke="none" stroke-width="1"/><path d="M252.48704,182.75619c0.21541,0.94243 0.29619,1.96563 -0.29619,2.80035c-0.35005,0.48468 -0.83472,0.45775 -1.18477,0.83472c-0.88857,0.96935 -0.24234,2.36953 -1.05013,3.60814c-0.45775,0.70008 -1.91178,0.80779 -2.77343,0.86165c-0.08078,0 -0.51161,0.08078 -0.56545,0.43083c-0.37697,1.34632 -1.9387,1.56174 -3.25809,1.66944c-0.99628,0.08078 -1.77715,0.67316 -2.80035,0.51161c-0.45775,-0.08078 -0.9155,-0.32312 -1.37325,-0.37697c-0.70008,-0.08078 -0.94243,0.24234 -1.53481,0.32312c-0.88857,0.08078 -1.40018,-0.59239 -2.15412,-0.88857c-0.78086,-0.29619 -1.64252,-0.18848 -2.39645,-0.59239c-0.80779,-0.43083 -1.23862,-1.26554 -1.99256,-1.75022c-0.59239,-0.37697 -0.94243,-0.83472 -1.23862,-1.48096c-0.26927,-0.53853 -0.32312,-0.94243 -0.86165,-1.29247c-0.26927,-0.18848 -0.48468,-0.24234 -0.72701,-0.48468c-0.59239,-0.59239 -1.3194,-0.86165 -1.4271,-2.42338c-0.02692,-0.45775 -0.18848,-0.78086 -0.18848,-1.23862c0,-0.48468 -0.05386,-0.80779 -0.18848,-1.3194c-0.26927,-0.88857 0.13463,-1.75022 0.32312,-2.66572c0.21541,-1.15783 -0.05386,-2.07334 0,-3.25809c0.02692,-0.83472 0.29619,-1.45403 0.88857,-2.04641c0.37697,-0.35005 0.86165,-0.56545 1.15783,-1.02321c0.32312,-0.51161 0.4039,-1.13091 0.64623,-1.66944c0.29619,-0.67316 0.70008,-1.21169 1.40018,-1.53481c0.05386,-0.02692 2.2349,-0.78086 3.90434,-2.42338c1.07705,-1.07705 2.42338,-0.13463 3.82356,-0.08078c1.56174,0.05386 2.85421,-0.64623 4.38901,-0.05386c0.70008,0.26927 1.34632,0.72701 2.04641,0.94243c0.67316,0.21541 1.07705,-0.02692 1.77715,0.13463c1.3194,0.32312 1.91178,2.69265 2.88113,3.85048c0.96935,1.13091 2.26182,1.26554 2.61187,2.82728c0.18848,0.75394 -0.08078,1.48096 0.24234,2.18104c0.26927,0.56545 0.72701,0.99628 0.9155,1.58866c0.4039,1.3194 -1.23862,3.12348 -0.99628,4.03897z" fill="#ea9b1f" fill-rule="evenodd" stroke="none" stroke-width="1"/><path d="M239.77775,167.83893c1.37325,0 2.93499,0.88857 4.17361,1.34632c1.3194,0.45775 2.45031,0.35005 3.52736,1.21169c0.99628,0.80779 0.88857,1.85793 1.58866,2.96191c0.48468,0.75394 1.80408,1.34632 2.26182,2.31567c0.64623,1.34632 0.37697,3.09654 0.37697,4.44287c0,0.9155 0.37697,2.66572 0.18848,3.52736c-0.45775,1.99256 -2.50416,2.61187 -3.79663,4.09283c-1.05013,1.18477 -1.7233,2.45031 -3.1504,3.12348c-1.56174,0.75394 -2.88113,1.831 -4.73905,1.831c-0.99628,0 -2.39645,-1.34632 -3.31195,-1.58866c-1.23862,-0.29619 -3.662,0.29619 -4.25438,-0.80779c-1.99256,-3.7697 -2.63879,-3.25809 -3.58122,-4.65827c-1.26554,-1.88485 -0.83472,-3.20425 -0.83472,-5.65456c0,-1.26554 -0.70008,-2.47723 -0.32312,-3.60814c0.45775,-1.4271 1.7233,-2.61187 2.63879,-3.74278c1.29247,-1.61559 3.68892,-2.28875 5.62763,-3.06962c1.29247,-0.51161 2.07334,-1.7233 3.60814,-1.7233z" fill="#f3bb1b" fill-rule="evenodd" stroke="none" stroke-width="1"/><path d="M229.0341,180.1174c0,-5.93356 4.8101,-10.74366 10.74366,-10.74366c5.93356,0 10.74366,4.8101 10.74366,10.74366c0,5.93356 -4.8101,10.74366 -10.74366,10.74366c-5.93356,0 -10.74366,-4.8101 -10.74366,-10.74366z" fill="#f9d20d" fill-rule="evenodd" stroke="none" stroke-width="1"/></g></g></svg>