<svg version="1.1" xmlns="http://www.w3.org/2000/svg" xmlns:xlink="http://www.w3.org/1999/xlink" width="47.93049" height="44.45349" viewBox="0,0,47.93049,44.45349"><g transform="translate(-215.63822,-158.90003)"><g data-paper-data="{&quot;isPaintingLayer&quot;:true}" fill-rule="nonzero" stroke-linecap="butt" stroke-linejoin="miter" stroke-miterlimit="10" stroke-dasharray="" stroke-dashoffset="0" style="mix-blend-mode: normal"><path d="M251.91405,194.18017c-0.53459,0.41668 -1.09289,0.80774 -1.67314,1.17308" fill="none" stroke="#c2b59b" stroke-width="0.5"/><path d="M245.41488,197.64023c-0.88457,0.30376 -1.79877,0.56363 -2.73878,0.77937" fill="none" stroke="#c2b59b" stroke-width="0.5"/><path d="M263.44133,183.22296c-0.27484,0.41226 -0.73291,0.73291 -1.05355,1.14516c-0.50782,0.66651 -0.66378,1.28903 -0.57454,1.97424c-1.34944,-0.15891 -2.69422,-0.33878 -4.03204,-0.55811c-1.03258,-0.16928 -2.00201,-0.61078 -2.99227,-0.94883c-0.28105,-0.09594 -0.98491,-0.09234 -1.27288,-0.08547c1.98926,-0.09391 3.93307,-1.34031 5.98932,-1.51238c1.37174,-0.11479 2.71824,-0.15752 4.06333,-0.22507c-0.04094,0.07116 -0.08339,0.14133 -0.12735,0.21041z" fill="#df6530" stroke="none" stroke-width="1"/><path d="M255.27146,189.48897l0.0147,0.09552c-0.11004,0.00494 -0.21894,0.00726 -0.32609,0.00652c0.10403,-0.03311 0.20783,-0.06714 0.31139,-0.10204z" fill="#df6530" stroke="none" stroke-width="1"/><path d="M258.86631,189.00959c-0.05351,0.00717 -0.10732,0.01448 -0.16144,0.02196c0.016,-0.01333 0.03173,-0.02699 0.04716,-0.04096c0.03808,0.00639 0.07617,0.01273 0.11428,0.019z" fill="#df6530" stroke="none" stroke-width="1"/><path d="M257.3019,192.43088l-0.10906,-0.04848l-0.26196,0.58941c-0.7415,-0.11986 -1.60823,-0.2389 -2.24764,-0.49561c0.88055,0.02469 1.78657,-0.07697 2.64829,-0.20212c-0.00988,0.05227 -0.01975,0.10453 -0.02963,0.1568z" fill="#df6530" stroke="none" stroke-width="1"/><path d="M254.18842,197.10233c-1.14516,1.19096 -1.37419,3.20646 -2.56517,4.35162c-0.70496,0.70496 -1.83369,1.87605 -4.48681,1.51599c0.1656,-0.32317 0.34441,-0.67081 0.55289,-1.04733c0.35539,-1.41899 0.80991,-3.52923 0.70452,-5.27967c0.23596,-0.04193 0.47463,-0.09199 0.71627,-0.15086c0,0 1.45521,-0.3638 1.09141,-1.81902c-0.3638,-1.45521 -1.81902,-1.09141 -1.81902,-1.09141c-0.3628,0.09359 -0.72067,0.1624 -1.07434,0.20961c-0.66178,-0.82786 -1.56845,-1.59375 -2.38263,-2.03329c0.4377,-0.15966 0.84524,-0.35999 1.21224,-0.61117c1.07807,-0.73782 1.4895,-1.76391 1.99287,-2.81985c0.23779,0.50742 0.51507,0.9885 0.81526,1.42969c0.82733,1.21589 1.7924,3.22826 2.77144,4.23335c1.28372,1.31787 2.8258,1.33679 4.37262,1.74131c-0.67894,0.14255 -0.9042,0.40694 -1.90155,1.37104z" fill="#df6530" stroke="none" stroke-width="1"/><path d="M250.83683,176.03951c0.17845,0.04467 0.35871,0.08777 0.54064,0.12924l-0.91017,0.10113c-0.02779,-0.1216 -0.06186,-0.23764 -0.1029,-0.34713c0.16719,0.04112 0.32553,0.07998 0.47242,0.11676z" fill="#df6530" stroke="none" stroke-width="1"/><path d="M250.30702,179.9217c-0.00334,-0.07664 -0.00715,-0.15336 -0.0114,-0.23017c0.02434,-0.12862 0.04806,-0.25892 0.07072,-0.39025l0.80163,-0.0859c-0.24943,0.20319 -0.54982,0.44861 -0.86095,0.70632z" fill="#df6530" stroke="none" stroke-width="1"/><path d="M251.56319,176.31107c-0.00933,0.00416 -0.01866,0.00832 -0.028,0.01248l-0.0131,-0.12226c0.02069,0.00459 0.04141,0.00917 0.06215,0.01372z" fill="#df6530" stroke="none" stroke-width="1"/><path d="M242.59936,201.8204c-0.04257,-0.00869 -0.08423,-0.01713 -0.12502,-0.02532c0,-0.08108 0,-0.15288 0,-0.21339c0,0 0,-1.5 -1.5,-1.5c-1.5,0 -1.5,1.5 -1.5,1.5v0.9556c-0.13199,0.11569 -0.27959,0.24302 -0.44789,0.38247c-0.18578,0.1502 -0.37906,0.2953 -0.57862,0.43377c-0.96685,-0.17664 -1.93748,-0.38433 -2.90409,-0.62083c-0.60942,-0.67956 -0.1371,-1.75864 -0.45737,-3.46918c-0.07891,-0.42147 -0.15168,-0.83377 -0.21841,-1.23983c1.21366,-0.60048 2.12911,-1.77347 2.51129,-3.07473c2.77514,0.55717 5.27245,1.61133 8.01849,1.82932c0.11998,1.27058 -0.238,2.99026 -0.50304,4.05344c-0.26589,0.49851 -0.46497,0.97077 -0.70251,1.39455c-0.50671,-0.14499 -1.0238,-0.28517 -1.59283,-0.40587z" fill="#df6530" stroke="none" stroke-width="1"/><path d="M229.15015,200.71627c-0.12318,-0.18204 -0.25034,-0.36396 -0.38437,-0.5449c-1.15783,-1.58237 -2.44573,-1.73396 -4.08288,-1.82466c-0.05249,-0.30344 0.02213,-0.65317 -0.03464,-0.96081c-0.01875,-0.10161 -0.03558,-0.20399 -0.05139,-0.30682c1.41875,0.57942 2.9337,0.98171 4.6263,1.09109c0.80564,0.05206 1.73612,0.20372 2.66572,0.26571c0.07478,0.4509 0.15719,0.90772 0.24756,1.37346c0.12312,0.63451 0.05892,1.30945 0.0268,1.97305c-1.0231,-0.32567 -2.03076,-0.68198 -3.0131,-1.06612z" fill="#df6530" stroke="none" stroke-width="1"/><path d="M219.00898,188.76553c-0.6871,-1.09936 -1.37419,-1.92387 -2.15291,-2.93162c-0.92512,-1.1564 -1.25189,-2.30314 -1.21509,-3.45795c0.61506,0.14431 1.2357,0.30119 1.82918,0.53817c0.98364,0.39278 1.37522,1.68594 2.31256,2.17913c0.10771,0.05667 0.21444,0.10898 0.32025,0.15711c0.27042,0.39329 0.72354,0.65117 1.2369,0.65117c0.27399,0 0.53081,-0.07345 0.75187,-0.20175c1.47261,-0.0076 2.79191,-0.76732 4.11269,-1.70335c0.07685,2.1259 0.39243,4.41628 1.67015,5.9084c-2.02207,0.11875 -4.56027,0.50771 -6.13989,1.73971c-0.6678,-0.41262 -1.38486,-0.82216 -2.11709,-1.21889c-0.09963,-0.57597 -0.28082,-1.13564 -0.60862,-1.66012z" fill="#c7c7c7" stroke="none" stroke-width="1"/><path d="M231.11049,188.08822c-0.20557,0.05933 -0.4462,0.16653 -0.64463,0.36024c-0.11563,-0.05441 -0.22245,-0.12727 -0.31809,-0.22315c-1.05551,-1.05815 -1.16935,-2.58105 -1.05235,-4.19433c0.3632,1.44538 1.10558,2.82004 2.01508,4.05725z" fill="#c7c7c7" stroke="none" stroke-width="1"/><path d="M231.16428,195.50304c0.10995,-0.02579 0.21991,-0.05179 0.32988,-0.07803c0.00253,0.02652 0.00508,0.05305 0.00765,0.07957c-0.112,0.00068 -0.22461,0.00013 -0.33754,-0.00154z" fill="#df6530" stroke="none" stroke-width="1"/><path d="M224.44698,194.21508c-0.12669,-0.0816 -0.22251,-0.19451 -0.30348,-0.32265c0.00349,-0.00543 0.00698,-0.01086 0.01046,-0.01631c0.03157,0.00192 0.04927,0.00192 0.04927,0.00192h0.61358c0.06958,0 0.13894,-0.00047 0.20808,-0.00141c-0.15569,0.07021 -0.35982,0.18641 -0.53466,0.36588c-0.01447,-0.00904 -0.02889,-0.01818 -0.04325,-0.02743z" fill="#df6530" stroke="none" stroke-width="1"/><path d="M220.3009,194.76987c0.19734,0.54717 0.88524,0.9596 1.11742,1.5277c0.19804,0.48456 0.2598,0.90747 0.28196,1.30688c-1.00122,-0.68948 -1.67837,-1.83073 -1.8888,-3.14629c0.16309,0.10459 0.32618,0.20857 0.48942,0.3117z" fill="#df6530" stroke="none" stroke-width="1"/><path d="M227.84275,160.19978c1.04576,-0.42052 2.19528,-0.53308 3.37304,-0.49263c1.73401,0.68672 3.32505,1.55865 4.95271,2.51288c-0.07193,0.05318 -0.13839,0.11378 -0.19879,0.18219c-0.51972,-0.31619 -1.03876,-0.64109 -1.60193,-0.54303c-0.81375,0.1417 -1.22574,1.10754 -1.83702,1.66306c-0.64826,0.58911 -1.21192,1.07003 -1.79622,1.47094c-1.22537,-0.58346 -2.44795,-1.1557 -3.73753,-1.69753c0.34192,-0.98631 0.52021,-2.09547 0.84575,-3.09587z" fill="#df6530" stroke="none" stroke-width="1"/><path d="M234.00719,166.33591c0.23659,-0.23745 0.46423,-0.4837 0.68488,-0.73311c0.18071,-0.20427 -0.06241,-0.7576 0.20823,-0.79125c0.12172,-0.01514 0.33796,0.08142 0.59493,0.24982c-0.01718,0.40196 0.00193,0.81466 0.0173,1.2277c-0.4783,0.11234 -0.9854,0.11287 -1.50534,0.04684z" fill="#df6530" stroke="none" stroke-width="1"/><path d="M235.14603,173.78746c-0.02377,0.00674 -0.04796,0.01322 -0.07258,0.01942c0.01037,-0.01331 0.0207,-0.02667 0.031,-0.0401c0.01705,0.00593 0.03411,0.01187 0.05117,0.01779c-0.00321,0.00102 -0.00641,0.00198 -0.00959,0.00289z" fill="#df6530" stroke="none" stroke-width="1"/><path d="" fill="#df6530" stroke="none" stroke-width="1"/><path d="M216.00297,174.05438c0.16843,-0.15222 0.33936,-0.31652 0.51038,-0.50064c0.49535,-0.53333 0.85101,-1.23917 1.33665,-1.77718c0.31223,0.29594 1.04043,0.7931 1.93557,0.12176c0.61142,-0.45856 0.67767,-0.99501 0.59556,-1.41093c0.35048,-0.13498 0.70827,-0.27423 1.03132,-0.4047c0.08346,1.35823 -0.7105,3.26942 0.04289,4.60745c0.0213,0.03784 0.04373,0.07504 0.06722,0.11162l-0.55462,-0.05661c-0.14466,-0.02466 -0.24165,-0.02466 -0.24165,-0.02466c-1.58073,0 -3.10107,0.06746 -4.59568,0.0364c-0.07485,-0.223 -0.12346,-0.45524 -0.12763,-0.70251z" fill="#c7c7c7" stroke="none" stroke-width="1"/><path d="M216.90187,178.23001c0.08021,-0.16844 0.13619,-0.3295 0.17191,-0.48445c1.18864,0.00368 2.39975,-0.02507 3.65251,-0.02507c0,0 0.07341,0 0.18775,-0.01624c0.05481,0.01096 0.11358,0.02162 0.17591,0.03207c-0.79556,0.39778 -1.53926,0.76963 -2.02802,1.01401c-0.47731,0.22627 -0.81612,0.6971 -0.85459,1.25065c-0.55759,-0.15755 -1.24806,-0.24651 -1.91849,-0.3748c0.18161,-0.46165 0.39066,-0.92668 0.61304,-1.39615z" fill="#c7c7c7" stroke="none" stroke-width="1"/><path d="M230.28792,176.01198c0.52878,0.16403 1.12116,0.35234 1.74132,0.51258c-0.40055,0.43324 -0.79878,0.89503 -1.19856,1.38522c-0.3077,0.37729 -0.73746,0.67229 -1.07024,1.02797c0.08453,-1.08665 -0.32273,-2.22758 -1.47463,-3.41291c-0.10398,-0.107 -0.25943,-0.2125 -0.45024,-0.31746c0.85657,0.31069 1.69725,0.57036 2.45236,0.80461z" fill="#df6530" stroke="none" stroke-width="1"/><path d="M224.25389,173.47804c0.39751,0.26717 0.81813,0.51025 1.25181,0.73292c-0.52876,-0.23055 -0.99385,-0.47195 -1.25181,-0.73292z" fill="#df6530" stroke="none" stroke-width="1"/><path d="M243.28966,171.65155c-0.095,-0.33679 -0.17742,-0.64664 -0.20993,-0.90646c0.16117,0.31257 0.35927,0.61403 0.5973,0.9016c-0.12991,0.00182 -0.25913,0.00371 -0.38737,0.00486z" fill="#df6530" stroke="none" stroke-width="1"/><path d="M243.68423,158.90004c0.07608,0.00504 0.15151,0.00809 0.2263,0.00881c-0.06609,0.10256 -0.13288,0.20752 -0.20012,0.31461c-0.00403,-0.1102 -0.01213,-0.21836 -0.02618,-0.32342z" fill="#df6530" stroke="none" stroke-width="1"/><path d="M254.37166,162.33514c0.6871,0.73291 1.00775,0.77871 1.92387,0.82452c0.47845,0.01993 1.03499,0.12663 1.57522,0.30499l-0.37395,2.0567l0.26544,0.04826c-0.57267,1.4369 -0.94874,2.86542 -1.12282,4.38414c-2.48522,2.17485 -7.5525,1.84285 -10.23931,0.17823c-0.02135,-0.01322 -0.04201,-0.02701 -0.06201,-0.04134c-0.38877,-1.46782 -0.11642,-3.45818 0.352,-5.18126c0.6503,-1.77735 1.58223,-2.48756 3.76223,-3.2204c1.04613,-0.35167 2.11476,-0.47518 3.19343,-0.51702c0.16123,0.42616 0.37808,0.78376 0.72589,1.16317z" fill="#c7c7c7" stroke="none" stroke-width="1"/><path d="M260.14328,172.54999c0.00871,0.09791 0.02081,0.19241 0.03612,0.28376c-0.1914,0.09855 -0.38101,0.19345 -0.56911,0.28015c0.01564,-0.70575 0.11724,-1.4601 0.23187,-2.22039c0.19427,-0.3548 0.37139,-0.72014 0.53768,-1.08682c-0.17206,0.92036 -0.32625,1.84646 -0.23656,2.7433z" fill="#c7c7c7" stroke="none" stroke-width="1"/><path d="M256.56701,173.96747c0.01895,-0.0066 0.03781,-0.01329 0.05658,-0.02007c0.00287,0.03065 0.00581,0.06136 0.00881,0.09212c-0.09378,-0.00018 -0.1876,-0.00089 -0.28143,-0.00214c0.07427,-0.02234 0.14632,-0.04564 0.21603,-0.06991z" fill="#c7c7c7" stroke="none" stroke-width="1"/><path d="M246.93251,176.74648c0.16641,0.86394 0.30591,1.87045 0.37212,2.93423c-0.07307,0.34116 -0.1331,0.59106 -0.1444,0.65968c-1.45816,2.03576 -4.33531,3.16775 -6.53454,4.5876c-1.5026,-0.04687 -2.77177,-0.19255 -4.43541,-0.55824c-0.13918,-0.03059 -0.27866,-0.06023 -0.41844,-0.08848c-0.12367,-0.25661 -0.23844,-0.52635 -0.34455,-0.80921c-0.02205,-0.05879 -0.15138,-0.40116 -0.30463,-0.8441c0.77178,-1.076 1.6406,-2.20294 2.61457,-3.1561c1.22062,-0.20608 2.37741,-0.59078 3.07691,-2.01789c0.90398,-0.24975 1.89978,-0.25124 2.78829,-0.35716c1.05988,-0.12635 2.12568,-0.62973 3.17416,-0.60069c0.05354,0.08088 0.10553,0.16432 0.15592,0.25036z" fill="#df6530" stroke="none" stroke-width="1"/><path d="M244.6558,186.37845c-0.238,0 -0.48444,-0.01805 -0.73269,-0.04204c0.47407,-0.29524 0.94762,-0.5836 1.4147,-0.87628c-0.18532,0.33945 -0.3844,0.63607 -0.60565,0.89993z" fill="#df6530" stroke="none" stroke-width="1"/><path d="M235.87113,176.70923c0.10012,-0.0296 0.1989,-0.06316 0.29618,-0.10095c0.40176,-0.15608 0.73979,-0.40973 1.04162,-0.71666c0.1451,-0.07886 0.29143,-0.15536 0.43879,-0.22931c-0.66359,0.42951 -1.29701,0.94459 -1.89117,1.51641c-0.21169,0.02933 -0.42641,0.05503 -0.63975,0.08031c0.24339,-0.18926 0.49534,-0.37291 0.75433,-0.54979z" fill="#df6530" stroke="none" stroke-width="1"/><path d="" fill="#df6530" stroke="none" stroke-width="1"/><path d="M261.2426,184.68877c0.12096,0.52919 0.21697,1.07336 0.25507,1.61603c-1.24354,-0.14964 -2.48296,-0.31832 -3.71647,-0.52054c-1.03258,-0.16928 -2.00201,-0.61078 -2.99227,-0.94883c-0.28105,-0.09594 -0.98491,-0.09234 -1.27288,-0.08547c1.98926,-0.09391 3.93307,-1.34031 5.98932,-1.51238c0.66681,-0.0558 1.32765,-0.09457 1.98527,-0.12744c-0.23237,0.60809 -0.36136,1.15048 -0.24803,1.57863z" fill="#c7c7c7" stroke="none" stroke-width="1"/><path d="M255.27146,189.48897l0.0147,0.09552c-0.11004,0.00494 -0.21894,0.00726 -0.32609,0.00652c0.10403,-0.03311 0.20783,-0.06714 0.31139,-0.10204z" fill="#c7c7c7" stroke="none" stroke-width="1"/><path d="M258.86631,189.00959c-0.05351,0.00717 -0.10732,0.01448 -0.16144,0.02196c0.016,-0.01333 0.03173,-0.02699 0.04716,-0.04096c0.03808,0.00639 0.07617,0.01273 0.11428,0.019z" fill="#c7c7c7" stroke="none" stroke-width="1"/><path d="M257.3019,192.43088l-0.10906,-0.04848l-0.26196,0.58941c-0.7415,-0.11986 -1.60823,-0.2389 -2.24764,-0.49561c0.88055,0.02469 1.78657,-0.07697 2.64829,-0.20212c-0.00988,0.05227 -0.01975,0.10453 -0.02963,0.1568z" fill="#c7c7c7" stroke="none" stroke-width="1"/><path d="M256.93678,197.01072c-0.77871,1.19096 -3.25227,1.37419 -4.71808,1.46581c-0.13742,0 -0.87033,0.13742 -0.96194,0.73291c-0.45455,1.62339 -1.92168,2.28023 -3.53686,2.59035c0.35023,-1.416 0.77634,-3.45623 0.67395,-5.15685c0.23596,-0.04193 0.47464,-0.09199 0.71627,-0.15086c0,0 1.45521,-0.3638 1.09141,-1.81902c-0.3638,-1.45521 -1.81902,-1.09141 -1.81902,-1.09141c-0.3628,0.09359 -0.72067,0.1624 -1.07434,0.20961c-0.66178,-0.82786 -1.56845,-1.59375 -2.38263,-2.03329c0.4377,-0.15966 0.84524,-0.35999 1.21224,-0.61117c1.07807,-0.73782 1.4895,-1.76391 1.99287,-2.81985c0.23779,0.50742 0.51507,0.9885 0.81526,1.42969c0.82733,1.21589 1.7924,3.22826 2.77144,4.23335c1.45561,1.49434 3.24343,1.31857 4.99365,1.9286c0.17034,0.16227 0.37881,0.28489 0.61059,0.35304c-0.10053,0.249 -0.2262,0.49588 -0.38482,0.7391z" fill="#ffffff" stroke="none" stroke-width="1"/><path d="M250.83683,176.03951c0.17845,0.04467 0.35871,0.08777 0.54064,0.12924l-0.91017,0.10113c-0.02779,-0.1216 -0.06186,-0.23764 -0.1029,-0.34713c0.16719,0.04112 0.32553,0.07998 0.47242,0.11676z" fill="#ffffff" stroke="none" stroke-width="1"/><path d="M250.30702,179.9217c-0.00334,-0.07664 -0.00715,-0.15336 -0.0114,-0.23017c0.02434,-0.12862 0.04806,-0.25892 0.07072,-0.39025l0.80163,-0.0859c-0.24943,0.20319 -0.54982,0.44861 -0.86095,0.70632z" fill="#ffffff" stroke="none" stroke-width="1"/><path d="M251.56319,176.31107c-0.00933,0.00416 -0.01866,0.00832 -0.028,0.01248l-0.0131,-0.12226c0.02069,0.00459 0.04141,0.00917 0.06215,0.01372z" fill="#ffffff" stroke="none" stroke-width="1"/><path d="M238.61417,202.27848c-1.19096,-0.13742 -1.60323,0.41226 -2.61097,0.54968c-0.01548,0.00141 -0.0309,0.00268 -0.04624,0.00382c-0.13781,-0.03251 -0.27555,-0.06561 -0.41322,-0.09929c-0.60941,-0.67957 -0.1371,-1.75863 -0.45737,-3.46917c-0.07891,-0.42146 -0.15168,-0.83376 -0.21841,-1.23982c1.21366,-0.60048 2.12911,-1.77347 2.51129,-3.07474c2.77514,0.55717 5.27245,1.61132 8.01849,1.82932c0.11998,1.27058 -0.238,2.99027 -0.50304,4.05345c-0.30391,0.56981 -0.52054,1.10531 -0.8071,1.57333c-0.53917,0.16851 -1.0657,0.35439 -1.61326,0.46452c0,-0.53423 0,-1.02087 0,-1.28789c0,0 0,-1.5 -1.5,-1.5c-1.5,0 -1.5,1.5 -1.5,1.5v0.89868c-0.28672,-0.09095 -0.57344,-0.16815 -0.86017,-0.20189z" fill="#c7c7c7" stroke="none" stroke-width="1"/><path d="M228.2619,200.3088c-1.37419,-0.73291 -2.10711,-2.15291 -3.38968,-2.97743c-0.09118,-0.05802 -0.17899,-0.11718 -0.26366,-0.17759c-0.00396,-0.02487 -0.00786,-0.04977 -0.01169,-0.07469c1.41875,0.57942 2.9337,0.98171 4.6263,1.09109c0.80564,0.05206 1.73612,0.20372 2.66572,0.26571c0.07478,0.4509 0.15719,0.90772 0.24755,1.37345c0.09111,0.46956 0.07964,0.96125 0.0545,1.45411c-1.28867,-0.43843 -2.69384,-0.29292 -3.92904,-0.95465z" fill="#c7c7c7" stroke="none" stroke-width="1"/><path d="M217.63477,187.66619c-0.0458,-0.77871 -0.32064,-1.32838 -0.32064,-2.10711c0,-0.82452 -0.09162,-1.37419 -0.32064,-2.24453c-0.06224,-0.20539 -0.10333,-0.40994 -0.12708,-0.61398c0.20347,0.0639 0.40514,0.13424 0.60376,0.21355c0.98364,0.39278 1.37522,1.68594 2.31256,2.17913c0.10771,0.05667 0.21444,0.10898 0.32025,0.15711c0.27042,0.39329 0.72354,0.65117 1.2369,0.65117c0.27399,0 0.53081,-0.07345 0.75187,-0.20175c1.47261,-0.0076 2.7919,-0.76731 4.11268,-1.70334c0.07685,2.1259 0.39242,4.41628 1.67015,5.90839c-2.02207,0.11876 -4.56026,0.50772 -6.13987,1.73971c-1.12924,-0.69774 -2.39937,-1.38666 -3.64548,-2.01975c-0.23076,-0.48896 -0.39607,-1.1122 -0.45444,-1.9586z" fill="#c7c7c7" stroke="none" stroke-width="1"/><path d="M231.1105,188.08821c-0.20557,0.05933 -0.44621,0.16654 -0.64464,0.36025c-0.11563,-0.05441 -0.22245,-0.12727 -0.31809,-0.22315c-1.05552,-1.05816 -1.16935,-2.58107 -1.05235,-4.19437c0.36319,1.44539 1.10558,2.82006 2.01509,4.05728z" fill="#c7c7c7" stroke="none" stroke-width="1"/><path d="M231.16428,195.50304c0.10995,-0.02579 0.21991,-0.05179 0.32988,-0.07803c0.00253,0.02652 0.00508,0.05305 0.00765,0.07957c-0.112,0.00068 -0.22461,0.00013 -0.33754,-0.00154z" fill="#ffffff" stroke="none" stroke-width="1"/><path d="M224.44698,194.21508c-0.12669,-0.0816 -0.22251,-0.19451 -0.30348,-0.32265c0.00349,-0.00543 0.00698,-0.01086 0.01046,-0.01631c0.03157,0.00192 0.04927,0.00192 0.04927,0.00192h0.61358c0.06958,0 0.13894,-0.00047 0.20808,-0.00141c-0.15569,0.07021 -0.35982,0.18641 -0.53466,0.36588c-0.01447,-0.00904 -0.02889,-0.01818 -0.04325,-0.02743z" fill="#ffffff" stroke="none" stroke-width="1"/><path d="M217.54317,173.23711c0.01552,-0.48129 0.07841,-0.92048 0.194,-1.33005c0.03689,-0.04444 0.07444,-0.088 0.11282,-0.13051c0.31223,0.29594 1.04043,0.7931 1.93557,0.12176c0.61142,-0.45856 0.67767,-0.99501 0.59556,-1.41093c0.35048,-0.13498 0.70827,-0.27423 1.03132,-0.4047c0.08346,1.35823 -0.7105,3.26942 0.04289,4.60745c0.02131,0.03784 0.04373,0.07504 0.06723,0.11163l-0.55462,-0.05661c-0.14466,-0.02466 -0.24165,-0.02466 -0.24165,-0.02466c-1.07968,0 -2.13118,0.03147 -3.16556,0.04152c-0.02746,-0.48687 -0.04189,-0.98974 -0.01756,-1.52491z" fill="#c7c7c7" stroke="none" stroke-width="1"/><path d="M217.54317,178.77969c0.06636,-0.3567 0.10569,-0.69988 0.12613,-1.03471c0.99746,-0.00452 2.01276,-0.02449 3.05699,-0.02449c0,0 0.07341,0 0.18775,-0.01624c0.05481,0.01096 0.11357,0.02162 0.17589,0.03206c-0.79556,0.39778 -1.53925,0.76963 -2.02801,1.014c-0.47731,0.22627 -0.81612,0.6971 -0.85459,1.25065c-0.2782,-0.07861 -0.58946,-0.14014 -0.91482,-0.198c0.09059,-0.33759 0.17962,-0.67819 0.25067,-1.02328z" fill="#c7c7c7" stroke="none" stroke-width="1"/><path d="M230.28792,176.01198c0.52878,0.16403 1.12116,0.35234 1.74132,0.51258c-0.40055,0.43324 -0.79878,0.89503 -1.19856,1.38522c-0.3077,0.37729 -0.73746,0.67229 -1.07024,1.02797c0.08453,-1.08665 -0.32273,-2.22758 -1.47463,-3.41291c-0.10398,-0.107 -0.25943,-0.2125 -0.45024,-0.31746c0.85657,0.31069 1.69725,0.57036 2.45236,0.80461z" fill="#ffffff" stroke="none" stroke-width="1"/><path d="M224.25389,173.47804c0.39751,0.26717 0.81813,0.51025 1.25181,0.73292c-0.52876,-0.23055 -0.99385,-0.47195 -1.25181,-0.73292z" fill="#ffffff" stroke="none" stroke-width="1"/><path d="M227.58718,161.09939c0.64317,-0.37073 1.33531,-0.8147 2.02278,-1.33517c0.52429,-0.0618 1.06205,-0.07574 1.60582,-0.05706c1.73401,0.68672 3.32505,1.55865 4.95271,2.51288c-0.07192,0.05318 -0.13838,0.11377 -0.19878,0.18217c-0.51972,-0.31619 -1.03876,-0.64109 -1.60193,-0.54303c-0.81375,0.1417 -1.22574,1.10754 -1.83702,1.66306c-0.64826,0.58911 -1.21192,1.07003 -1.79622,1.47094c-1.22537,-0.58346 -2.44795,-1.1557 -3.73754,-1.69753c0.24194,-0.69793 0.40196,-1.45737 0.59019,-2.19626z" fill="#c7c7c7" stroke="none" stroke-width="1"/><path d="M234.00719,166.33591c0.23659,-0.23745 0.46423,-0.4837 0.68488,-0.73311c0.18071,-0.20427 -0.06241,-0.7576 0.20823,-0.79125c0.12172,-0.01514 0.33795,0.08142 0.59492,0.24982c-0.01718,0.40196 0.00193,0.81466 0.01729,1.22771c-0.4783,0.11234 -0.98539,0.11286 -1.50533,0.04684z" fill="#c7c7c7" stroke="none" stroke-width="1"/><path d="M235.14603,173.78746c-0.02377,0.00674 -0.04796,0.01322 -0.07258,0.01942c0.01037,-0.01331 0.0207,-0.02667 0.031,-0.0401c0.01705,0.00593 0.03411,0.01187 0.05117,0.01779c-0.00321,0.00102 -0.00641,0.00198 -0.00959,0.00289z" fill="#c7c7c7" stroke="none" stroke-width="1"/><path d="" fill="#c7c7c7" stroke="none" stroke-width="1"/><path d="M243.28966,171.65155c-0.095,-0.33679 -0.17742,-0.64664 -0.20993,-0.90646c0.16117,0.31257 0.35927,0.61403 0.5973,0.9016c-0.12991,0.00182 -0.25913,0.00371 -0.38737,0.00486z" fill="#ffffff" stroke="none" stroke-width="1"/><path d="M243.68423,158.90004c0.07608,0.00504 0.15151,0.00809 0.2263,0.00881c-0.06609,0.10256 -0.13288,0.20752 -0.20012,0.31461c-0.00403,-0.1102 -0.01213,-0.21836 -0.02618,-0.32342z" fill="#ffffff" stroke="none" stroke-width="1"/><path d="M256.52454,166.59517c0.2111,0.24628 0.43121,0.46479 0.65581,0.66418c-0.25429,0.87954 -0.435,1.77027 -0.54093,2.6944c-2.48522,2.17485 -7.5525,1.84285 -10.23931,0.17823c-0.02134,-0.01322 -0.04201,-0.02701 -0.062,-0.04134c-0.38877,-1.46781 -0.11642,-3.45815 0.35199,-5.18123c0.6503,-1.77737 1.58223,-2.48759 3.76224,-3.22043c0.91764,-0.30848 1.85259,-0.4414 2.79645,-0.49763c1.22885,1.4851 2.08515,3.98172 3.27575,5.40382z" fill="#c7c7c7" stroke="none" stroke-width="1"/><path d="M260.96778,171.40486c0.08053,0.32215 0.11194,0.6414 0.12253,0.95776c-0.5063,0.25319 -0.99814,0.52916 -1.48002,0.75127c0.01564,-0.70575 0.11724,-1.46009 0.23187,-2.22038c0.17574,-0.32096 0.33744,-0.65054 0.48979,-0.98193c0.27883,0.40339 0.4994,0.88463 0.63582,1.49328z" fill="#c7c7c7" stroke="none" stroke-width="1"/><path d="M256.56701,173.96747c0.01895,-0.0066 0.03781,-0.01329 0.05658,-0.02007c0.00287,0.03065 0.00581,0.06135 0.00881,0.09211c-0.09377,-0.00018 -0.18758,-0.00089 -0.28139,-0.00214c0.07426,-0.02234 0.1463,-0.04563 0.216,-0.0699z" fill="#c7c7c7" stroke="none" stroke-width="1"/><path d="M246.93251,176.74648c0.16641,0.86394 0.30591,1.87045 0.37212,2.93423c-0.07307,0.34116 -0.1331,0.59106 -0.1444,0.65968c-1.45816,2.03576 -4.33531,3.16775 -6.53454,4.5876c-1.5026,-0.04687 -2.77177,-0.19255 -4.43541,-0.55824c-0.13918,-0.03059 -0.27866,-0.06023 -0.41844,-0.08848c-0.12367,-0.25661 -0.23844,-0.52635 -0.34455,-0.80921c-0.02205,-0.05879 -0.15138,-0.40116 -0.30463,-0.8441c0.77178,-1.076 1.6406,-2.20294 2.61457,-3.1561c1.22062,-0.20608 2.37741,-0.59078 3.07691,-2.01789c0.90398,-0.24975 1.89978,-0.25124 2.78829,-0.35716c1.05988,-0.12635 2.12568,-0.62973 3.17416,-0.60069c0.05354,0.08088 0.10553,0.16432 0.15592,0.25036z" fill="#ffffff" stroke="none" stroke-width="1"/><path d="M244.6558,186.37845c-0.238,0 -0.48444,-0.01805 -0.73269,-0.04204c0.47407,-0.29524 0.94762,-0.5836 1.4147,-0.87628c-0.18532,0.33945 -0.3844,0.63607 -0.60565,0.89993z" fill="#ffffff" stroke="none" stroke-width="1"/><path d="M235.87113,176.70923c0.10012,-0.0296 0.1989,-0.06316 0.29618,-0.10095c0.40176,-0.15608 0.73979,-0.40973 1.04162,-0.71666c0.1451,-0.07886 0.29143,-0.15536 0.43879,-0.22931c-0.66359,0.42951 -1.29701,0.94459 -1.89117,1.51641c-0.21169,0.02933 -0.42641,0.05503 -0.63975,0.08031c0.24339,-0.18926 0.49534,-0.37291 0.75433,-0.54979z" fill="#ffffff" stroke="none" stroke-width="1"/><path d="" fill="#ffffff" stroke="none" stroke-width="1"/><path d="M257.7812,185.78425c-1.03258,-0.16928 -2.00201,-0.61078 -2.99227,-0.94883c-0.28105,-0.09594 -0.98491,-0.09234 -1.27288,-0.08547c1.98926,-0.09391 3.93307,-1.34031 5.98932,-1.51238c0.22873,-0.01914 0.45676,-0.03628 0.68419,-0.05186c0.12021,1.11183 0.20393,2.21763 0.05643,2.96129c-0.82386,-0.10896 -1.64563,-0.22846 -2.4648,-0.36276z" fill="#c7c7c7" stroke="none" stroke-width="1"/><path d="M255.27146,189.48897l0.0147,0.09552c-0.11004,0.00494 -0.21894,0.00726 -0.32609,0.00652c0.10403,-0.03311 0.20783,-0.06714 0.31139,-0.10204z" fill="#c7c7c7" stroke="none" stroke-width="1"/><path d="M246.13778,191.14679c1.07807,-0.73782 1.4895,-1.76391 1.99287,-2.81985c0.23779,0.50742 0.51507,0.9885 0.81526,1.42969c0.82733,1.21589 1.7924,3.22826 2.77144,4.23335c0.26605,0.27313 0.54322,0.49048 0.82921,0.66701c-1.19727,1.51889 -2.29874,2.95584 -4.12978,3.81954c-0.02815,0.01359 -0.05625,0.02724 -0.08431,0.04095c0.06814,-0.6389 0.09731,-1.27764 0.06138,-1.87454c0.23596,-0.04193 0.47464,-0.09199 0.71627,-0.15086c0,0 1.45521,-0.3638 1.09141,-1.81902c-0.3638,-1.45521 -1.81902,-1.09141 -1.81902,-1.09141c-0.36279,0.09359 -0.72066,0.1624 -1.07433,0.2096c-0.66178,-0.82786 -1.56845,-1.59376 -2.38264,-2.0333c0.4377,-0.15966 0.84524,-0.35999 1.21224,-0.61117z" fill="#ffffff" stroke="none" stroke-width="1"/><path d="M250.83683,176.03951c0.17845,0.04467 0.35871,0.08777 0.54064,0.12924l-0.91017,0.10113c-0.02779,-0.1216 -0.06186,-0.23764 -0.1029,-0.34713c0.16719,0.04112 0.32553,0.07998 0.47242,0.11676z" fill="#ffffff" stroke="none" stroke-width="1"/><path d="M250.30702,179.9217c-0.00334,-0.07664 -0.00715,-0.15336 -0.0114,-0.23017c0.02434,-0.12862 0.04806,-0.25892 0.07072,-0.39025l0.80163,-0.0859c-0.24943,0.20319 -0.54982,0.44861 -0.86095,0.70632z" fill="#ffffff" stroke="none" stroke-width="1"/><path d="M251.56319,176.31107c-0.00933,0.00416 -0.01866,0.00832 -0.028,0.01248l-0.0131,-0.12226c0.02069,0.00459 0.04141,0.00917 0.06215,0.01372z" fill="#ffffff" stroke="none" stroke-width="1"/><path d="M235.03627,198.99258c-0.05985,-0.32775 -0.11594,-0.65024 -0.1683,-0.96889c1.21366,-0.60048 2.12911,-1.77347 2.51129,-3.07474c2.77514,0.55717 5.27245,1.61132 8.01849,1.82932c0.10134,1.07315 -0.13829,2.46667 -0.37489,3.51441c-0.82566,0.42174 -1.6696,0.79088 -2.57681,1.02671c-0.078,-0.43001 -0.371,-1.23772 -1.47171,-1.23772c-1.20409,0 -1.44162,0.96655 -1.48848,1.34791c-1.45132,-0.48802 -3.16728,-1.94224 -4.44959,-2.43701z" fill="#ffffff" stroke="none" stroke-width="1"/><path d="M227.90577,198.02243c0.42754,0.0686 0.86615,0.11858 1.3174,0.14775c0.80564,0.05206 1.73612,0.20372 2.66572,0.26571c0.01604,0.09675 0.03244,0.19376 0.04919,0.29108c-1.55476,0.00813 -3.16462,0.00108 -4.03231,-0.70454z" fill="#ffffff" stroke="none" stroke-width="1"/><path d="M221.39092,189.59008c-1.0767,-1.60359 -1.43162,-2.96659 -1.5174,-4.44996c0.07697,0.03895 0.15345,0.07568 0.22945,0.11024c0.27042,0.39329 0.72354,0.65117 1.2369,0.65117c0.27399,0 0.53081,-0.07345 0.75187,-0.20175c1.47261,-0.0076 2.79191,-0.76732 4.11269,-1.70335c0.07685,2.1259 0.39242,4.41628 1.67015,5.9084c-1.65605,0.09726 -3.6583,0.37576 -5.19662,1.15017c-0.43032,-0.38761 -0.83899,-0.79926 -1.28703,-1.46491z" fill="#c7c7c7" stroke="none" stroke-width="1"/><path d="M231.11049,188.08821c-0.20557,0.05933 -0.4462,0.16653 -0.64464,0.36024c-0.11562,-0.05441 -0.22244,-0.12727 -0.31809,-0.22315c-1.05551,-1.05815 -1.16935,-2.58105 -1.05235,-4.19434c0.3632,1.44538 1.10558,2.82003 2.01508,4.05724z" fill="#c7c7c7" stroke="none" stroke-width="1"/><path d="M231.16428,195.50304c0.10995,-0.02579 0.21991,-0.05179 0.32988,-0.07803c0.00253,0.02652 0.00508,0.05305 0.00765,0.07957c-0.112,0.00068 -0.22461,0.00013 -0.33754,-0.00154z" fill="#ffffff" stroke="none" stroke-width="1"/><path d="M219.42124,173.83263c0.39613,-1.23502 1.1479,-2.36336 1.99598,-3.42721c-0.03432,1.32612 -0.65733,3.0496 0.03811,4.28471c0.02131,0.03784 0.04373,0.07504 0.06723,0.11163l-0.55462,-0.05661c-0.14466,-0.02466 -0.24165,-0.02466 -0.24165,-0.02466c-0.49978,0 -0.99352,0.00674 -1.48232,0.01498c0.02269,-0.30412 0.07805,-0.60512 0.17728,-0.90283z" fill="#c7c7c7" stroke="none" stroke-width="1"/><path d="M219.79661,178.38298c-0.04238,-0.22009 -0.08957,-0.43906 -0.13811,-0.65684c0.35281,-0.00328 0.70859,-0.00565 1.06779,-0.00565c0,0 0.07341,0 0.18775,-0.01624c0.05481,0.01096 0.11357,0.02162 0.17589,0.03207c-0.46183,0.23091 -0.90618,0.45309 -1.29332,0.64666z" fill="#c7c7c7" stroke="none" stroke-width="1"/><path d="M230.83068,177.90977c-0.3077,0.37729 -0.73746,0.67229 -1.07024,1.02797c0.08453,-1.08665 -0.32273,-2.22758 -1.47463,-3.41291c-0.10398,-0.107 -0.25943,-0.2125 -0.45024,-0.31746c0.85657,0.31069 1.69725,0.57036 2.45236,0.80461c0.52878,0.16403 1.12116,0.35234 1.74132,0.51258c-0.40055,0.43324 -0.79878,0.89503 -1.19856,1.38522z" fill="#ffffff" stroke="none" stroke-width="1"/><path d="M224.25389,173.47804c0.39751,0.26717 0.81813,0.51025 1.25181,0.73292c-0.52876,-0.23055 -0.99385,-0.47195 -1.25181,-0.73292z" fill="#ffffff" stroke="none" stroke-width="1"/><path d="M233.48385,162.24356c0.12043,-0.04767 0.23826,-0.09892 0.35382,-0.1532c-0.49537,0.35519 -0.844,1.0112 -1.30692,1.43189c-0.64826,0.58911 -1.21192,1.07003 -1.79622,1.47094c-0.64196,-0.30567 -1.28316,-0.60826 -1.93362,-0.90501c1.55728,-0.68627 3.19894,-1.24689 4.68294,-1.84461z" fill="#c7c7c7" stroke="none" stroke-width="1"/><path d="M234.00719,166.33591c0.23659,-0.23745 0.46423,-0.4837 0.68488,-0.73311c0.18071,-0.20427 -0.06241,-0.7576 0.20823,-0.79125c0.12172,-0.01514 0.33795,0.08142 0.59492,0.24982c-0.01718,0.40196 0.00193,0.81466 0.0173,1.22771c-0.4783,0.11234 -0.98539,0.11286 -1.50533,0.04684z" fill="#c7c7c7" stroke="none" stroke-width="1"/><path d="M234.89504,161.48968c0.42412,0.23658 0.84753,0.48065 1.27345,0.73034c-0.07193,0.05318 -0.13839,0.11378 -0.1988,0.18219c-0.51972,-0.31619 -1.03875,-0.64109 -1.60192,-0.54302c-0.04906,0.00854 -0.09666,0.02008 -0.14294,0.03435c0.23035,-0.12573 0.45269,-0.26195 0.6702,-0.40386z" fill="#c7c7c7" stroke="none" stroke-width="1"/><path d="M235.14603,173.78746c-0.02377,0.00674 -0.04796,0.01322 -0.07258,0.01942c0.01037,-0.01331 0.0207,-0.02667 0.031,-0.0401c0.01705,0.00593 0.03411,0.01187 0.05117,0.01779c-0.00321,0.00102 -0.00641,0.00198 -0.00959,0.00289z" fill="#c7c7c7" stroke="none" stroke-width="1"/><path d="" fill="#c7c7c7" stroke="none" stroke-width="1"/><path d="M243.28966,171.65155c-0.095,-0.33679 -0.17742,-0.64664 -0.20993,-0.90646c0.16117,0.31257 0.35927,0.61403 0.5973,0.9016c-0.12991,0.00182 -0.25913,0.00371 -0.38737,0.00486z" fill="#ffffff" stroke="none" stroke-width="1"/><path d="M252.7226,163.66355c1.69484,1.37419 1.51161,3.16066 2.70259,5.03872c0.27939,0.4346 0.72181,0.83764 1.215,1.24477c-0.00026,0.00224 -0.00051,0.00448 -0.00077,0.00671c-2.48522,2.17485 -7.5525,1.84285 -10.23931,0.17823c-0.02134,-0.01322 -0.04201,-0.02701 -0.062,-0.04134c-0.38877,-1.46778 -0.11644,-3.45809 0.35196,-5.18116c0.49918,-1.36438 1.1643,-2.09993 2.43251,-2.69958c1.27313,0.26535 2.45448,0.53721 3.60002,1.45363z" fill="#c7c7c7" stroke="none" stroke-width="1"/><path d="M256.56701,173.96747c0.01895,-0.0066 0.03781,-0.01329 0.05658,-0.02007c0.00287,0.03065 0.00581,0.06135 0.00881,0.09211c-0.09377,-0.00018 -0.18758,-0.00089 -0.28139,-0.00214c0.07426,-0.02234 0.1463,-0.04563 0.216,-0.0699z" fill="#c7c7c7" stroke="none" stroke-width="1"/><path d="M246.93251,176.74648c0.16641,0.86394 0.30591,1.87045 0.37212,2.93423c-0.07307,0.34116 -0.1331,0.59106 -0.1444,0.65968c-1.45816,2.03576 -4.33531,3.16775 -6.53454,4.5876c-1.5026,-0.04687 -2.77177,-0.19255 -4.43541,-0.55824c-0.13918,-0.03059 -0.27866,-0.06023 -0.41844,-0.08848c-0.12367,-0.25661 -0.23844,-0.52635 -0.34455,-0.80921c-0.02205,-0.05879 -0.15138,-0.40116 -0.30463,-0.8441c0.77178,-1.076 1.6406,-2.20294 2.61457,-3.1561c1.22062,-0.20608 2.37741,-0.59078 3.07691,-2.01789c0.90398,-0.24975 1.89978,-0.25124 2.78829,-0.35716c1.05988,-0.12635 2.12568,-0.62973 3.17416,-0.60069c0.05354,0.08088 0.10553,0.16432 0.15592,0.25036z" fill="#ffffff" stroke="none" stroke-width="1"/><path d="M244.6558,186.37845c-0.238,0 -0.48444,-0.01805 -0.73269,-0.04204c0.47407,-0.29524 0.94762,-0.5836 1.4147,-0.87628c-0.18532,0.33945 -0.3844,0.63607 -0.60565,0.89993z" fill="#ffffff" stroke="none" stroke-width="1"/><path d="M235.87113,176.70923c0.10012,-0.0296 0.1989,-0.06316 0.29618,-0.10095c0.40176,-0.15608 0.73979,-0.40973 1.04162,-0.71666c0.1451,-0.07886 0.29143,-0.15536 0.43879,-0.22931c-0.66359,0.42951 -1.29701,0.94459 -1.89117,1.51641c-0.21169,0.02933 -0.42641,0.05503 -0.63975,0.08031c0.24339,-0.18926 0.49534,-0.37291 0.75433,-0.54979z" fill="#ffffff" stroke="none" stroke-width="1"/><path d="" fill="#ffffff" stroke="none" stroke-width="1"/><path d="M255.27146,189.48897l0.01469,0.09551c-0.11003,0.00494 -0.21892,0.00726 -0.32605,0.00652c0.10402,-0.0331 0.20781,-0.06713 0.31135,-0.10203z" fill="#c7c7c7" stroke="none" stroke-width="1"/><path d="M254.78893,184.83542c-0.28105,-0.09594 -0.98491,-0.09234 -1.27288,-0.08547c1.35655,-0.06404 2.69197,-0.66404 4.05632,-1.09379c-0.12851,0.67142 -0.29377,1.3298 -0.49358,1.97295c-0.77652,-0.21146 -1.52701,-0.53327 -2.28986,-0.79368z" fill="#c7c7c7" stroke="none" stroke-width="1"/><path d="M246.13778,191.14679c1.07807,-0.73782 1.4895,-1.76391 1.99287,-2.81985c0.23779,0.50742 0.51507,0.9885 0.81526,1.42969c0.81443,1.19693 1.76234,3.16571 2.72566,4.18562c-0.45172,0.39638 -0.92314,0.77085 -1.41261,1.12175c-0.0042,-0.12061 -0.02237,-0.25071 -0.05743,-0.39094c-0.3638,-1.45521 -1.81902,-1.09141 -1.81902,-1.09141c-0.3628,0.09359 -0.72067,0.1624 -1.07434,0.20961c-0.66178,-0.82786 -1.56845,-1.59375 -2.38263,-2.03329c0.4377,-0.15966 0.84524,-0.35999 1.21224,-0.61117z" fill="#ffffff" stroke="none" stroke-width="1"/><path d="M250.83683,176.03951c0.17845,0.04467 0.35871,0.08777 0.54064,0.12924l-0.91017,0.10113c-0.02779,-0.1216 -0.06186,-0.23764 -0.1029,-0.34713c0.16719,0.04112 0.32553,0.07998 0.47242,0.11676z" fill="#ffffff" stroke="none" stroke-width="1"/><path d="M250.30702,179.9217c-0.00334,-0.07664 -0.00715,-0.15336 -0.0114,-0.23017c0.02434,-0.12862 0.04806,-0.25892 0.07072,-0.39025l0.80163,-0.0859c-0.24943,0.20319 -0.54982,0.44861 -0.86095,0.70632z" fill="#ffffff" stroke="none" stroke-width="1"/><path d="M251.56319,176.31107c-0.00933,0.00416 -0.01866,0.00832 -0.028,0.01248l-0.0131,-0.12226c0.02069,0.00459 0.04141,0.00917 0.06215,0.01372z" fill="#ffffff" stroke="none" stroke-width="1"/><path d="M224.45635,190.40341c-0.9684,-1.43649 -1.73809,-3.01801 -2.26966,-4.70517c1.4345,-0.03887 2.72539,-0.78595 4.01773,-1.70182c0.07685,2.1259 0.39242,4.41628 1.67014,5.9084c-1.06786,0.06272 -2.27967,0.20079 -3.41822,0.49859z" fill="#c7c7c7" stroke="none" stroke-width="1"/><path d="M231.11049,188.0882c-0.20557,0.05933 -0.44621,0.16654 -0.64465,0.36025c-0.11562,-0.05441 -0.22244,-0.12727 -0.31808,-0.22315c-1.05551,-1.05815 -1.16935,-2.58106 -1.05235,-4.19435c0.3632,1.44538 1.10558,2.82003 2.01508,4.05724z" fill="#c7c7c7" stroke="none" stroke-width="1"/><path d="M222.18669,185.69823c0,0 0,0.00001 0,0.00001c0,0 0,0 0,0z" fill="#c7c7c7" stroke="none" stroke-width="1"/><path d="M239.62193,198.47655c-1.56637,0 -3.08672,-0.19705 -4.53761,-0.5677c1.10582,-0.62765 1.93581,-1.73714 2.29493,-2.95989c2.77514,0.55717 5.27245,1.61133 8.01849,1.82932c0.02264,0.2398 0.02826,0.49561 0.02069,0.75997c-1.82136,0.60863 -3.77043,0.93831 -5.7965,0.93831z" fill="#c7c7c7" stroke="none" stroke-width="1"/><path d="M231.16428,195.50304c0.10995,-0.02579 0.21991,-0.05179 0.32988,-0.07803c0.00253,0.02652 0.00508,0.05305 0.00765,0.07957c-0.112,0.00068 -0.22461,0.00013 -0.33754,-0.00154z" fill="#ffffff" stroke="none" stroke-width="1"/><path d="" fill="#c7c7c7" stroke="none" stroke-width="1"/><path d="M230.28792,176.01198c0.52878,0.16403 1.12116,0.35234 1.74132,0.51258c-0.40055,0.43324 -0.79878,0.89503 -1.19856,1.38522c-0.3077,0.37729 -0.73746,0.67229 -1.07024,1.02797c0.08453,-1.08665 -0.32273,-2.22758 -1.47463,-3.41291c-0.10398,-0.107 -0.25943,-0.2125 -0.45024,-0.31746c0.85657,0.31069 1.69725,0.57036 2.45236,0.80461z" fill="#ffffff" stroke="none" stroke-width="1"/><path d="M224.25389,173.47804c0.39751,0.26717 0.81813,0.51025 1.25181,0.73292c-0.52876,-0.23055 -0.99385,-0.47195 -1.25181,-0.73292z" fill="#ffffff" stroke="none" stroke-width="1"/><path d="M234.00719,166.33591c0.23659,-0.23745 0.46423,-0.4837 0.68488,-0.73311c0.18071,-0.20427 -0.06241,-0.7576 0.20823,-0.79125c0.12172,-0.01514 0.33795,0.08142 0.59492,0.24982c-0.01718,0.40196 0.00193,0.81466 0.0173,1.22771c-0.4783,0.11234 -0.98539,0.11286 -1.50533,0.04684z" fill="#c7c7c7" stroke="none" stroke-width="1"/><path d="M232.53075,163.52224c-0.64826,0.58911 -1.21192,1.07003 -1.79622,1.47094c-0.24088,-0.1147 -0.48166,-0.22896 -0.72285,-0.34264c0.88376,-0.54738 1.81766,-1.02151 2.79322,-1.41393c-0.08805,0.10209 -0.17867,0.19887 -0.27415,0.28564z" fill="#c7c7c7" stroke="none" stroke-width="1"/><path d="M236.11942,162.25816c-0.0533,0.04352 -0.1033,0.09148 -0.14972,0.14405c-0.04679,-0.02847 -0.09357,-0.057 -0.14038,-0.08529c0.09642,-0.02035 0.19313,-0.03994 0.2901,-0.05876z" fill="#c7c7c7" stroke="none" stroke-width="1"/><path d="M235.14603,173.78746c-0.02377,0.00674 -0.04796,0.01322 -0.07258,0.01942c0.01037,-0.01331 0.0207,-0.02667 0.031,-0.0401c0.01705,0.00593 0.03411,0.01187 0.05117,0.01779c-0.00321,0.00102 -0.00641,0.00198 -0.00959,0.00289z" fill="#c7c7c7" stroke="none" stroke-width="1"/><path d="" fill="#c7c7c7" stroke="none" stroke-width="1"/><path d="M243.28966,171.65155c-0.095,-0.33679 -0.17742,-0.64664 -0.20993,-0.90646c0.16117,0.31257 0.35927,0.61403 0.5973,0.9016c-0.12991,0.00182 -0.25913,0.00371 -0.38737,0.00486z" fill="#ffffff" stroke="none" stroke-width="1"/><path d="M246.40012,170.13198c-0.02134,-0.01322 -0.042,-0.02701 -0.062,-0.04134c-0.38877,-1.46779 -0.11644,-3.45811 0.35196,-5.18118c0.18511,-0.50596 0.39305,-0.92544 0.6461,-1.28358c3.31496,1.54558 6.08929,4.05641 7.96159,7.17112c-2.67541,1.19457 -6.63249,0.73836 -8.89765,-0.66502z" fill="#c7c7c7" stroke="none" stroke-width="1"/><path d="M256.56701,173.96747c0.01895,-0.0066 0.03781,-0.01329 0.05658,-0.02007c0.00287,0.03065 0.00581,0.06135 0.00881,0.0921c-0.09377,-0.00018 -0.18757,-0.00089 -0.28138,-0.00214c0.07425,-0.02233 0.14629,-0.04563 0.21598,-0.06989z" fill="#c7c7c7" stroke="none" stroke-width="1"/><path d="M246.93251,176.74648c0.16641,0.86394 0.30591,1.87045 0.37212,2.93423c-0.07307,0.34116 -0.1331,0.59106 -0.1444,0.65968c-1.45816,2.03576 -4.33531,3.16775 -6.53454,4.5876c-1.5026,-0.04687 -2.77177,-0.19255 -4.43541,-0.55824c-0.13918,-0.03059 -0.27866,-0.06023 -0.41844,-0.08848c-0.12367,-0.25661 -0.23844,-0.52635 -0.34455,-0.80921c-0.02205,-0.05879 -0.15138,-0.40116 -0.30463,-0.8441c0.77178,-1.076 1.6406,-2.20294 2.61457,-3.1561c1.22062,-0.20608 2.37741,-0.59078 3.07691,-2.01789c0.90398,-0.24975 1.89978,-0.25124 2.78829,-0.35716c1.05988,-0.12635 2.12568,-0.62973 3.17416,-0.60069c0.05354,0.08088 0.10553,0.16432 0.15592,0.25036z" fill="#c7c7c7" stroke="none" stroke-width="1"/><path d="M244.6558,186.37845c-0.238,0 -0.48444,-0.01805 -0.73269,-0.04204c0.47407,-0.29524 0.94762,-0.5836 1.4147,-0.87628c-0.18532,0.33945 -0.3844,0.63607 -0.60565,0.89993z" fill="#c7c7c7" stroke="none" stroke-width="1"/><path d="M235.87113,176.70923c0.10012,-0.0296 0.1989,-0.06316 0.29618,-0.10095c0.40176,-0.15608 0.73979,-0.40973 1.04162,-0.71666c0.1451,-0.07886 0.29143,-0.15536 0.43879,-0.22931c-0.66359,0.42951 -1.29701,0.94459 -1.89117,1.51641c-0.21169,0.02933 -0.42641,0.05503 -0.63975,0.08031c0.24339,-0.18926 0.49534,-0.37291 0.75433,-0.54979z" fill="#c7c7c7" stroke="none" stroke-width="1"/><path d="" fill="#c7c7c7" stroke="none" stroke-width="1"/></g></g></svg>