<svg version="1.1" xmlns="http://www.w3.org/2000/svg" xmlns:xlink="http://www.w3.org/1999/xlink" width="37.67919" height="38.36973" viewBox="0,0,37.67919,38.36973"><g transform="translate(-219.97006,-162.86039)"><g data-paper-data="{&quot;isPaintingLayer&quot;:true}" stroke-linecap="butt" stroke-linejoin="miter" stroke-miterlimit="10" stroke-dasharray="" stroke-dashoffset="0" style="mix-blend-mode: normal"><path d="M251.39083,189.30256c-2.27063,3.60989 -6.00801,5.95345 -10.51165,6.98704" fill="none" fill-rule="nonzero" stroke="#c2b59b" stroke-width="0.5"/><path d="M256.93745,184.53765c-0.21254,0.31881 -0.56678,0.56678 -0.81474,0.88558c-0.56678,0.74389 -0.56678,1.41693 -0.24796,2.2671c0.70847,1.84202 0.24796,3.96742 -1.23982,5.27808c-0.70847,0.63762 -1.6649,1.02727 -2.5859,1.13355c-1.27524,0.14169 -1.20439,0.14169 -2.2671,1.16897c-0.88558,0.921 -1.0627,2.47964 -1.98371,3.36522c-0.56678,0.56678 -1.48778,1.5232 -3.71946,1.13355c-1.20439,-0.24796 -2.08998,-0.6022 -3.25895,-0.85016c-1.73575,-0.35424 -1.5232,-0.17712 -2.76302,0.85016c-1.6649,1.34609 -4.10912,2.16083 -5.84486,0.63762c-0.921,-0.81474 -1.38151,-1.80659 -2.08998,-2.76302c-1.0627,-1.45236 -2.2671,-1.34609 -3.89657,-1.45236c-1.84202,-0.10627 -3.08183,-1.73575 -3.08183,-3.64861c-0.03542,-1.23982 0.14169,-2.5859 -0.56678,-3.71946c-0.53135,-0.85016 -1.0627,-1.48778 -1.6649,-2.2671c-1.55863,-1.94829 -0.921,-3.86115 0.03542,-5.88029c0.70847,-1.48778 -1.02727,-2.23168 -0.63762,-3.68403c0.24796,-0.921 2.94014,-2.19625 3.11726,-4.60504c0.07085,-0.921 -0.21254,-3.86115 1.80659,-3.64861c0.6022,0.07085 1.41693,0.10627 1.94829,-0.24796c0.67305,-0.46051 0.67305,-0.67305 0.81474,-1.41693c0.42508,-2.2671 1.84202,-3.43607 4.17996,-2.7276c0.88558,0.28339 1.55863,0.70847 2.47964,0.6022c0.95643,-0.10627 1.41693,-0.81474 2.19625,-1.27524c0.85016,-0.53135 2.08998,-0.99185 3.11726,-0.74389c0.99185,0.24796 1.13355,1.02727 1.70032,1.77117c1.16897,1.5232 2.5859,0.21254 4.00285,0.03542c1.73575,-0.21254 3.1881,0.77932 3.54234,2.2671c0.14169,0.56678 0.31881,0.95643 0.70847,1.38151c0.53135,0.56678 0.77932,0.6022 1.48778,0.63762c0.85016,0.03542 2.01913,0.42508 2.62133,1.02727c1.70032,1.77117 0.14169,4.10912 0.35424,6.23451c0.14169,1.59405 1.45236,2.01913 2.33795,3.11726c0.56678,0.67305 0.88558,1.55863 0.921,2.44422c0.03542,0.95643 -0.21254,1.91286 -0.70847,2.69217z" fill="#df6530" fill-rule="evenodd" stroke="none" stroke-width="1"/><path d="M255.23712,185.6712c0.28339,1.23982 0.38966,2.5859 -0.38966,3.68403c-0.46051,0.63762 -1.09812,0.6022 -1.55863,1.09812c-1.16897,1.27524 -0.31881,3.11726 -1.38151,4.74673c-0.6022,0.921 -2.51506,1.0627 -3.64861,1.13355c-0.10627,0 -0.67305,0.10627 -0.74389,0.56678c-0.49593,1.77117 -2.55048,2.05456 -4.28622,2.19625c-1.31066,0.10627 -2.33795,0.88558 -3.68403,0.67305c-0.6022,-0.10627 -1.20439,-0.42508 -1.80659,-0.49593c-0.921,-0.10627 -1.23982,0.31881 -2.01913,0.42508c-1.16897,0.10627 -1.84202,-0.77932 -2.83387,-1.16897c-1.02727,-0.38966 -2.16083,-0.24796 -3.15268,-0.77932c-1.0627,-0.56678 -1.62948,-1.6649 -2.62133,-2.30252c-0.77932,-0.49593 -1.23982,-1.09812 -1.62948,-1.94829c-0.35424,-0.70847 -0.42508,-1.23982 -1.13355,-1.70032c-0.35424,-0.24796 -0.63762,-0.31881 -0.95643,-0.63762c-0.77932,-0.77932 -1.73575,-1.13355 -1.87744,-3.1881c-0.03542,-0.6022 -0.24796,-1.02727 -0.24796,-1.62948c0,-0.63762 -0.07085,-1.0627 -0.24796,-1.73575c-0.35424,-1.16897 0.17712,-2.30252 0.42508,-3.50692c0.28339,-1.5232 -0.07085,-2.7276 0,-4.28622c0.03542,-1.09812 0.38966,-1.91286 1.16897,-2.69217c0.49593,-0.46051 1.13355,-0.74389 1.5232,-1.34609c0.42508,-0.67305 0.53135,-1.48778 0.85016,-2.19625c0.38966,-0.88558 0.921,-1.59405 1.84202,-2.01913c0.07085,-0.03542 2.94014,-1.02727 5.13639,-3.1881c1.41693,-1.41693 3.1881,-0.17712 5.03012,-0.10627c2.05456,0.07085 3.75488,-0.85016 5.77401,-0.07085c0.921,0.35424 1.77117,0.95643 2.69217,1.23982c0.88558,0.28339 1.41693,-0.03542 2.33795,0.17712c1.73575,0.42508 2.51506,3.54234 3.7903,5.06554c1.27524,1.48778 2.97556,1.6649 3.43607,3.71946c0.24796,0.99185 -0.10627,1.94829 0.31881,2.86929c0.35424,0.74389 0.95643,1.31066 1.20439,2.08998c0.53135,1.73575 -1.62948,4.10912 -1.31066,5.31351z" fill="#ea9b1f" fill-rule="evenodd" stroke="none" stroke-width="1"/><path d="M238.51729,166.04664c1.80659,0 3.86115,1.16897 5.49063,1.77117c1.73575,0.6022 3.22353,0.46051 4.64046,1.59405c1.31066,1.0627 1.16897,2.44422 2.08998,3.89657c0.63762,0.99185 2.37337,1.77117 2.97556,3.04641c0.85016,1.77117 0.49593,4.07369 0.49593,5.84486c0,1.20439 0.49593,3.50692 0.24796,4.64046c-0.6022,2.62133 -3.29437,3.43607 -4.9947,5.38436c-1.38151,1.55863 -2.2671,3.22353 -4.14454,4.10912c-2.05456,0.99185 -3.7903,2.40879 -6.23451,2.40879c-1.31066,0 -3.15268,-1.77117 -4.35707,-2.08998c-1.62948,-0.38966 -4.81758,0.38966 -5.5969,-1.0627c-2.62133,-4.95927 -3.47149,-4.28622 -4.71131,-6.12824c-1.6649,-2.47964 -1.09812,-4.21539 -1.09812,-7.43891c0,-1.6649 -0.921,-3.25895 -0.42508,-4.74673c0.6022,-1.87744 2.2671,-3.43607 3.47149,-4.92385c1.70032,-2.12541 4.853,-3.01099 7.40349,-4.03827c1.70032,-0.67305 2.7276,-2.2671 4.74673,-2.2671z" fill="#f3bb1b" fill-rule="evenodd" stroke="none" stroke-width="1"/><path d="M224.38337,182.19971c0,-7.80595 6.32798,-14.13393 14.13393,-14.13393c7.80595,0 14.13393,6.32798 14.13393,14.13393c0,7.80595 -6.32798,14.13393 -14.13393,14.13393c-7.80595,0 -14.13393,-6.32798 -14.13393,-14.13393z" fill="#f9d20d" fill-rule="evenodd" stroke="none" stroke-width="1"/></g></g></svg>