<svg version="1.1" xmlns="http://www.w3.org/2000/svg" xmlns:xlink="http://www.w3.org/1999/xlink" width="23.01752" height="23.43937" viewBox="0,0,23.01752,23.43937"><g transform="translate(-228.49124,-168.28032)"><g data-paper-data="{&quot;isPaintingLayer&quot;:true}" stroke-linecap="butt" stroke-linejoin="miter" stroke-miterlimit="10" stroke-dasharray="" stroke-dashoffset="0" style="mix-blend-mode: normal"><path d="M247.6856,184.43335c-1.38709,2.20521 -3.67018,3.63685 -6.42138,4.26826" fill="none" fill-rule="nonzero" stroke="#c2b59b" stroke-width="0.5"/><path d="M251.07393,181.52255c-0.12984,0.19476 -0.34624,0.34624 -0.49771,0.54099c-0.34624,0.45442 -0.34624,0.86557 -0.15147,1.38493c0.43279,1.12526 0.15147,2.42362 -0.75739,3.22428c-0.43279,0.38951 -1.01705,0.62754 -1.57968,0.69247c-0.77902,0.08655 -0.73574,0.08655 -1.38493,0.7141c-0.54099,0.56262 -0.64918,1.51476 -1.21181,2.05575c-0.34624,0.34624 -0.90886,0.93049 -2.27215,0.69247c-0.73574,-0.15147 -1.27673,-0.36787 -1.99083,-0.51934c-1.06034,-0.2164 -0.93049,-0.1082 -1.68788,0.51934c-1.01705,0.8223 -2.51019,1.32001 -3.57052,0.38951c-0.56262,-0.49771 -0.84394,-1.10361 -1.27673,-1.68788c-0.64918,-0.88722 -1.38493,-0.8223 -2.38034,-0.88722c-1.12526,-0.06492 -1.88263,-1.06034 -1.88263,-2.22887c-0.02163,-0.75739 0.08655,-1.57968 -0.34624,-2.27215c-0.32459,-0.51934 -0.64918,-0.90886 -1.01705,-1.38493c-0.95214,-1.19018 -0.56262,-2.35871 0.02163,-3.59216c0.43279,-0.90886 -0.62754,-1.36329 -0.38951,-2.25051c0.15147,-0.56262 1.79608,-1.34165 1.90428,-2.81313c0.04328,-0.56262 -0.12984,-2.35871 1.10361,-2.22887c0.36787,0.04328 0.86557,0.06492 1.19018,-0.15147c0.41116,-0.28132 0.41116,-0.41116 0.49771,-0.86557c0.25968,-1.38493 1.12526,-2.09903 2.55346,-1.66624c0.54099,0.17311 0.95214,0.43279 1.51476,0.36787c0.58426,-0.06492 0.86557,-0.49771 1.34165,-0.77902c0.51934,-0.32459 1.27673,-0.6059 1.90428,-0.45442c0.6059,0.15147 0.69247,0.62754 1.0387,1.08197c0.7141,0.93049 1.57968,0.12984 2.44527,0.02163c1.06034,-0.12984 1.94755,0.47608 2.16395,1.38493c0.08655,0.34624 0.19476,0.58426 0.43279,0.84394c0.32459,0.34624 0.47608,0.36787 0.90886,0.38951c0.51934,0.02163 1.23345,0.25968 1.60132,0.62754c1.0387,1.08197 0.08655,2.51019 0.2164,3.80854c0.08655,0.97378 0.88722,1.23345 1.42821,1.90428c0.34624,0.41116 0.54099,0.95214 0.56262,1.49313c0.02163,0.58426 -0.12984,1.16853 -0.43279,1.6446z" fill="#df6530" fill-rule="evenodd" stroke="none" stroke-width="1"/><path d="M250.03523,182.21501c0.17311,0.75739 0.23803,1.57968 -0.23803,2.25051c-0.28132,0.38951 -0.67082,0.36787 -0.95214,0.67082c-0.7141,0.77902 -0.19476,1.90428 -0.84394,2.89969c-0.36787,0.56262 -1.5364,0.64918 -2.22887,0.69247c-0.06492,0 -0.41116,0.06492 -0.45442,0.34624c-0.30295,1.08197 -1.55804,1.25509 -2.61837,1.34165c-0.80066,0.06492 -1.42821,0.54099 -2.25051,0.41116c-0.36787,-0.06492 -0.73574,-0.25968 -1.10361,-0.30295c-0.56262,-0.06492 -0.75739,0.19476 -1.23345,0.25968c-0.7141,0.06492 -1.12526,-0.47608 -1.73116,-0.7141c-0.62754,-0.23803 -1.32001,-0.15147 -1.92591,-0.47608c-0.64918,-0.34624 -0.99542,-1.01705 -1.60132,-1.40657c-0.47608,-0.30295 -0.75739,-0.67082 -0.99542,-1.19018c-0.2164,-0.43279 -0.25968,-0.75739 -0.69247,-1.0387c-0.2164,-0.15147 -0.38951,-0.19476 -0.58426,-0.38951c-0.47608,-0.47608 -1.06034,-0.69247 -1.14689,-1.94755c-0.02163,-0.36787 -0.15147,-0.62754 -0.15147,-0.99542c0,-0.38951 -0.04328,-0.64918 -0.15147,-1.06034c-0.2164,-0.7141 0.1082,-1.40657 0.25968,-2.14231c0.17311,-0.93049 -0.04328,-1.66624 0,-2.61837c0.02163,-0.67082 0.23803,-1.16853 0.7141,-1.6446c0.30295,-0.28132 0.69247,-0.45442 0.93049,-0.8223c0.25968,-0.41116 0.32459,-0.90886 0.51934,-1.34165c0.23803,-0.54099 0.56262,-0.97378 1.12526,-1.23345c0.04328,-0.02163 1.79608,-0.62754 3.13773,-1.94755c0.86557,-0.86557 1.94755,-0.1082 3.07281,-0.06492c1.25509,0.04328 2.29379,-0.51934 3.52723,-0.04328c0.56262,0.2164 1.08197,0.58426 1.6446,0.75739c0.54099,0.17311 0.86557,-0.02163 1.42821,0.1082c1.06034,0.25968 1.5364,2.16395 2.31542,3.09444c0.77902,0.90886 1.81771,1.01705 2.09903,2.27215c0.15147,0.6059 -0.06492,1.19018 0.19476,1.7528c0.2164,0.45442 0.58426,0.80066 0.73574,1.27673c0.32459,1.06034 -0.99542,2.51019 -0.80066,3.24592z" fill="#ea9b1f" fill-rule="evenodd" stroke="none" stroke-width="1"/><path d="M239.82139,170.22674c1.10361,0 2.35871,0.7141 3.35413,1.08197c1.06034,0.36787 1.9692,0.28132 2.83477,0.97378c0.80066,0.64918 0.7141,1.49313 1.27673,2.38034c0.38951,0.6059 1.44985,1.08197 1.81771,1.86099c0.51934,1.08197 0.30295,2.48854 0.30295,3.57052c0,0.73574 0.30295,2.14231 0.15147,2.83477c-0.36787,1.60132 -2.01247,2.09903 -3.05117,3.28921c-0.84394,0.95214 -1.38493,1.9692 -2.53182,2.51019c-1.25509,0.6059 -2.31542,1.47149 -3.80854,1.47149c-0.80066,0 -1.92591,-1.08197 -2.66165,-1.27673c-0.99542,-0.23803 -2.94297,0.23803 -3.41904,-0.64918c-1.60132,-3.02952 -2.12067,-2.61837 -2.87805,-3.74363c-1.01705,-1.51476 -0.67082,-2.5751 -0.67082,-4.54429c0,-1.01705 -0.56262,-1.99083 -0.25968,-2.89969c0.36787,-1.14689 1.38493,-2.09903 2.12067,-3.00789c1.0387,-1.29837 2.96461,-1.83936 4.52265,-2.4669c1.0387,-0.41116 1.66624,-1.38493 2.89969,-1.38493z" fill="#f3bb1b" fill-rule="evenodd" stroke="none" stroke-width="1"/><path d="M231.18724,180.09435c0,-4.76851 3.86564,-8.63416 8.63416,-8.63416c4.76851,0 8.63416,3.86564 8.63416,8.63416c0,4.76851 -3.86564,8.63416 -8.63416,8.63416c-4.76851,0 -8.63416,-3.86564 -8.63416,-8.63416z" fill="#f9d20d" fill-rule="evenodd" stroke="none" stroke-width="1"/></g></g></svg>