<svg version="1.1" xmlns="http://www.w3.org/2000/svg" xmlns:xlink="http://www.w3.org/1999/xlink" width="48.72359" height="49.61655" viewBox="0,0,48.72359,49.61655"><g transform="translate(-215.63821,-155.19173)"><g data-paper-data="{&quot;isPaintingLayer&quot;:true}" stroke-linecap="butt" stroke-linejoin="miter" stroke-miterlimit="10" stroke-dasharray="" stroke-dashoffset="0" style="mix-blend-mode: normal"><path d="M256.2689,189.38453c-2.93619,4.66801 -7.76906,7.6985 -13.59279,9.03506" fill="none" fill-rule="nonzero" stroke="#c2b59b" stroke-width="0.5"/><path d="M263.44133,183.22295c-0.27484,0.41226 -0.73291,0.73291 -1.05355,1.14516c-0.73291,0.96194 -0.73291,1.83226 -0.32064,2.93162c0.91613,2.38195 0.32064,5.13034 -1.60323,6.82517c-0.91613,0.82452 -2.15291,1.32838 -3.34387,1.46581c-1.64903,0.18322 -1.55742,0.18322 -2.93162,1.51161c-1.14516,1.19096 -1.37419,3.20646 -2.56517,4.35162c-0.73291,0.73291 -1.92387,1.96967 -4.80969,1.46581c-1.55742,-0.32064 -2.70259,-0.77871 -4.2142,-1.09936c-2.24453,-0.45807 -1.96967,-0.22904 -3.57291,1.09936c-2.15291,1.74065 -5.31357,2.7942 -7.55808,0.82452c-1.19096,-1.05355 -1.78645,-2.33613 -2.70259,-3.57291c-1.37419,-1.87807 -2.93162,-1.74065 -5.03872,-1.87807c-2.38195,-0.13742 -3.98517,-2.24453 -3.98517,-4.71808c-0.0458,-1.60323 0.18322,-3.34387 -0.73291,-4.80969c-0.6871,-1.09936 -1.37419,-1.92387 -2.15291,-2.93162c-2.01549,-2.51937 -1.19096,-4.99292 0.0458,-7.6039c0.91613,-1.92387 -1.32838,-2.88582 -0.82452,-4.76388c0.32064,-1.19096 3.80194,-2.84001 4.03098,-5.95485c0.09162,-1.19096 -0.27484,-4.99292 2.33613,-4.71808c0.77871,0.09162 1.83226,0.13742 2.51937,-0.32064c0.87033,-0.59549 0.87033,-0.87033 1.05355,-1.83226c0.54968,-2.93162 2.38195,-4.44324 5.40518,-3.5271c1.14516,0.36646 2.01549,0.91613 3.20646,0.77871c1.23678,-0.13742 1.83226,-1.05355 2.84001,-1.64903c1.09936,-0.6871 2.70259,-1.28258 4.03098,-0.96194c1.28258,0.32064 1.46581,1.32838 2.19871,2.29033c1.51161,1.96967 3.34387,0.27484 5.17615,0.0458c2.24453,-0.27484 4.12258,1.00775 4.58066,2.93162c0.18322,0.73291 0.41226,1.23678 0.91613,1.78645c0.6871,0.73291 1.00775,0.77871 1.92387,0.82452c1.09936,0.0458 2.61097,0.54968 3.38968,1.32838c2.19871,2.29033 0.18322,5.31357 0.45807,8.06195c0.18322,2.06129 1.87807,2.61097 3.02324,4.03098c0.73291,0.87033 1.14516,2.01549 1.19096,3.16066c0.0458,1.23678 -0.27484,2.47355 -0.91613,3.48129z" fill="#df6530" fill-rule="evenodd" stroke="none" stroke-width="1"/><path d="M261.2426,184.68876c0.36646,1.60323 0.50388,3.34387 -0.50388,4.76388c-0.59549,0.82452 -1.42,0.77871 -2.01549,1.42c-1.51161,1.64903 -0.41226,4.03098 -1.78645,6.13807c-0.77871,1.19096 -3.25227,1.37419 -4.71808,1.46581c-0.13742,0 -0.87033,0.13742 -0.96194,0.73291c-0.6413,2.29033 -3.29807,2.65679 -5.54258,2.84001c-1.69484,0.13742 -3.02324,1.14516 -4.76388,0.87033c-0.77871,-0.13742 -1.55742,-0.54968 -2.33613,-0.6413c-1.19096,-0.13742 -1.60323,0.41226 -2.61097,0.54968c-1.51161,0.13742 -2.38195,-1.00775 -3.66452,-1.51161c-1.32838,-0.50388 -2.7942,-0.32064 -4.07678,-1.00775c-1.37419,-0.73291 -2.10711,-2.15291 -3.38968,-2.97743c-1.00775,-0.6413 -1.60323,-1.42 -2.10711,-2.51937c-0.45807,-0.91613 -0.54968,-1.60323 -1.46581,-2.19871c-0.45807,-0.32064 -0.82452,-0.41226 -1.23678,-0.82452c-1.00775,-1.00775 -2.24453,-1.46581 -2.42775,-4.12258c-0.0458,-0.77871 -0.32064,-1.32838 -0.32064,-2.10711c0,-0.82452 -0.09162,-1.37419 -0.32064,-2.24453c-0.45807,-1.51161 0.22904,-2.97743 0.54968,-4.53486c0.36646,-1.96967 -0.09162,-3.5271 0,-5.54258c0.0458,-1.42 0.50388,-2.47355 1.51161,-3.48129c0.6413,-0.59549 1.46581,-0.96194 1.96967,-1.74065c0.54968,-0.87033 0.6871,-1.92387 1.09936,-2.84001c0.50388,-1.14516 1.19096,-2.06129 2.38195,-2.61097c0.09162,-0.0458 3.80194,-1.32838 6.64195,-4.12258c1.83226,-1.83226 4.12258,-0.22904 6.50453,-0.13742c2.65679,0.09162 4.8555,-1.09936 7.46647,-0.09162c1.19096,0.45807 2.29033,1.23678 3.48129,1.60323c1.14516,0.36646 1.83226,-0.0458 3.02324,0.22904c2.24453,0.54968 3.25227,4.58066 4.9013,6.55033c1.64903,1.92387 3.84775,2.15291 4.44324,4.80969c0.32064,1.28258 -0.13742,2.51937 0.41226,3.71033c0.45807,0.96194 1.23678,1.69484 1.55742,2.70259c0.6871,2.24453 -2.10711,5.31357 -1.69484,6.87099z" fill="#ea9b1f" fill-rule="evenodd" stroke="none" stroke-width="1"/><path d="M239.62192,159.31192c2.33613,0 4.99292,1.51161 7.10002,2.29033c2.24453,0.77871 4.1684,0.59549 6.00066,2.06129c1.69484,1.37419 1.51161,3.16066 2.70259,5.03872c0.82452,1.28258 3.06904,2.29033 3.84775,3.93936c1.09936,2.29033 0.6413,5.26776 0.6413,7.55808c0,1.55742 0.6413,4.53486 0.32064,6.00066c-0.77871,3.38968 -4.26,4.44324 -6.45873,6.9626c-1.78645,2.01549 -2.93162,4.1684 -5.35937,5.31357c-2.65679,1.28258 -4.9013,3.11485 -8.06195,3.11485c-1.69484,0 -4.07678,-2.29033 -5.6342,-2.70259c-2.10711,-0.50388 -6.22969,0.50388 -7.23744,-1.37419c-3.38968,-6.41291 -4.48904,-5.54258 -6.09227,-7.92453c-2.15291,-3.20646 -1.42,-5.45099 -1.42,-9.61938c0,-2.15291 -1.19096,-4.2142 -0.54968,-6.13807c0.77871,-2.42775 2.93162,-4.44324 4.48904,-6.36711c2.19871,-2.7484 6.27549,-3.89356 9.57357,-5.22195c2.19871,-0.87033 3.5271,-2.93162 6.13807,-2.93162z" fill="#f3bb1b" fill-rule="evenodd" stroke="none" stroke-width="1"/><path d="M221.34511,180.19972c0,-10.094 8.18282,-18.27682 18.27682,-18.27682c10.094,0 18.27682,8.18282 18.27682,18.27682c0,10.094 -8.18282,18.27682 -18.27682,18.27682c-10.094,0 -18.27682,-8.18282 -18.27682,-18.27682z" fill="#f9d20d" fill-rule="evenodd" stroke="none" stroke-width="1"/></g></g></svg>