<svg version="1.1" xmlns="http://www.w3.org/2000/svg" xmlns:xlink="http://www.w3.org/1999/xlink" width="48.2811" height="44.51068" viewBox="0,0,48.2811,44.51068"><g transform="translate(-215.63821,-158.84283)"><g data-paper-data="{&quot;isPaintingLayer&quot;:true}" fill-rule="nonzero" stroke-linecap="butt" stroke-linejoin="miter" stroke-miterlimit="10" stroke-dasharray="" stroke-dashoffset="0" style="mix-blend-mode: normal"><path d="M256.2689,189.38453c-0.02313,0.03678 -0.04638,0.07345 -0.06975,0.11002" fill="none" stroke="#c2b59b" stroke-width="0.5"/><path d="M251.91405,194.18016c-1.08648,0.84683 -2.27084,1.58786 -3.5385,2.22219" fill="none" stroke="#c2b59b" stroke-width="0.5"/><path d="M245.41488,197.64022c-0.88457,0.30376 -1.79877,0.56363 -2.73878,0.77937" fill="none" stroke="#c2b59b" stroke-width="0.5"/><path d="M263.44133,183.22295c-0.27484,0.41226 -0.73291,0.73291 -1.05355,1.14516c-0.73291,0.96194 -0.73291,1.83226 -0.32064,2.93162c0.15807,0.41097 0.27113,0.83285 0.34014,1.25834c-1.24593,0.21043 -2.44472,0.29352 -3.8647,0.49627c-1.14678,0.16375 -4.39529,1.18043 -5.38163,-0.10291c-1.01494,-1.32055 -0.69874,-4.9992 0.52561,-6.14171c1.82216,-1.70035 6.08954,-1.16253 8.28605,-1.20324c0.24109,-0.00447 0.49394,-0.01969 0.74828,-0.02824c0.43171,0.2038 0.83458,0.44013 1.19843,0.71061c-0.13131,0.32703 -0.29102,0.64028 -0.47797,0.93406z" fill="#df6530" stroke="none" stroke-width="1"/><path d="M257.3019,192.43087l-0.10906,-0.04848l-0.26196,0.58941c-0.7415,-0.11986 -1.60823,-0.2389 -2.24764,-0.49561c0.88055,0.02469 1.78657,-0.07697 2.64829,-0.20212c-0.00988,0.05227 -0.01975,0.10453 -0.02963,0.1568z" fill="#df6530" stroke="none" stroke-width="1"/><path d="M254.18842,197.10232c-1.14516,1.19096 -1.37419,3.20646 -2.56517,4.35162c-0.70496,0.70496 -1.83369,1.87605 -4.48681,1.51599c0.1656,-0.32317 0.34441,-0.67081 0.55289,-1.04733c0.4634,-1.85026 1.09535,-4.87581 0.43476,-6.7465c-0.44718,-1.26637 -1.93435,-2.73567 -3.19855,-3.41815c0.4377,-0.15966 0.84524,-0.35999 1.21224,-0.61117c1.07807,-0.73782 1.4895,-1.76391 1.99287,-2.81985c0.23779,0.50742 0.51507,0.9885 0.81526,1.42969c0.82733,1.21589 1.7924,3.22826 2.77144,4.23335c1.28372,1.31787 2.8258,1.33679 4.37262,1.74131c-0.67894,0.14255 -0.9042,0.40694 -1.90155,1.37104z" fill="#df6530" stroke="none" stroke-width="1"/><path d="M249.75784,175.77199c0.39539,0.09996 0.76356,0.18854 1.07899,0.26751c0.17845,0.04467 0.35871,0.08777 0.54064,0.12924l-1.5093,0.1677c-0.03521,-0.18773 -0.07204,-0.37588 -0.11033,-0.56445z" fill="#df6530" stroke="none" stroke-width="1"/><path d="M250.30702,179.92169c-0.00885,-0.20281 -0.02092,-0.40622 -0.03602,-0.61021l0.89697,-0.09612c-0.24943,0.20319 -0.54982,0.44861 -0.86095,0.70632z" fill="#df6530" stroke="none" stroke-width="1"/><path d="M251.56319,176.31106c-0.00933,0.00416 -0.01866,0.00832 -0.028,0.01248l-0.0131,-0.12226c0.02069,0.00459 0.04141,0.00917 0.06215,0.01372z" fill="#df6530" stroke="none" stroke-width="1"/><path d="M242.59936,201.82039c-2.24453,-0.45807 -1.96967,-0.22904 -3.57291,1.09936c-0.18578,0.1502 -0.37906,0.2953 -0.57862,0.43377c-3.14909,-0.57533 -6.33828,-1.47998 -9.29768,-2.63726c-0.12318,-0.18204 -0.25034,-0.36396 -0.38437,-0.5449c-1.15783,-1.58237 -2.44573,-1.73396 -4.08288,-1.82466c-0.05249,-0.30344 0.02213,-0.65317 -0.03464,-0.96081c-0.01875,-0.10161 -0.03558,-0.20399 -0.05139,-0.30682c1.41875,0.57942 2.9337,0.98171 4.6263,1.09109c1.6865,0.10899 3.92003,0.65439 5.54747,-0.09986c2.05984,-0.95467 3.29995,-3.5498 2.61461,-5.69562c0.01581,-0.00025 0.03165,-0.00048 0.0475,-0.0007c1.44539,0.60537 2.8816,1.26857 4.39029,1.66004c1.19333,0.30964 3.00604,0.58041 3.455,2.09076c0.37564,1.26368 -0.06915,3.44659 -0.38334,4.70693c-0.26589,0.49851 -0.46497,0.97077 -0.70251,1.39455c-0.50671,-0.14499 -1.0238,-0.28517 -1.59283,-0.40587z" fill="#df6530" stroke="none" stroke-width="1"/><path d="M219.00898,188.76552c-0.6871,-1.09936 -1.37419,-1.92387 -2.15291,-2.93162c-0.92512,-1.1564 -1.25189,-2.30314 -1.21509,-3.45795c0.61506,0.14431 1.2357,0.30119 1.82918,0.53817c0.98364,0.39278 1.37522,1.68594 2.31256,2.17913c0.10771,0.05667 0.21444,0.10898 0.32025,0.15711c0.27042,0.39329 0.72354,0.65117 1.2369,0.65117c0.27399,0 0.53081,-0.07345 0.75187,-0.20175c1.60972,-0.00831 3.03624,-0.9153 4.48176,-1.96891c0.91199,-0.79716 1.75596,-1.65123 2.34758,-2.55499c-0.34723,2.47778 0.69571,4.88042 2.18941,6.91233c-0.44135,0.12738 -1.04433,0.47543 -1.04433,1.42647c0,0.11781 0.00925,0.22637 0.0263,0.3264c-0.20034,0.00882 -0.39167,0.01433 -0.57156,0.01433c-2.05248,0.01035 -5.73083,0.18607 -7.78621,1.78913c-0.6678,-0.41262 -1.38486,-0.82216 -2.11709,-1.21889c-0.09963,-0.57597 -0.28082,-1.13564 -0.60862,-1.66012z" fill="#c7c7c7" stroke="none" stroke-width="1"/><path d="M233.67935,195.27583c-0.71167,0.1806 -1.60314,0.24069 -2.51507,0.2272c0.59405,-0.13936 1.18834,-0.28467 1.78333,-0.4414c0.36835,-0.09703 0.79663,-0.05055 1.19014,-0.07261c-0.12977,0.13968 -0.28375,0.24249 -0.4584,0.28681z" fill="#df6530" stroke="none" stroke-width="1"/><path d="M224.44698,194.21507c-0.12669,-0.0816 -0.22251,-0.19451 -0.30348,-0.32265c0.00349,-0.00543 0.00698,-0.01086 0.01046,-0.01631c0.03157,0.00192 0.04927,0.00192 0.04927,0.00192h0.61358c0.06958,0 0.13894,-0.00047 0.20808,-0.00141c-0.15569,0.07021 -0.35982,0.18641 -0.53466,0.36588c-0.01447,-0.00904 -0.02889,-0.01818 -0.04325,-0.02743z" fill="#df6530" stroke="none" stroke-width="1"/><path d="M220.3009,194.76986c0.19734,0.54717 0.88524,0.9596 1.11742,1.5277c0.19804,0.48456 0.2598,0.90747 0.28196,1.30688c-1.00122,-0.68948 -1.67837,-1.83073 -1.8888,-3.14629c0.16309,0.10459 0.32618,0.20857 0.48942,0.3117z" fill="#df6530" stroke="none" stroke-width="1"/><path d="M224.81064,165.80581c0.07918,-0.02411 0.15705,-0.05361 0.23335,-0.08943c2.08324,-0.97785 2.13406,-3.47396 2.79876,-5.51661c1.04576,-0.42052 2.19528,-0.53308 3.37304,-0.49263c1.73401,0.68672 3.32505,1.55865 4.95271,2.51288c-0.45221,0.33434 -0.68845,0.96206 -0.56117,1.97855c-0.17083,0.70746 -0.11492,1.47834 -0.08927,2.24592c-0.02106,0.04489 -0.04171,0.08293 -0.06181,0.113c-2.57342,3.8492 -7.1936,1.25262 -10.81086,-0.0987c0.05674,-0.23043 0.11329,-0.45263 0.16526,-0.65299z" fill="#df6530" stroke="none" stroke-width="1"/><path d="M235.14603,173.78745c-0.02377,0.00674 -0.04796,0.01322 -0.07258,0.01942c0.01037,-0.01331 0.0207,-0.02667 0.031,-0.0401c0.01705,0.00593 0.03411,0.01187 0.05117,0.01779c-0.00321,0.00102 -0.00641,0.00198 -0.00959,0.00289z" fill="#df6530" stroke="none" stroke-width="1"/><path d="M238.76581,168.9367c-0.0006,-0.01001 -0.00102,-0.01991 -0.00127,-0.02971l0.04045,-0.00505c-0.01236,0.01973 -0.02482,0.03945 -0.03739,0.05917c-0.0007,-0.00809 -0.0013,-0.01622 -0.00179,-0.02441z" fill="#df6530" stroke="none" stroke-width="1"/><path d="M216.90187,178.23c0.81549,-1.71253 -0.87339,-2.66287 -0.8989,-4.17563c0.16843,-0.15222 0.33936,-0.31652 0.51038,-0.50064c0.49535,-0.53333 0.85101,-1.23917 1.33665,-1.77718c0.31223,0.29594 1.04043,0.7931 1.93557,0.12176c0.61142,-0.45856 0.67767,-0.99501 0.59556,-1.41093c0.35048,-0.13498 0.70827,-0.27423 1.03132,-0.4047c0.08346,1.35823 -0.7105,3.26942 0.04289,4.60745c0.43609,0.77451 1.34126,1.28184 2.28023,1.72337c-1.38921,0.6946 -3.6218,1.8109 -4.67364,2.33682c-0.47731,0.22627 -0.81612,0.6971 -0.85459,1.25065c-0.55759,-0.15755 -1.24806,-0.24651 -1.91849,-0.3748c0.18161,-0.46165 0.39066,-0.92668 0.61304,-1.39615z" fill="#c7c7c7" stroke="none" stroke-width="1"/><path d="M230.28792,176.01197c0.52878,0.16403 1.12116,0.35234 1.74132,0.51258c-0.40055,0.43324 -0.79878,0.89503 -1.19856,1.38522c-0.3077,0.37729 -0.73746,0.67229 -1.07024,1.02797c0.08453,-1.08665 -0.32273,-2.22758 -1.47463,-3.41291c-0.10398,-0.107 -0.25943,-0.2125 -0.45024,-0.31746c0.85657,0.31069 1.69725,0.57036 2.45236,0.80461z" fill="#df6530" stroke="none" stroke-width="1"/><path d="M224.25389,173.47803c0.39751,0.26717 0.81813,0.51025 1.25181,0.73292c-0.52876,-0.23055 -0.99385,-0.47195 -1.25181,-0.73292z" fill="#df6530" stroke="none" stroke-width="1"/><path d="M243.79434,171.64508c-0.16945,0.00222 -0.3379,0.00496 -0.50468,0.00646c-0.09813,-0.3479 -0.18284,-0.66705 -0.21298,-0.932c-0.06367,-0.55988 -0.06606,-1.09002 -0.05593,-1.60312c0.07924,-0.01086 0.15651,-0.02792 0.2313,-0.05066c0.05942,0.90678 0.23037,1.78003 0.54228,2.57931z" fill="#df6530" stroke="none" stroke-width="1"/><path d="M243.68423,158.90003c0.07608,0.00504 0.15151,0.00809 0.2263,0.00881c-0.06609,0.10256 -0.13288,0.20752 -0.20012,0.31461c-0.00403,-0.1102 -0.01213,-0.21836 -0.02618,-0.32342z" fill="#df6530" stroke="none" stroke-width="1"/><path d="M253.45553,160.54868c0.18322,0.73291 0.41226,1.23678 0.91613,1.78645c0.6871,0.73291 1.00775,0.77871 1.92387,0.82452c1.09936,0.0458 2.61097,0.54968 3.38968,1.32838c2.19871,2.29033 0.18322,5.31357 0.45807,8.06195c0.00871,0.09791 0.02081,0.19241 0.03612,0.28376c-0.26207,0.13494 -0.52079,0.26304 -0.77686,0.37261c-0.68159,0.29165 -1.35991,0.56266 -2.03472,0.82351c-3.71394,0.10458 -7.59072,-0.6363 -9.95795,-2.27166c-2.53743,-1.75293 -0.63243,-8.03683 0.48326,-9.96664c1.1181,-1.11216 2.81149,-2.24866 4.64234,-2.94871c0.44357,0.47018 0.76411,1.05084 0.92007,1.70584z" fill="#c7c7c7" stroke="none" stroke-width="1"/><path d="M246.93251,176.74647c0.31616,1.6414 0.53519,3.79744 0.33903,5.88303c-0.376,0.20782 -0.59141,0.53092 -0.59141,0.53092l-0.94875,1.46832c-0.77407,1.8663 -1.70558,2.68325 -3.59301,3.40999c-3.42568,0 -5.5698,-1.52425 -6.71109,-4.56668c-0.06821,-0.18183 -1.16267,-3.07664 -0.81725,-3.26894c1.97647,-1.10035 5.01717,-0.00762 6.291,-2.93733c0.1747,-0.40181 0.23541,-1.03798 0.2202,-1.76336c0.64105,0.15205 1.26269,0.19398 1.78621,-0.13512c0.37986,-0.23879 0.59898,-0.5528 0.70997,-0.9095c1.35515,0.23887 2.52968,0.94756 3.31509,2.28868z" fill="#df6530" stroke="none" stroke-width="1"/><path d="M235.87113,176.70922c0.10012,-0.0296 0.1989,-0.06316 0.29618,-0.10095c0.40176,-0.15608 0.73979,-0.40973 1.04162,-0.71666c0.37275,-0.2026 0.75367,-0.38954 1.13917,-0.55801c-0.02176,0.22153 -0.07436,0.44162 -0.16381,0.65972c-0.38473,0.93797 -1.75245,1.10988 -3.06748,1.2657c0.24339,-0.18926 0.49534,-0.37291 0.75433,-0.54979z" fill="#df6530" stroke="none" stroke-width="1"/><path d="M233.07546,185.84605c-0.22359,-0.45716 -0.38719,-0.98021 -0.50202,-1.63187c0.14759,0.52529 0.31336,1.08795 0.50202,1.63187z" fill="#df6530" stroke="none" stroke-width="1"/><path d="M261.2426,184.68876c0.30701,1.34314 0.45327,2.78274 -0.09993,4.04944c-0.82177,0.10061 -1.66274,0.1823 -2.60009,0.31614c-1.14678,0.16375 -4.39529,1.18043 -5.38163,-0.10291c-1.01494,-1.32055 -0.69874,-4.9992 0.52561,-6.14171c1.82216,-1.70035 6.08954,-1.16253 8.28605,-1.20324c0.05917,-0.00109 0.11903,-0.00284 0.17946,-0.00498c-0.54862,1.20801 -1.11057,2.3275 -0.90945,3.08725z" fill="#c7c7c7" stroke="none" stroke-width="1"/><path d="M257.3019,192.43087l-0.10906,-0.04848l-0.26196,0.58941c-0.7415,-0.11986 -1.60823,-0.2389 -2.24764,-0.49561c0.88055,0.02469 1.78657,-0.07697 2.64829,-0.20212c-0.00988,0.05227 -0.01975,0.10453 -0.02963,0.1568z" fill="#c7c7c7" stroke="none" stroke-width="1"/><path d="M256.93678,197.01071c-0.77871,1.19096 -3.25227,1.37419 -4.71808,1.46581c-0.13742,0 -0.87033,0.13742 -0.96194,0.73291c-0.45455,1.62339 -1.92168,2.28023 -3.53686,2.59035c0.4598,-1.85897 1.05036,-4.79383 0.40419,-6.62368c-0.44718,-1.26637 -1.93435,-2.73567 -3.19855,-3.41815c0.4377,-0.15966 0.84524,-0.35999 1.21224,-0.61117c1.07807,-0.73782 1.4895,-1.76391 1.99287,-2.81985c0.23779,0.50742 0.51507,0.9885 0.81526,1.42969c0.82733,1.21589 1.7924,3.22826 2.77144,4.23335c1.45561,1.49434 3.24343,1.31857 4.99365,1.9286c0.17034,0.16227 0.37881,0.28489 0.61059,0.35304c-0.10053,0.249 -0.2262,0.49588 -0.38482,0.7391z" fill="#ffffff" stroke="none" stroke-width="1"/><path d="M249.75784,175.77199c0.39539,0.09996 0.76356,0.18854 1.07899,0.26751c0.17845,0.04467 0.35871,0.08777 0.54064,0.12924l-1.5093,0.1677c-0.03521,-0.18773 -0.07204,-0.37588 -0.11033,-0.56445z" fill="#ffffff" stroke="none" stroke-width="1"/><path d="M250.30702,179.92169c-0.00885,-0.20281 -0.02092,-0.40622 -0.03602,-0.61021l0.89697,-0.09612c-0.24943,0.20319 -0.54982,0.44861 -0.86095,0.70632z" fill="#ffffff" stroke="none" stroke-width="1"/><path d="M251.56319,176.31106c-0.00933,0.00416 -0.01866,0.00832 -0.028,0.01248l-0.0131,-0.12226c0.02069,0.00459 0.04141,0.00917 0.06215,0.01372z" fill="#ffffff" stroke="none" stroke-width="1"/><path d="M240.9503,202.91977c-0.77871,-0.13742 -1.55742,-0.54968 -2.33613,-0.6413c-1.19096,-0.13742 -1.60323,0.41226 -2.61097,0.54968c-0.01548,0.00141 -0.0309,0.00268 -0.04624,0.00382c-0.5804,-0.13691 -1.15975,-0.28431 -1.73636,-0.44172c-0.61764,-0.34309 -1.18975,-0.80179 -1.88192,-1.07371c-1.32838,-0.50388 -2.7942,-0.32064 -4.07678,-1.00775c-1.37419,-0.73291 -2.10711,-2.15291 -3.38968,-2.97743c-0.09118,-0.05802 -0.17899,-0.11718 -0.26366,-0.17759c-0.00396,-0.02487 -0.00786,-0.04977 -0.01169,-0.07469c1.41875,0.57942 2.9337,0.98171 4.6263,1.09109c1.6865,0.10899 3.92003,0.65439 5.54747,-0.09986c2.05984,-0.95467 3.29995,-3.5498 2.61461,-5.69562c0.01581,-0.00025 0.03165,-0.00048 0.0475,-0.0007c1.44539,0.60537 2.8816,1.26857 4.39029,1.66004c1.19333,0.30964 3.00604,0.58041 3.455,2.09076c0.37564,1.26368 -0.06915,3.44659 -0.38334,4.70693c-0.30391,0.56981 -0.52054,1.10531 -0.8071,1.57333c-1.0156,0.31741 -1.98633,0.69646 -3.1373,0.51473z" fill="#c7c7c7" stroke="none" stroke-width="1"/><path d="M217.63477,187.66618c-0.0458,-0.77871 -0.32064,-1.32838 -0.32064,-2.10711c0,-0.82452 -0.09162,-1.37419 -0.32064,-2.24453c-0.06224,-0.20539 -0.10333,-0.40994 -0.12708,-0.61398c0.20347,0.0639 0.40514,0.13424 0.60376,0.21355c0.98364,0.39278 1.37522,1.68594 2.31256,2.17913c0.10771,0.05667 0.21444,0.10898 0.32025,0.15711c0.27042,0.39329 0.72354,0.65117 1.2369,0.65117c0.27399,0 0.53081,-0.07345 0.75187,-0.20175c1.60972,-0.00831 3.03624,-0.9153 4.48176,-1.96891c0.91199,-0.79716 1.75596,-1.65123 2.34758,-2.55499c-0.34723,2.47778 0.69571,4.88042 2.18941,6.91233c-0.44135,0.12738 -1.04433,0.47543 -1.04433,1.42647c0,0.11781 0.00925,0.22637 0.0263,0.3264c-0.20034,0.00882 -0.39167,0.01433 -0.57156,0.01433c-2.05248,0.01035 -5.73083,0.18607 -7.78621,1.78913c-1.12924,-0.69774 -2.39937,-1.38666 -3.64548,-2.01975c-0.23076,-0.48896 -0.39607,-1.1122 -0.45444,-1.9586z" fill="#c7c7c7" stroke="none" stroke-width="1"/><path d="M233.67935,195.27583c-0.71167,0.1806 -1.60314,0.24069 -2.51507,0.2272c0.59405,-0.13936 1.18834,-0.28467 1.78333,-0.4414c0.36835,-0.09703 0.79663,-0.05055 1.19014,-0.07261c-0.12977,0.13968 -0.28375,0.24249 -0.4584,0.28681z" fill="#ffffff" stroke="none" stroke-width="1"/><path d="M224.44698,194.21507c-0.12669,-0.0816 -0.22251,-0.19451 -0.30348,-0.32265c0.00349,-0.00543 0.00698,-0.01086 0.01046,-0.01631c0.03157,0.00192 0.04927,0.00192 0.04927,0.00192h0.61358c0.06958,0 0.13894,-0.00047 0.20808,-0.00141c-0.15569,0.07021 -0.35982,0.18641 -0.53466,0.36588c-0.01447,-0.00904 -0.02889,-0.01818 -0.04325,-0.02743z" fill="#ffffff" stroke="none" stroke-width="1"/><path d="M217.54317,178.77968c0.36646,-1.96967 -0.09162,-3.5271 0,-5.54258c0.01552,-0.48129 0.07841,-0.92048 0.194,-1.33005c0.03689,-0.04444 0.07444,-0.088 0.11282,-0.13051c0.31223,0.29594 1.04043,0.7931 1.93557,0.12176c0.61142,-0.45856 0.67767,-0.99501 0.59556,-1.41093c0.35048,-0.13498 0.70827,-0.27423 1.03132,-0.4047c0.08346,1.35823 -0.7105,3.26942 0.04289,4.60745c0.43609,0.77451 1.34126,1.28184 2.28023,1.72337c-1.38921,0.6946 -3.6218,1.8109 -4.67364,2.33682c-0.47731,0.22627 -0.81612,0.6971 -0.85459,1.25065c-0.2782,-0.07861 -0.58946,-0.14014 -0.91482,-0.198c0.09059,-0.33759 0.17962,-0.67819 0.25067,-1.02328z" fill="#c7c7c7" stroke="none" stroke-width="1"/><path d="M230.28792,176.01197c0.52878,0.16403 1.12116,0.35234 1.74132,0.51258c-0.40055,0.43324 -0.79878,0.89503 -1.19856,1.38522c-0.3077,0.37729 -0.73746,0.67229 -1.07024,1.02797c0.08453,-1.08665 -0.32273,-2.22758 -1.47463,-3.41291c-0.10398,-0.107 -0.25943,-0.2125 -0.45024,-0.31746c0.85657,0.31069 1.69725,0.57036 2.45236,0.80461z" fill="#ffffff" stroke="none" stroke-width="1"/><path d="M224.25389,173.47803c0.39751,0.26717 0.81813,0.51025 1.25181,0.73292c-0.52876,-0.23055 -0.99385,-0.47195 -1.25181,-0.73292z" fill="#ffffff" stroke="none" stroke-width="1"/><path d="M224.81064,165.80581c0.07918,-0.02411 0.15705,-0.05361 0.23335,-0.08943c1.78492,-0.83783 2.07782,-2.79022 2.54319,-4.617c0.64317,-0.37073 1.33531,-0.8147 2.02278,-1.33517c0.52429,-0.0618 1.06205,-0.07574 1.60582,-0.05706c1.73401,0.68672 3.32505,1.55865 4.95271,2.51288c-0.45221,0.33434 -0.68845,0.96206 -0.56117,1.97855c-0.17083,0.70746 -0.11492,1.47834 -0.08927,2.24592c-0.02106,0.04489 -0.04171,0.08293 -0.06181,0.113c-2.57342,3.8492 -7.1936,1.25262 -10.81086,-0.0987c0.05674,-0.23043 0.11329,-0.45263 0.16526,-0.65299z" fill="#c7c7c7" stroke="none" stroke-width="1"/><path d="M235.14603,173.78745c-0.02377,0.00674 -0.04796,0.01322 -0.07258,0.01942c0.01037,-0.01331 0.0207,-0.02667 0.031,-0.0401c0.01705,0.00593 0.03411,0.01187 0.05117,0.01779c-0.00321,0.00102 -0.00641,0.00198 -0.00959,0.00289z" fill="#c7c7c7" stroke="none" stroke-width="1"/><path d="M238.76581,168.9367c-0.0006,-0.01001 -0.00102,-0.01991 -0.00127,-0.02971l0.04045,-0.00505c-0.01236,0.01973 -0.02482,0.03945 -0.03739,0.05917c-0.0007,-0.00809 -0.0013,-0.01622 -0.00179,-0.02441z" fill="#c7c7c7" stroke="none" stroke-width="1"/><path d="M243.79434,171.64508c-0.16945,0.00222 -0.3379,0.00496 -0.50468,0.00646c-0.09813,-0.3479 -0.18284,-0.66705 -0.21298,-0.932c-0.06367,-0.55988 -0.06606,-1.09002 -0.05593,-1.60312c0.07924,-0.01086 0.15651,-0.02792 0.2313,-0.05066c0.05942,0.90678 0.23037,1.78003 0.54228,2.57931z" fill="#ffffff" stroke="none" stroke-width="1"/><path d="M243.68423,158.90003c0.07608,0.00504 0.15151,0.00809 0.2263,0.00881c-0.06609,0.10256 -0.13288,0.20752 -0.20012,0.31461c-0.00403,-0.1102 -0.01213,-0.21836 -0.02618,-0.32342z" fill="#ffffff" stroke="none" stroke-width="1"/><path d="M251.62324,160.04483c2.24453,0.54968 3.25227,4.58066 4.9013,6.55033c1.64903,1.92387 3.84775,2.15291 4.44324,4.80969c0.08053,0.32215 0.11194,0.6414 0.12253,0.95776c-0.57927,0.28968 -1.13961,0.60918 -1.68777,0.84373c-0.68159,0.29165 -1.35991,0.56266 -2.03472,0.82351c-3.71394,0.10458 -7.59072,-0.6363 -9.95795,-2.27166c-2.53743,-1.75293 -0.63243,-8.03683 0.48326,-9.96664c0.63578,-0.63241 1.45757,-1.27267 2.38487,-1.8361c0.40591,-0.01976 0.82807,-0.02997 1.34525,0.08937z" fill="#c7c7c7" stroke="none" stroke-width="1"/><path d="M246.93251,176.74647c0.31616,1.6414 0.53519,3.79744 0.33903,5.88303c-0.376,0.20782 -0.59141,0.53092 -0.59141,0.53092l-0.94875,1.46832c-0.77407,1.8663 -1.70558,2.68325 -3.59301,3.40999c-3.42568,0 -5.5698,-1.52425 -6.71109,-4.56668c-0.06821,-0.18183 -1.16267,-3.07664 -0.81725,-3.26894c1.97647,-1.10035 5.01717,-0.00762 6.291,-2.93733c0.1747,-0.40181 0.23541,-1.03798 0.2202,-1.76336c0.64105,0.15205 1.26269,0.19398 1.78621,-0.13512c0.37986,-0.23879 0.59898,-0.5528 0.70997,-0.9095c1.35515,0.23887 2.52968,0.94756 3.31509,2.28868z" fill="#ffffff" stroke="none" stroke-width="1"/><path d="M235.87113,176.70922c0.10012,-0.0296 0.1989,-0.06316 0.29618,-0.10095c0.40176,-0.15608 0.73979,-0.40973 1.04162,-0.71666c0.37275,-0.2026 0.75367,-0.38954 1.13917,-0.55801c-0.02176,0.22153 -0.07436,0.44162 -0.16381,0.65972c-0.38473,0.93797 -1.75245,1.10988 -3.06748,1.2657c0.24339,-0.18926 0.49534,-0.37291 0.75433,-0.54979z" fill="#ffffff" stroke="none" stroke-width="1"/><path d="M233.07546,185.84605c-0.22359,-0.45716 -0.38719,-0.98021 -0.50202,-1.63187c0.14759,0.52529 0.31336,1.08795 0.50202,1.63187z" fill="#ffffff" stroke="none" stroke-width="1"/><path d="M260.23488,186.20036c-0.27023,1.17631 -0.86593,2.07128 -1.62054,2.84381c-0.02386,0.00335 -0.04777,0.00675 -0.07175,0.01017c-1.14678,0.16375 -4.39529,1.18043 -5.38163,-0.10291c-1.01494,-1.32055 -0.69874,-4.9992 0.52561,-6.14171c1.36667,-1.27532 4.1089,-1.29155 6.32121,-1.23716c0.16498,1.56577 0.4684,3.52478 0.2271,4.6278z" fill="#c7c7c7" stroke="none" stroke-width="1"/><path d="M246.13778,191.14678c1.07807,-0.73782 1.4895,-1.76391 1.99287,-2.81985c0.23779,0.50742 0.51507,0.9885 0.81526,1.42969c0.82733,1.21589 1.7924,3.22826 2.77144,4.23335c0.26605,0.27313 0.54322,0.49048 0.82921,0.66701c-1.19727,1.51889 -2.29874,2.95584 -4.12978,3.81954c-0.02815,0.01359 -0.05625,0.02724 -0.08431,0.04095c0.12888,-1.20835 0.11835,-2.41612 -0.20838,-3.34138c-0.44718,-1.26637 -1.93435,-2.73567 -3.19855,-3.41815c0.4377,-0.15966 0.84524,-0.35999 1.21224,-0.61117z" fill="#ffffff" stroke="none" stroke-width="1"/><path d="M249.75784,175.77199c0.39539,0.09996 0.76356,0.18854 1.07899,0.26751c0.17845,0.04467 0.35871,0.08777 0.54064,0.12924l-1.5093,0.1677c-0.03521,-0.18773 -0.07204,-0.37588 -0.11033,-0.56445z" fill="#ffffff" stroke="none" stroke-width="1"/><path d="M250.30702,179.92169c-0.00885,-0.20281 -0.02092,-0.40622 -0.03602,-0.61021l0.89697,-0.09612c-0.24943,0.20319 -0.54982,0.44861 -0.86095,0.70632z" fill="#ffffff" stroke="none" stroke-width="1"/><path d="M251.56319,176.31106c-0.00933,0.00416 -0.01866,0.00832 -0.028,0.01248l-0.0131,-0.12226c0.02069,0.00459 0.04141,0.00917 0.06215,0.01372z" fill="#ffffff" stroke="none" stroke-width="1"/><path d="M240.35483,201.59138c-1.69484,0 -4.07678,-2.29033 -5.6342,-2.70259c-1.88235,-0.45013 -5.37313,0.30608 -6.81486,-0.86637c0.42754,0.0686 0.86615,0.11858 1.3174,0.14775c1.6865,0.10899 3.92003,0.65439 5.54747,-0.09986c2.05984,-0.95467 3.29995,-3.5498 2.61461,-5.69562c0.01581,-0.00025 0.03165,-0.00048 0.0475,-0.0007c1.44539,0.60537 2.8816,1.26857 4.39029,1.66004c1.19333,0.30964 3.00604,0.58041 3.455,2.09076c0.3264,1.09803 0.03336,2.8901 -0.25519,4.16789c-1.42457,0.72766 -2.90353,1.29871 -4.66801,1.29871z" fill="#ffffff" stroke="none" stroke-width="1"/><path d="M221.39092,189.59007c-1.0767,-1.60359 -1.43162,-2.96659 -1.5174,-4.44996c0.07697,0.03895 0.15345,0.07568 0.22945,0.11024c0.27042,0.39329 0.72354,0.65117 1.2369,0.65117c0.27399,0 0.53081,-0.07345 0.75187,-0.20175c1.60972,-0.00831 3.03624,-0.9153 4.48176,-1.96891c0.91199,-0.79716 1.75596,-1.65123 2.34758,-2.55499c-0.34723,2.47778 0.69571,4.88042 2.18941,6.91233c-0.44135,0.12738 -1.04433,0.47543 -1.04433,1.42647c0,0.11781 0.00925,0.22637 0.0263,0.3264c-0.20034,0.00882 -0.39167,0.01433 -0.57156,0.01433c-1.76696,0.00891 -4.73889,0.14039 -6.84295,1.19959c-0.43032,-0.38761 -0.83899,-0.79926 -1.28703,-1.46491z" fill="#c7c7c7" stroke="none" stroke-width="1"/><path d="M233.67935,195.27583c-0.71167,0.1806 -1.60314,0.24069 -2.51507,0.2272c0.59405,-0.13936 1.18834,-0.28467 1.78333,-0.4414c0.36835,-0.09703 0.79663,-0.05055 1.19014,-0.07261c-0.12977,0.13968 -0.28375,0.24249 -0.4584,0.28681z" fill="#ffffff" stroke="none" stroke-width="1"/><path d="M219.42124,173.83262c0.39613,-1.23502 1.1479,-2.36336 1.99598,-3.42721c-0.03432,1.32612 -0.65733,3.0496 0.03811,4.28471c0.43609,0.77451 1.34126,1.28184 2.28023,1.72337c-1.11841,0.55921 -2.78347,1.39173 -3.93895,1.96948c-0.30454,-1.58142 -0.85724,-3.10468 -0.37536,-4.55034z" fill="#c7c7c7" stroke="none" stroke-width="1"/><path d="M230.83068,177.90976c-0.3077,0.37729 -0.73746,0.67229 -1.07024,1.02797c0.08453,-1.08665 -0.32273,-2.22758 -1.47463,-3.41291c-0.10398,-0.107 -0.25943,-0.2125 -0.45024,-0.31746c0.85657,0.31069 1.69725,0.57036 2.45236,0.80461c0.52878,0.16403 1.12116,0.35234 1.74132,0.51258c-0.40055,0.43324 -0.79878,0.89503 -1.19856,1.38522z" fill="#ffffff" stroke="none" stroke-width="1"/><path d="M224.25389,173.47803c0.39751,0.26717 0.81813,0.51025 1.25181,0.73292c-0.52876,-0.23055 -0.99385,-0.47195 -1.25181,-0.73292z" fill="#ffffff" stroke="none" stroke-width="1"/><path d="M233.48385,162.24355c0.508,-0.20109 0.96955,-0.46575 1.41119,-0.75388c0.42412,0.23658 0.84753,0.48065 1.27345,0.73034c-0.45221,0.33434 -0.68845,0.96206 -0.56117,1.97855c-0.17083,0.70746 -0.11492,1.47834 -0.08927,2.24592c-0.02106,0.04489 -0.04171,0.08293 -0.06181,0.113c-2.5359,3.79307 -7.0593,1.32696 -10.65201,-0.03882c2.29823,-2.08674 5.78818,-3.11051 8.67962,-4.27511z" fill="#c7c7c7" stroke="none" stroke-width="1"/><path d="M235.14603,173.78745c-0.02377,0.00674 -0.04796,0.01322 -0.07258,0.01942c0.01037,-0.01331 0.0207,-0.02667 0.031,-0.0401c0.01705,0.00593 0.03411,0.01187 0.05117,0.01779c-0.00321,0.00102 -0.00641,0.00198 -0.00959,0.00289z" fill="#c7c7c7" stroke="none" stroke-width="1"/><path d="M238.76581,168.9367c-0.0006,-0.01001 -0.00102,-0.01991 -0.00127,-0.02971l0.04045,-0.00505c-0.01236,0.01973 -0.02482,0.03945 -0.03739,0.05917c-0.0007,-0.00809 -0.0013,-0.01622 -0.00179,-0.02441z" fill="#c7c7c7" stroke="none" stroke-width="1"/><path d="M243.79434,171.64508c-0.16945,0.00222 -0.3379,0.00496 -0.50468,0.00646c-0.09813,-0.3479 -0.18284,-0.66705 -0.21298,-0.932c-0.06367,-0.55988 -0.06606,-1.09002 -0.05593,-1.60312c0.07924,-0.01086 0.15651,-0.02792 0.2313,-0.05066c0.05942,0.90678 0.23037,1.78003 0.54228,2.57931z" fill="#ffffff" stroke="none" stroke-width="1"/><path d="M252.7226,163.66354c1.69484,1.37419 1.51161,3.16066 2.70259,5.03872c0.82452,1.28258 3.06904,2.29033 3.84775,3.93936c0.08221,0.17127 0.15571,0.34638 0.22134,0.52475c-0.03062,0.01358 -0.0612,0.0269 -0.09174,0.03997c-0.68159,0.29165 -1.35991,0.56266 -2.03472,0.82351c-3.71394,0.10458 -7.59072,-0.6363 -9.95795,-2.27166c-2.48218,-1.71476 -0.71328,-7.76537 0.40931,-9.83451c1.78641,0.44202 3.37672,0.5185 4.90342,1.73985z" fill="#c7c7c7" stroke="none" stroke-width="1"/><path d="M246.93251,176.74647c0.31616,1.6414 0.53519,3.79744 0.33903,5.88303c-0.376,0.20782 -0.59141,0.53092 -0.59141,0.53092l-0.94875,1.46832c-0.77407,1.8663 -1.70558,2.68325 -3.59301,3.40999c-3.42568,0 -5.5698,-1.52425 -6.71109,-4.56668c-0.06821,-0.18183 -1.16267,-3.07664 -0.81725,-3.26894c1.97647,-1.10035 5.01717,-0.00762 6.291,-2.93733c0.1747,-0.40181 0.23541,-1.03798 0.2202,-1.76336c0.64105,0.15205 1.26269,0.19398 1.78621,-0.13512c0.37986,-0.23879 0.59898,-0.5528 0.70997,-0.9095c1.35515,0.23887 2.52968,0.94756 3.31509,2.28868z" fill="#ffffff" stroke="none" stroke-width="1"/><path d="M235.87113,176.70922c0.10012,-0.0296 0.1989,-0.06316 0.29618,-0.10095c0.40176,-0.15608 0.73979,-0.40973 1.04162,-0.71666c0.37275,-0.2026 0.75367,-0.38954 1.13917,-0.55801c-0.02176,0.22153 -0.07436,0.44162 -0.16381,0.65972c-0.38473,0.93797 -1.75245,1.10988 -3.06748,1.2657c0.24339,-0.18926 0.49534,-0.37291 0.75433,-0.54979z" fill="#ffffff" stroke="none" stroke-width="1"/><path d="M233.07546,185.84605c-0.22359,-0.45716 -0.38719,-0.98021 -0.50202,-1.63187c0.14759,0.52529 0.31336,1.08795 0.50202,1.63187z" fill="#ffffff" stroke="none" stroke-width="1"/><path d="M253.16095,188.95142c-1.01494,-1.32055 -0.69874,-4.9992 0.52561,-6.14171c0.9417,-0.87875 2.53649,-1.15971 4.161,-1.23168c-0.21709,2.91158 -1.11631,5.63313 -2.53838,8.00537c-0.90134,0.0434 -1.72906,-0.0866 -2.14823,-0.63198z" fill="#c7c7c7" stroke="none" stroke-width="1"/><path d="M246.13778,191.14678c1.07807,-0.73782 1.4895,-1.76391 1.99287,-2.81985c0.23779,0.50742 0.51507,0.9885 0.81526,1.42969c0.81443,1.19693 1.76234,3.16571 2.72566,4.18562c-1.01116,0.8873 -2.12107,1.66479 -3.31111,2.31384c-0.0442,-0.3872 -0.12034,-0.75141 -0.23637,-1.07998c-0.44718,-1.26637 -1.93435,-2.73567 -3.19855,-3.41815c0.4377,-0.15966 0.84524,-0.35999 1.21224,-0.61117z" fill="#ffffff" stroke="none" stroke-width="1"/><path d="M249.75784,175.77199c0.39539,0.09996 0.76356,0.18854 1.07899,0.26751c0.17845,0.04467 0.35871,0.08777 0.54064,0.12924l-1.5093,0.1677c-0.03521,-0.18773 -0.07204,-0.37588 -0.11033,-0.56445z" fill="#ffffff" stroke="none" stroke-width="1"/><path d="M250.30702,179.92169c-0.00885,-0.20281 -0.02092,-0.40622 -0.03602,-0.61021l0.89697,-0.09612c-0.24943,0.20319 -0.54982,0.44861 -0.86095,0.70632z" fill="#ffffff" stroke="none" stroke-width="1"/><path d="M251.56319,176.31106c-0.00933,0.00416 -0.01866,0.00832 -0.028,0.01248l-0.0131,-0.12226c0.02069,0.00459 0.04141,0.00917 0.06215,0.01372z" fill="#ffffff" stroke="none" stroke-width="1"/><path d="M222.18669,185.69823c1.571,-0.04257 2.96976,-0.93453 4.38681,-1.96738c0.91199,-0.79716 1.75596,-1.65123 2.34758,-2.55499c-0.34723,2.47778 0.69571,4.88042 2.18941,6.91233c-0.44135,0.12738 -1.04433,0.47543 -1.04433,1.42647c0,0.11781 0.00925,0.22637 0.0263,0.3264c-0.20034,0.00882 -0.39167,0.01433 -0.57156,0.01433c-1.30812,0.0066 -3.27666,0.08037 -5.06455,0.54801c-0.9684,-1.43649 -1.73809,-3.01802 -2.26966,-4.70518z" fill="#c7c7c7" stroke="none" stroke-width="1"/><path d="M239.62193,198.47654c-1.56637,0 -3.08672,-0.19705 -4.53761,-0.5677c1.8696,-1.06115 2.95073,-3.49962 2.30093,-5.53415c0.01581,-0.00025 0.03165,-0.00048 0.0475,-0.0007c1.44539,0.60537 2.8816,1.26857 4.39029,1.66004c1.19333,0.30964 3.00604,0.58041 3.455,2.09076c0.11857,0.39888 0.1554,0.88933 0.14039,1.41345c-1.82136,0.60863 -3.77043,0.93831 -5.7965,0.93831z" fill="#c7c7c7" stroke="none" stroke-width="1"/><path d="M233.67935,195.27583c-0.71167,0.1806 -1.60314,0.24069 -2.51507,0.2272c0.59405,-0.13936 1.18834,-0.28467 1.78333,-0.4414c0.36835,-0.09703 0.79663,-0.05055 1.19014,-0.07261c-0.12977,0.13968 -0.28375,0.24249 -0.4584,0.28681z" fill="#ffffff" stroke="none" stroke-width="1"/><path d="M221.99536,175.35052c0.47135,0.42809 1.09786,0.76092 1.74019,1.06296c-0.62265,0.31133 -1.41473,0.70736 -2.19398,1.09699c0.10841,-0.73514 0.26058,-1.45604 0.4538,-2.15995z" fill="#c7c7c7" stroke="none" stroke-width="1"/><path d="M230.28792,176.01197c0.52878,0.16403 1.12116,0.35234 1.74132,0.51258c-0.40055,0.43324 -0.79878,0.89503 -1.19856,1.38522c-0.3077,0.37729 -0.73746,0.67229 -1.07024,1.02797c0.08453,-1.08665 -0.32273,-2.22758 -1.47463,-3.41291c-0.10398,-0.107 -0.25943,-0.2125 -0.45024,-0.31746c0.85657,0.31069 1.69725,0.57036 2.45236,0.80461z" fill="#ffffff" stroke="none" stroke-width="1"/><path d="M224.25389,173.47803c0.39751,0.26717 0.81813,0.51025 1.25181,0.73292c-0.52876,-0.23055 -0.99385,-0.47195 -1.25181,-0.73292z" fill="#ffffff" stroke="none" stroke-width="1"/><path d="M235.60732,164.19857c-0.17083,0.70746 -0.11492,1.47834 -0.08927,2.24592c-0.02106,0.04489 -0.04171,0.08293 -0.06181,0.113c-2.10527,3.14896 -5.58035,1.98403 -8.75552,0.71612c2.52209,-2.52113 5.77745,-4.30875 9.4187,-5.01546c-0.42004,0.34296 -0.63469,0.96136 -0.5121,1.94042z" fill="#c7c7c7" stroke="none" stroke-width="1"/><path d="M235.14603,173.78745c-0.02377,0.00674 -0.04796,0.01322 -0.07258,0.01942c0.01037,-0.01331 0.0207,-0.02667 0.031,-0.0401c0.01705,0.00593 0.03411,0.01187 0.05117,0.01779c-0.00321,0.00102 -0.00641,0.00198 -0.00959,0.00289z" fill="#c7c7c7" stroke="none" stroke-width="1"/><path d="M238.76581,168.9367c-0.0006,-0.01001 -0.00102,-0.01991 -0.00127,-0.02971l0.04045,-0.00505c-0.01236,0.01973 -0.02482,0.03945 -0.03739,0.05917c-0.0007,-0.00809 -0.0013,-0.01622 -0.00179,-0.02441z" fill="#c7c7c7" stroke="none" stroke-width="1"/><path d="M243.79434,171.64508c-0.16945,0.00222 -0.3379,0.00496 -0.50468,0.00646c-0.09813,-0.3479 -0.18284,-0.66705 -0.21298,-0.932c-0.06367,-0.55988 -0.06606,-1.09002 -0.05593,-1.60312c0.07924,-0.01086 0.15651,-0.02792 0.2313,-0.05066c0.05942,0.90678 0.23037,1.78003 0.54228,2.57931z" fill="#ffffff" stroke="none" stroke-width="1"/><path d="M247.40987,171.75819c-1.99763,-1.38002 -1.2419,-5.56831 -0.28557,-8.22945c4.50181,2.0291 8.0341,5.8281 9.71014,10.5103c-3.54764,0.02253 -7.17046,-0.72365 -9.42457,-2.28085z" fill="#c7c7c7" stroke="none" stroke-width="1"/><path d="M246.93251,176.74647c0.31616,1.6414 0.53519,3.79744 0.33903,5.88303c-0.376,0.20782 -0.59141,0.53092 -0.59141,0.53092l-0.94875,1.46832c-0.77407,1.8663 -1.70558,2.68325 -3.59301,3.40999c-3.42568,0 -5.5698,-1.52425 -6.71109,-4.56668c-0.06821,-0.18183 -1.16267,-3.07664 -0.81725,-3.26894c1.97647,-1.10035 5.01717,-0.00762 6.291,-2.93733c0.1747,-0.40181 0.23541,-1.03798 0.2202,-1.76336c0.64105,0.15205 1.26269,0.19398 1.78621,-0.13512c0.37986,-0.23879 0.59898,-0.5528 0.70997,-0.9095c1.35515,0.23887 2.52968,0.94756 3.31509,2.28868z" fill="#c7c7c7" stroke="none" stroke-width="1"/><path d="M235.87113,176.70922c0.10012,-0.0296 0.1989,-0.06316 0.29618,-0.10095c0.40176,-0.15608 0.73979,-0.40973 1.04162,-0.71666c0.37275,-0.2026 0.75367,-0.38954 1.13917,-0.55801c-0.02176,0.22153 -0.07436,0.44162 -0.16381,0.65972c-0.38473,0.93797 -1.75245,1.10988 -3.06748,1.2657c0.24339,-0.18926 0.49534,-0.37291 0.75433,-0.54979z" fill="#c7c7c7" stroke="none" stroke-width="1"/><path d="M233.07546,185.84605c-0.22359,-0.45716 -0.38719,-0.98021 -0.50202,-1.63187c0.14759,0.52529 0.31336,1.08795 0.50202,1.63187z" fill="#c7c7c7" stroke="none" stroke-width="1"/></g></g></svg>