<svg version="1.1" xmlns="http://www.w3.org/2000/svg" xmlns:xlink="http://www.w3.org/1999/xlink" width="48.58332" height="49.58124" viewBox="0,0,48.58332,49.58124"><g transform="translate(-215.63822,-155.22701)"><g data-paper-data="{&quot;isPaintingLayer&quot;:true}" fill-rule="nonzero" stroke-linecap="butt" stroke-linejoin="miter" stroke-miterlimit="10" stroke-dasharray="" stroke-dashoffset="0" style="mix-blend-mode: normal"><path d="M256.2689,189.38453c-0.62145,0.988 -1.32788,1.90264 -2.11067,2.7434" fill="none" stroke="#c2b59b" stroke-width="0.5"/><path d="M250.28307,195.32663c-2.07765,1.31502 -4.43845,2.29907 -7.00225,2.94717" fill="none" stroke="#c2b59b" stroke-width="0.5"/><path d="M232.64514,204.48265c-0.03655,-0.26054 -0.11732,-0.44229 -0.11732,-0.44229c-0.2727,-0.61358 -0.5454,-1.22715 -0.8181,-1.84073l0.12928,-0.41342c0,0 0,-1.5 -1.5,-1.5c-0.32434,0 -0.57855,0.07013 -0.7778,0.18007c-0.02992,-0.41673 0.04487,-0.8329 0.25819,-1.2421c0.84963,-1.62983 5.6037,-2.80448 7.65361,-1.78027c0.11556,0.46662 0.44955,0.84706 0.88721,1.02658c0.16889,0.69648 -0.11077,1.5504 -0.11303,2.29309c-0.00276,0.90919 -0.00342,1.81839 -0.00317,2.7276c-1.69834,1.11625 -3.80369,1.73701 -5.59887,0.99146z" fill="#df6530" stroke="none" stroke-width="1"/><path d="M221.32976,197.31607c0.21906,-0.01849 0.43879,-0.04371 0.65841,-0.07544c-0.11407,0.07003 -0.25041,0.16958 -0.37477,0.30227c-0.09785,-0.0713 -0.19245,-0.147 -0.28364,-0.22683z" fill="#df6530" stroke="none" stroke-width="1"/><path d="M230.65778,194.97034c-0.11778,0.04763 -0.23401,0.09709 -0.3485,0.14837c-0.03174,-0.0799 -0.06864,-0.15813 -0.11026,-0.23455c0.15074,0.02943 0.3037,0.05817 0.45876,0.08617z" fill="#df6530" stroke="none" stroke-width="1"/><path d="M226.82946,198.67304c-0.05957,-0.02058 -0.11961,-0.03976 -0.18014,-0.05766c0.021,-0.04118 0.04184,-0.08249 0.06253,-0.12392c0.07337,-0.03756 0.14612,-0.07559 0.21814,-0.11409c-0.03666,0.09892 -0.07015,0.19748 -0.10053,0.29567z" fill="#df6530" stroke="none" stroke-width="1"/><path d="M240.47466,195.51714c-0.05345,0.13261 -0.1025,0.26942 -0.1472,0.40995c-0.12066,-0.13411 -0.25071,-0.26033 -0.3893,-0.37882c0.17876,-0.00911 0.35762,-0.01948 0.5365,-0.03114z" fill="#df6530" stroke="none" stroke-width="1"/><path d="M251.62325,201.45394c-0.02948,0.02948 -0.0597,0.05978 -0.09075,0.09074c-0.11915,0.02116 -0.19263,0.04566 -0.19263,0.04566c-1.84501,0.61822 -3.64554,1.22049 -5.07405,1.20768c-0.60194,-0.14333 -1.15047,-0.30416 -1.69914,-0.46358c-0.80292,-0.55431 -1.28117,-1.6618 -1.27423,-3.61611c0.0013,-0.3647 -0.11414,-2.02481 0.18903,-2.49034c0.88194,-1.35423 2.47786,-1.12716 3.83316,-1.12281c3.31468,0.01065 4.65386,0.427 6.66837,2.23089c-0.97232,1.20696 -1.24359,3.04463 -2.35976,4.11787z" fill="#df6530" stroke="none" stroke-width="1"/><path d="M254.68688,189.34124c1.00131,-1.48415 1.70924,-3.60613 2.14072,-5.5747c0.27939,0.08972 0.5088,0.08972 0.5088,0.08972h0.20453c1.05974,0 2.12539,0.10898 3.17921,-0.0029c0.23462,-0.02491 0.52594,-0.41973 0.66875,-0.23192c0.59921,0.78805 -0.06763,2.02843 0.27515,2.95717c0.26581,0.72018 0.64353,1.88833 0.824,3.08891c-0.02213,1.42195 -0.52541,2.8138 -1.4749,3.90487c-0.61877,-0.05271 -1.35856,-0.41007 -1.97256,-0.44305c-2.12833,-0.11432 -4.34242,-0.77978 -6.43734,-1.52927c0.80397,-0.65503 1.50736,-1.40467 2.08364,-2.25884z" fill="#df6530" stroke="none" stroke-width="1"/><path d="M263.74856,181.72299c0.16345,-0.107 0.32138,-0.25155 0.47299,-0.42541c-0.08491,0.39538 -0.20777,0.78014 -0.36693,1.14599c-0.05913,-0.26448 -0.12148,-0.49581 -0.18825,-0.66813c0.02752,-0.01712 0.05491,-0.0346 0.08219,-0.05246z" fill="#df6530" stroke="none" stroke-width="1"/><path d="M219.74189,193.57521c-0.0458,-1.60323 0.18322,-3.34387 -0.73291,-4.80969c-0.5168,-0.82687 -1.03358,-1.49826 -1.58936,-2.20907c0.13994,-0.63453 0.33923,-1.24693 0.60544,-1.81859c2.52542,0.86372 5.58185,1.12786 7.93789,-0.14322c0.01445,0.11285 0.02909,0.22539 0.04384,0.33756c-0.62256,0.56079 -0.39542,1.46933 -0.39542,1.46933c0.38972,1.55889 1.49012,3.99485 0.41497,5.54856c-1.19458,1.72629 -4.00541,2.55361 -6.24313,2.30757c-0.02732,-0.22341 -0.04132,-0.45134 -0.04132,-0.68246z" fill="#df6530" stroke="none" stroke-width="1"/><path d="M215.71415,181.62124c0.09836,0.19659 0.20134,0.39266 0.30909,0.58839l-0.28078,0.42505c-0.0327,0.05845 -0.0652,0.11855 -0.09746,0.18024c-0.02038,-0.39696 0.00587,-0.79462 0.06915,-1.19368z" fill="#df6530" stroke="none" stroke-width="1"/><path d="M225.69399,162.4709c1.82467,-2.84055 5.92132,-2.94261 8.85639,-3.6025c0.17171,-0.03861 1.94728,-0.42883 3.00575,-0.63411c-0.46011,1.20614 -0.53481,2.67891 -0.0768,4.46345c0.05726,0.2231 0.13304,0.44347 0.225,0.66121c0.08358,1.03351 0.15633,2.3683 -0.32651,2.89012c-1.67133,1.80627 -6.16407,2.23154 -8.42525,2.78949l-0.8181,0.20453c0,0 -0.55471,0.13868 -0.89355,0.58727c-0.29782,-0.00192 -0.59858,0.00334 -0.88973,-0.00692c-0.89137,-2.35698 -1.86458,-5.47292 -0.65719,-7.35252z" fill="#df6530" stroke="none" stroke-width="1"/><path d="M224.23041,172.65666c0,0 0.52669,1.40449 1.93118,0.87781c0.58343,-0.21879 0.83362,-0.58905 0.92675,-0.94719c0.07237,0.01873 0.14514,0.03822 0.21831,0.05857c0.6421,0.17857 -0.57311,1.2198 -0.69337,1.87532c-0.00569,0.031 -0.01091,0.06263 -0.01569,0.09486c-0.8299,1.8513 -1.03961,3.9565 -0.97649,6.0898c-1.33354,1.78765 -3.78387,2.29804 -6.23723,1.47862c-1.93972,-3.0432 -2.44341,-5.83955 -2.47526,-9.4409c-0.0004,-0.0449 -0.01296,-0.16992 -0.02677,-0.34248c1.01119,-0.98381 2.64459,-2.27757 3.11054,-4.16251c0.14198,-0.08549 0.28412,-0.16943 0.42578,-0.25153c0.09498,0.39732 0.2253,0.78007 0.40235,1.14061c0.8628,1.757 1.90781,2.41526 3.12893,2.77811c0.09577,0.25748 0.19,0.50814 0.28096,0.75089z" fill="#df6530" stroke="none" stroke-width="1"/><path d="M241.86313,168.1832c-0.80029,0.06015 -1.59793,0.14172 -2.3845,0.22587c0.06387,-0.07015 0.12512,-0.14194 0.18362,-0.21543c0.34121,-0.4287 0.57194,-0.89116 0.72624,-1.37469c0.48612,0.46642 0.98906,0.92067 1.47464,1.36425z" fill="#df6530" stroke="none" stroke-width="1"/><path d="M240.16989,155.22701c-0.21404,0.13205 -0.41968,0.27215 -0.61588,0.42061c-0.21306,-0.03193 -0.45589,-0.05921 -0.7134,-0.08201c0.4295,-0.16046 0.8807,-0.28191 1.32928,-0.3386z" fill="#df6530" stroke="none" stroke-width="1"/><path d="M260.14328,172.54998c0.17934,2.01759 1.80688,2.58698 2.94968,3.94181c-0.20902,0.96611 -0.64602,2.4258 -1.12432,2.81628c-1.24663,1.01773 -4.54047,-1.50624 -5.31673,-2.40694c-0.18075,-0.20973 -0.34556,-0.45489 -0.49376,-0.72812c-0.17684,-0.65762 -0.40005,-1.29261 -0.68047,-1.89846c-0.52481,-2.33911 -0.27472,-5.26179 0.93798,-6.67406c0.88342,-1.02881 2.46656,-1.0982 3.62694,-1.35474c0.19163,-0.02127 0.38264,-0.04133 0.57308,-0.06039c0.45729,1.97908 -0.68358,4.25298 -0.4724,6.36462z" fill="#df6530" stroke="none" stroke-width="1"/><path d="M247.83552,168.4397c0.60933,0.0857 1.22097,0.15993 1.82789,0.18107c-0.05285,0.10503 -0.10403,0.2119 -0.15348,0.32065c-0.54536,-0.21127 -1.10468,-0.37587 -1.67441,-0.50171z" fill="#df6530" stroke="none" stroke-width="1"/><path d="M252.29234,170.48624c-0.05535,-0.03815 -0.11136,-0.07593 -0.16805,-0.11336c0.07452,-0.22423 0.16504,-0.43894 0.26991,-0.64481c-0.04154,0.24969 -0.07545,0.50276 -0.10186,0.75817z" fill="#df6530" stroke="none" stroke-width="1"/><path d="" fill="#df6530" stroke="none" stroke-width="1"/><path d="M243.69872,157.57126c1.51161,1.96967 3.34387,0.27484 5.17615,0.0458c2.24453,-0.27484 4.12258,1.00775 4.58066,2.93162c0.17142,0.68572 0.38295,1.17094 0.82215,1.68076c-0.03263,0.06517 -0.06252,0.12063 -0.08884,0.16505c-2.13578,4.13523 -5.72102,2.73683 -9.53304,2.71329h-0.40905c0,0 -0.61811,0 -1.06076,0.39678c-1.05631,-0.95776 -2.06972,-1.97146 -2.54967,-2.88633c-0.00171,-0.10244 -0.00271,-0.2043 -0.00271,-0.30549c-0.00835,-1.23105 0.54382,-3.0581 0.43132,-4.58162c0.65431,-0.38067 1.57512,-0.48847 2.3484,-0.573c0.08711,0.13722 0.18063,0.27565 0.28539,0.41314z" fill="#df6530" stroke="none" stroke-width="1"/><path d="M252.21394,187.64283c-1.07662,1.64508 -3.55586,2.6062 -5.28566,3.35648c-4.5153,1.95846 -11.29001,1.85013 -16.08602,1.07883c-1.79838,-1.88631 -1.55056,-4.55494 -1.87887,-7.04985c-0.12406,-0.94278 -0.2637,-2.05415 -0.33786,-3.21166c1.04289,-2.1004 0.56282,-4.11974 0.8637,-6.29791c0.03099,-0.05789 0.06293,-0.11497 0.09584,-0.17122c1.19475,-2.04223 2.63028,-2.36778 4.69238,-3.01744c4.20295,-1.32412 11.83845,-2.60965 15.70507,0.24491c1.25415,0.70433 2.09842,1.63516 2.66556,2.71113c0.18762,0.72607 0.43573,1.41462 0.74136,2.03784c0.35532,1.51155 0.40482,3.17255 0.40171,4.8278v0.20453c0,0 0,0.31839 0.14669,0.6618c-0.34289,1.63001 -0.92876,3.40982 -1.72389,4.62477z" fill="#df6530" stroke="none" stroke-width="1"/><path d="M236.0032,202.82815c-1.51161,0.13742 -2.38195,-1.00775 -3.66452,-1.51161c-0.21288,-0.08075 -0.42929,-0.14385 -0.64791,-0.19572c-0.17239,-0.40097 -0.54526,-0.83461 -1.35177,-0.83461c-0.32434,0 -0.57855,0.07013 -0.7778,0.18007c-0.02992,-0.41673 0.04487,-0.8329 0.25819,-1.2421c0.84963,-1.62983 5.6037,-2.80448 7.65361,-1.78027c0.11556,0.46662 0.44955,0.84706 0.88721,1.02658c0.16889,0.69648 -0.11077,1.5504 -0.11303,2.29309c-0.00151,0.49767 -0.00239,0.99534 -0.00284,1.49302c-0.92004,0.00144 -1.34531,0.44939 -2.24115,0.57155z" fill="#ea9b1f" stroke="none" stroke-width="1"/><path d="M226.72544,199.05831c-0.06628,-0.06932 -0.13207,-0.13915 -0.19768,-0.20915c0.0627,-0.11824 0.12404,-0.23744 0.1841,-0.3577c0.07337,-0.03756 0.14612,-0.07559 0.21814,-0.11409c-0.08486,0.22895 -0.15266,0.45595 -0.20456,0.68094z" fill="#ea9b1f" stroke="none" stroke-width="1"/><path d="M230.65778,194.97034c-0.11778,0.04763 -0.23401,0.09709 -0.3485,0.14837c-0.03174,-0.0799 -0.06864,-0.15813 -0.11026,-0.23455c0.15074,0.02943 0.3037,0.05817 0.45876,0.08617z" fill="#ea9b1f" stroke="none" stroke-width="1"/><path d="M240.47466,195.51714c-0.05345,0.13261 -0.1025,0.26942 -0.1472,0.40995c-0.12066,-0.13411 -0.25071,-0.26033 -0.3893,-0.37882c0.17876,-0.00911 0.35762,-0.01948 0.5365,-0.03114z" fill="#ea9b1f" stroke="none" stroke-width="1"/><path d="M252.2187,198.47652c-0.13742,0 -0.87033,0.13742 -0.96194,0.73291c-0.6413,2.29033 -3.29807,2.65679 -5.54258,2.84001c-0.42519,0.03448 -0.82732,0.12373 -1.21869,0.23376c-0.75992,-0.57009 -1.20979,-1.66902 -1.20305,-3.56488c0.0013,-0.3647 -0.11414,-2.02481 0.18903,-2.49034c0.88194,-1.35423 2.47786,-1.12716 3.83316,-1.12281c3.76596,0.0121 4.98189,0.54789 7.53542,3.04731c-0.90289,0.20876 -1.89447,0.27797 -2.63136,0.32403z" fill="#ea9b1f" stroke="none" stroke-width="1"/><path d="M257.42807,195.97981c-0.04021,0.12261 -0.08573,0.24485 -0.13745,0.36655c-0.1451,-0.1464 -0.29444,-0.30063 -0.44757,-0.45995c0.19507,0.03418 0.39011,0.0654 0.58502,0.0934z" fill="#ea9b1f" stroke="none" stroke-width="1"/><path d="M261.2426,184.68876c0.36646,1.60323 0.50388,3.34387 -0.50388,4.76388c-0.59549,0.82452 -1.42,0.77871 -2.01549,1.42c-0.57383,0.62599 -0.7714,1.3576 -0.87086,2.1397c-1.7549,-0.2463 -3.5416,-0.80137 -5.24913,-1.41226c0.80397,-0.65503 1.50736,-1.40467 2.08364,-2.25884c1.00131,-1.48415 1.70924,-3.60613 2.14072,-5.5747c0.27939,0.08972 0.5088,0.08972 0.5088,0.08972h0.20453c1.05974,0 2.12539,0.10898 3.17921,-0.0029c0.20618,-0.02189 0.45615,-0.32945 0.61064,-0.27623c-0.12372,0.41952 -0.17157,0.79651 -0.08815,1.11162z" fill="#ea9b1f" stroke="none" stroke-width="1"/><path d="M221.2993,192.61328c-0.45807,-0.32064 -0.82452,-0.41226 -1.23678,-0.82452c-1.00775,-1.00775 -2.24453,-1.46581 -2.42775,-4.12258c-0.02549,-0.43345 -0.12195,-0.79593 -0.20247,-1.16645c0.1392,-0.61431 0.33449,-1.20726 0.59276,-1.76187c2.52542,0.86372 5.58185,1.12786 7.93789,-0.14322c0.01445,0.11285 0.02909,0.22539 0.04384,0.33756c-0.62256,0.56079 -0.39542,1.46933 -0.39542,1.46933c0.38972,1.55889 1.49012,3.99485 0.41497,5.54856c-0.74472,1.07619 -2.11758,1.803 -3.58814,2.13819c-0.24846,-0.57278 -0.48121,-1.0475 -1.1389,-1.475z" fill="#ea9b1f" stroke="none" stroke-width="1"/><path d="M225.69399,162.4709c0.14335,-0.22315 0.30071,-0.42941 0.47044,-0.62036c0.88706,-0.4275 2.03123,-1.05248 3.18154,-1.8903c1.71509,-0.54377 3.62742,-0.73729 5.20442,-1.09185c0.15927,-0.03581 1.69836,-0.37412 2.76522,-0.58677c0.07209,0.00678 0.14428,0.01239 0.21656,0.01668c-0.43861,1.19413 -0.50278,2.64634 -0.05284,4.39944c0.05726,0.2231 0.13304,0.44347 0.225,0.66121c0.08358,1.03351 0.15633,2.3683 -0.32651,2.89012c-1.67133,1.80627 -6.16407,2.23154 -8.42525,2.78949l-0.8181,0.20453c0,0 -0.55471,0.13868 -0.89355,0.58727c-0.29782,-0.00192 -0.59858,0.00334 -0.88973,-0.00692c-0.89137,-2.35698 -1.86458,-5.47292 -0.65719,-7.35252z" fill="#ea9b1f" stroke="none" stroke-width="1"/><path d="M217.54317,173.2371c0.0458,-1.42 0.50388,-2.47355 1.51161,-3.48129c0.47609,-0.44208 1.05315,-0.75793 1.52503,-1.20993c0.06858,0.19925 0.14828,0.39354 0.24071,0.58177c0.8628,1.757 1.90781,2.41526 3.12893,2.77811c0.09577,0.25748 0.19,0.50814 0.28096,0.75089c0,0 0.52669,1.40449 1.93118,0.87781c0.58343,-0.21879 0.83362,-0.58905 0.92675,-0.94719c0.07237,0.01873 0.14514,0.03822 0.21831,0.05857c0.6421,0.17857 -0.57311,1.2198 -0.69337,1.87532c-0.00569,0.031 -0.01091,0.06263 -0.01569,0.09486c-0.8299,1.8513 -1.03961,3.9565 -0.97649,6.0898c-1.33354,1.78765 -3.78387,2.29804 -6.23723,1.47862c-0.82662,-1.29687 -1.39244,-2.5489 -1.77209,-3.83752c0.23278,-1.77099 -0.15342,-3.24417 -0.06861,-5.10984z" fill="#ea9b1f" stroke="none" stroke-width="1"/><path d="M241.86313,168.1832c-0.80029,0.06015 -1.59793,0.14172 -2.3845,0.22587c0.06387,-0.07015 0.12512,-0.14194 0.18362,-0.21543c0.34121,-0.4287 0.57194,-0.89116 0.72624,-1.37469c0.48612,0.46642 0.98906,0.92067 1.47464,1.36425z" fill="#ea9b1f" stroke="none" stroke-width="1"/><path d="M260.96778,171.40485c0.32064,1.28258 -0.13742,2.51937 0.41226,3.71033c0.41205,0.86529 1.08354,1.54526 1.44769,2.40665c-0.22828,0.76221 -0.53416,1.52096 -0.85909,1.78623c-1.24663,1.01773 -4.54047,-1.50624 -5.31673,-2.40694c-0.18075,-0.20973 -0.34556,-0.45489 -0.49376,-0.72812c-0.17684,-0.65762 -0.40005,-1.29261 -0.68047,-1.89846c-0.52481,-2.33911 -0.27472,-5.26179 0.93798,-6.67406c0.17258,-0.20098 0.37186,-0.36535 0.58948,-0.50165c1.56982,1.4852 3.42344,1.9004 3.96264,4.30602z" fill="#ea9b1f" stroke="none" stroke-width="1"/><path d="M247.83552,168.4397c0.60933,0.0857 1.22097,0.15993 1.82789,0.18107c-0.05285,0.10503 -0.10403,0.2119 -0.15348,0.32065c-0.54536,-0.21127 -1.10468,-0.37587 -1.67441,-0.50171z" fill="#ea9b1f" stroke="none" stroke-width="1"/><path d="M252.29234,170.48624c-0.05535,-0.03815 -0.11136,-0.07593 -0.16805,-0.11336c0.07452,-0.22423 0.16504,-0.43894 0.26991,-0.64481c-0.04154,0.24969 -0.07545,0.50276 -0.10186,0.75817z" fill="#ea9b1f" stroke="none" stroke-width="1"/><path d="M245.11871,158.21256c1.19096,0.45807 2.29033,1.23678 3.48129,1.60323c1.14516,0.36646 1.83226,-0.0458 3.02324,0.22904c1.04001,0.2547 1.81449,1.25682 2.51026,2.45498c-2.14203,4.006 -5.69841,2.63131 -9.4777,2.60797h-0.40905c0,0 -0.61811,0 -1.06076,0.39678c-1.05631,-0.95776 -2.06972,-1.97146 -2.54967,-2.88633c-0.00171,-0.10244 -0.00271,-0.2043 -0.00271,-0.30549c-0.00793,-1.16985 0.49031,-2.87791 0.44332,-4.35226c1.31873,-0.19331 2.61905,-0.29704 4.04178,0.25208z" fill="#ea9b1f" stroke="none" stroke-width="1"/><path d="M252.21394,187.64283c-1.07662,1.64508 -3.55586,2.6062 -5.28566,3.35648c-4.5153,1.95846 -11.29001,1.85013 -16.08602,1.07883c-1.79838,-1.88631 -1.55056,-4.55494 -1.87887,-7.04985c-0.12406,-0.94278 -0.2637,-2.05415 -0.33786,-3.21166c1.04289,-2.1004 0.56282,-4.11974 0.8637,-6.29791c0.03099,-0.05789 0.06293,-0.11497 0.09584,-0.17122c1.19475,-2.04223 2.63028,-2.36778 4.69238,-3.01744c4.20295,-1.32412 11.83845,-2.60965 15.70507,0.24491c1.25415,0.70433 2.09842,1.63516 2.66556,2.71113c0.18762,0.72607 0.43573,1.41462 0.74136,2.03784c0.35532,1.51155 0.40482,3.17255 0.40171,4.8278v0.20453c0,0 0,0.31839 0.14669,0.6618c-0.34289,1.63001 -0.92876,3.40982 -1.72389,4.62477z" fill="#ea9b1f" stroke="none" stroke-width="1"/><path d="M234.72063,198.88879c-1.16543,-0.27869 -2.94742,-0.09496 -4.47792,-0.19283c1.45765,-1.33722 5.41005,-2.16151 7.2303,-1.25205c0.11556,0.46662 0.44955,0.84706 0.88721,1.02658c0.16889,0.69648 -0.11077,1.5504 -0.11303,2.29309c-0.00009,0.02882 -0.00017,0.05763 -0.00026,0.08645c-1.25125,-0.70755 -2.55059,-1.70296 -3.5263,-1.96124z" fill="#f3bb1b" stroke="none" stroke-width="1"/><path d="M230.65778,194.97034c-0.11778,0.04763 -0.23401,0.09709 -0.3485,0.14837c-0.03174,-0.0799 -0.06864,-0.15813 -0.11026,-0.23455c0.15074,0.02943 0.3037,0.05817 0.45876,0.08617z" fill="#f3bb1b" stroke="none" stroke-width="1"/><path d="M240.47466,195.51714c-0.05345,0.13261 -0.1025,0.26942 -0.1472,0.40995c-0.12066,-0.13411 -0.25071,-0.26033 -0.3893,-0.37882c0.17876,-0.00911 0.35762,-0.01948 0.5365,-0.03114z" fill="#f3bb1b" stroke="none" stroke-width="1"/><path d="M248.41678,198.47653c-1.66235,0.80251 -3.1633,1.82022 -4.82825,2.46965c-0.19508,-0.57534 -0.29936,-1.30774 -0.29609,-2.22786c0.0013,-0.3647 -0.11414,-2.02481 0.18903,-2.49034c0.88194,-1.35423 2.47786,-1.12716 3.83316,-1.12281c1.96006,0.0063 3.22935,0.15446 4.35598,0.64749c-0.9056,1.09367 -1.87194,2.07202 -3.25384,2.72386z" fill="#f3bb1b" stroke="none" stroke-width="1"/><path d="M260.23488,186.20036c-0.68151,2.96659 -3.43306,4.14384 -5.58322,6.08034c-0.69057,-0.20789 -1.37564,-0.43992 -2.04842,-0.68062c0.80397,-0.65503 1.50736,-1.40467 2.08364,-2.25884c1.00131,-1.48415 1.70924,-3.60613 2.14072,-5.5747c0.27939,0.08972 0.5088,0.08972 0.5088,0.08972h0.20453c0.90549,0 1.81531,0.07957 2.71836,0.03293c0.07792,0.88775 0.10454,1.72169 -0.02441,2.31116z" fill="#f3bb1b" stroke="none" stroke-width="1"/><path d="M221.39092,189.59007c-1.05353,-1.56909 -1.41601,-2.90783 -1.51148,-4.35438c2.07028,0.40521 4.28172,0.33102 6.08352,-0.64105c0.01445,0.11285 0.02909,0.22539 0.04384,0.33756c-0.62256,0.56079 -0.39542,1.46933 -0.39542,1.46933c0.38972,1.55889 1.49012,3.99485 0.41497,5.54856c-0.32083,0.46363 -0.75824,0.86242 -1.26982,1.19299c-1.45072,-1.82233 -2.29603,-1.96392 -3.3656,-3.55301z" fill="#f3bb1b" stroke="none" stroke-width="1"/><path d="M225.26186,166.12901c2.28693,-1.82931 5.51647,-2.79573 8.22199,-3.88545c1.40192,-0.55493 2.45002,-1.59405 3.70237,-2.2743c-0.05395,0.81583 0.03497,1.72263 0.29312,2.72848c0.05726,0.2231 0.13304,0.44347 0.225,0.66121c0.08358,1.03351 0.15633,2.3683 -0.32651,2.89012c-1.67133,1.80627 -6.16407,2.23154 -8.42525,2.78949l-0.8181,0.20453c0,0 -0.55471,0.13868 -0.89355,0.58727c-0.29782,-0.00192 -0.59858,0.00334 -0.88973,-0.00692c-0.42745,-1.13029 -0.87373,-2.4351 -1.08932,-3.69442z" fill="#f3bb1b" stroke="none" stroke-width="1"/><path d="M219.97092,179.97069c0,-2.15291 -1.19096,-4.2142 -0.54968,-6.13807c0.41216,-1.28496 1.20928,-2.45443 2.09931,-3.55595c0.71063,0.92633 1.5211,1.35934 2.4289,1.6291c0.09577,0.25748 0.19,0.50814 0.28096,0.75089c0,0 0.52669,1.40449 1.93118,0.87781c0.58343,-0.21879 0.83362,-0.58905 0.92675,-0.94719c0.07237,0.01873 0.14514,0.03822 0.21831,0.05857c0.6421,0.17857 -0.57311,1.2198 -0.69337,1.87532c-0.00569,0.031 -0.01091,0.06263 -0.01569,0.09486c-0.8299,1.8513 -1.03961,3.9565 -0.97649,6.0898c-1.23836,1.66007 -3.4398,2.21868 -5.71239,1.63376c0.03074,-0.72416 0.0622,-1.50524 0.0622,-2.36891z" fill="#f3bb1b" stroke="none" stroke-width="1"/><path d="M241.86313,168.1832c-0.80029,0.06015 -1.59793,0.14172 -2.3845,0.22587c0.06387,-0.07015 0.12512,-0.14194 0.18362,-0.21543c0.34121,-0.4287 0.57194,-0.89116 0.72624,-1.37469c0.48612,0.46642 0.98906,0.92067 1.47464,1.36425z" fill="#f3bb1b" stroke="none" stroke-width="1"/><path d="M259.27294,172.64162c0.9494,1.97791 0.73729,4.46826 0.66175,6.58596c-1.33528,-0.57158 -2.79865,-1.76471 -3.28278,-2.32645c-0.18075,-0.20973 -0.34556,-0.45489 -0.49376,-0.72812c-0.17684,-0.65762 -0.40005,-1.29261 -0.68047,-1.89846c-0.38542,-1.71786 -0.3529,-3.75046 0.17192,-5.26838c0.95086,1.14453 2.90711,2.11875 3.62334,3.63546z" fill="#f3bb1b" stroke="none" stroke-width="1"/><path d="M247.83552,168.4397c0.60933,0.0857 1.22097,0.15993 1.82789,0.18107c-0.05285,0.10503 -0.10403,0.2119 -0.15348,0.32065c-0.54536,-0.21127 -1.10468,-0.37587 -1.67441,-0.50171z" fill="#f3bb1b" stroke="none" stroke-width="1"/><path d="M252.29234,170.48624c-0.05535,-0.03815 -0.11136,-0.07593 -0.16805,-0.11336c0.07452,-0.22423 0.16504,-0.43894 0.26991,-0.64481c-0.04154,0.24969 -0.07545,0.50276 -0.10186,0.75817z" fill="#f3bb1b" stroke="none" stroke-width="1"/><path d="M246.72194,161.60225c2.24453,0.77871 4.1684,0.59549 6.00066,2.06129c0.12455,0.10098 0.23895,0.20419 0.34451,0.3095c-2.15796,2.14737 -5.20438,1.15454 -8.4113,1.13473h-0.40905c0,0 -0.61811,0 -1.06076,0.39678c-1.05631,-0.95776 -2.06972,-1.97146 -2.54967,-2.88633c-0.00171,-0.10244 -0.00271,-0.2043 -0.00271,-0.30549c-0.00533,-0.78584 0.21775,-1.81454 0.35053,-2.85212c1.96496,0.39997 4.03159,1.51107 5.7378,2.14164z" fill="#f3bb1b" stroke="none" stroke-width="1"/><path d="M252.21394,187.64283c-1.07662,1.64508 -3.55586,2.6062 -5.28566,3.35648c-4.5153,1.95846 -11.29001,1.85013 -16.08602,1.07883c-1.79838,-1.88631 -1.55056,-4.55494 -1.87887,-7.04985c-0.12406,-0.94278 -0.2637,-2.05415 -0.33786,-3.21166c1.04289,-2.1004 0.56282,-4.11974 0.8637,-6.29791c0.03099,-0.05789 0.06293,-0.11497 0.09584,-0.17122c1.19475,-2.04223 2.63028,-2.36778 4.69238,-3.01744c4.20295,-1.32412 11.83845,-2.60965 15.70507,0.24491c1.25415,0.70433 2.09842,1.63516 2.66556,2.71113c0.18762,0.72607 0.43573,1.41462 0.74136,2.03784c0.35532,1.51155 0.40482,3.17255 0.40171,4.8278v0.20453c0,0 0,0.31839 0.14669,0.6618c-0.34289,1.63001 -0.92876,3.40982 -1.72389,4.62477z" fill="#f3bb1b" stroke="none" stroke-width="1"/><path d="M238.2637,198.42683c-1.75687,-0.12906 -3.44473,-0.50647 -5.02861,-1.09727c1.54041,-0.36075 3.22154,-0.39348 4.23792,0.11434c0.10691,0.43168 0.40076,0.78961 0.7907,0.98293z" fill="#f9d20d" stroke="none" stroke-width="1"/><path d="M230.65778,194.97034c-0.11778,0.04763 -0.23401,0.09709 -0.3485,0.14837c-0.03174,-0.0799 -0.06864,-0.15813 -0.11026,-0.23455c0.15074,0.02943 0.3037,0.05817 0.45876,0.08617z" fill="#f9d20d" stroke="none" stroke-width="1"/><path d="M240.47466,195.51714c-0.05345,0.13261 -0.1025,0.26942 -0.1472,0.40995c-0.12066,-0.13411 -0.25071,-0.26033 -0.3893,-0.37882c0.17876,-0.00911 0.35762,-0.01948 0.5365,-0.03114z" fill="#f9d20d" stroke="none" stroke-width="1"/><path d="" fill="#f9d20d" stroke="none" stroke-width="1"/><path d="M243.48148,196.22799c0.88194,-1.35423 2.47786,-1.12716 3.83316,-1.12281c1.05516,0.00339 1.91013,0.04789 2.65043,0.16517c-1.98234,1.36311 -4.24704,2.34523 -6.68844,2.84072c-0.0145,-0.64268 -0.00776,-1.55662 0.20485,-1.88308z" fill="#f9d20d" stroke="none" stroke-width="1"/><path d="M254.68688,189.34124c1.00131,-1.48415 1.70924,-3.60613 2.14072,-5.5747c0.27939,0.08972 0.5088,0.08972 0.5088,0.08972h0.1965c-0.61749,3.04095 -1.99,5.80769 -3.91332,8.09603c-0.34128,-0.11396 -0.68035,-0.232 -1.01635,-0.35221c0.80397,-0.65503 1.50736,-1.40467 2.08364,-2.25884z" fill="#f9d20d" stroke="none" stroke-width="1"/><path d="M222.11561,185.46728c1.3543,0.00746 2.68592,-0.24606 3.84734,-0.87264c0.01445,0.11285 0.02909,0.22539 0.04384,0.33756c-0.62256,0.56079 -0.39542,1.46933 -0.39542,1.46933c0.38972,1.55889 1.49012,3.99485 0.41497,5.54856c-0.05931,0.08571 -0.1226,0.1692 -0.18962,0.25046c-1.68209,-1.93057 -2.96527,-4.21781 -3.72111,-6.73327z" fill="#f9d20d" stroke="none" stroke-width="1"/><path d="M225.79622,168.24553c2.88167,-3.32989 6.94614,-5.60801 11.54016,-6.18112c0.04005,0.20661 0.08761,0.41769 0.14295,0.63332c0.05726,0.2231 0.13304,0.44347 0.225,0.66121c0.08358,1.03351 0.15633,2.3683 -0.32651,2.89012c-1.67133,1.80627 -6.16407,2.23154 -8.42525,2.78949l-0.8181,0.20453c0,0 -0.55471,0.13868 -0.89355,0.58727c-0.29782,-0.00192 -0.59858,0.00334 -0.88973,-0.00692c-0.18846,-0.49832 -0.38057,-1.03057 -0.55497,-1.57789z" fill="#f9d20d" stroke="none" stroke-width="1"/><path d="M221.34511,180.19972c0,-3.05857 0.7513,-5.94167 2.07942,-8.47482c0.17119,0.0683 0.34617,0.12774 0.52492,0.18086c0.09577,0.25748 0.19,0.50814 0.28096,0.75089c0,0 0.52669,1.40449 1.93118,0.87781c0.58343,-0.21879 0.83362,-0.58905 0.92675,-0.94719c0.07237,0.01873 0.14514,0.03822 0.21831,0.05857c0.6421,0.17857 -0.57311,1.2198 -0.69337,1.87532c-0.00569,0.031 -0.01091,0.06263 -0.01569,0.09486c-0.8299,1.8513 -1.03961,3.9565 -0.97649,6.0898c-0.94565,1.26768 -2.4529,1.89306 -4.12457,1.85742c-0.0999,-0.77372 -0.15142,-1.56261 -0.15142,-2.36354z" fill="#f9d20d" stroke="none" stroke-width="1"/><path d="M241.86313,168.1832c-0.80029,0.06015 -1.59793,0.14172 -2.3845,0.22587c0.06387,-0.07015 0.12512,-0.14194 0.18362,-0.21543c0.34121,-0.4287 0.57194,-0.89116 0.72624,-1.37469c0.48612,0.46642 0.98906,0.92067 1.47464,1.36425z" fill="#f9d20d" stroke="none" stroke-width="1"/><path d="M256.65191,176.90113c-0.18075,-0.20973 -0.34556,-0.45489 -0.49376,-0.72812c-0.17684,-0.65762 -0.40005,-1.29261 -0.68047,-1.89846c-0.25004,-1.11447 -0.32418,-2.36142 -0.20211,-3.51436c1.28861,2.13233 2.15384,4.54923 2.47918,7.13419c-0.49295,-0.38194 -0.89134,-0.74785 -1.10284,-0.99325z" fill="#f9d20d" stroke="none" stroke-width="1"/><path d="M247.83552,168.4397c0.60933,0.0857 1.22097,0.15993 1.82789,0.18107c-0.05285,0.10503 -0.10403,0.2119 -0.15348,0.32065c-0.54536,-0.21127 -1.10468,-0.37587 -1.67441,-0.50171z" fill="#f9d20d" stroke="none" stroke-width="1"/><path d="M252.29234,170.48624c-0.05535,-0.03815 -0.11136,-0.07593 -0.16805,-0.11336c0.07452,-0.22423 0.16504,-0.43894 0.26991,-0.64481c-0.04154,0.24969 -0.07545,0.50276 -0.10186,0.75817z" fill="#f9d20d" stroke="none" stroke-width="1"/><path d="M244.6558,165.10777h-0.40905c0,0 -0.61811,0 -1.06076,0.39678c-1.05631,-0.95776 -2.06972,-1.97146 -2.54967,-2.88633c-0.00171,-0.10244 -0.00271,-0.2043 -0.00271,-0.30549c-0.00078,-0.11556 0.00337,-0.23637 0.01145,-0.36168c3.55019,0.1959 6.83028,1.40501 9.55596,3.34303c-1.67664,0.20306 -3.58082,-0.17417 -5.54522,-0.1863z" fill="#f9d20d" stroke="none" stroke-width="1"/><path d="M252.21394,187.64283c-1.07662,1.64508 -3.55586,2.6062 -5.28566,3.35648c-4.5153,1.95846 -11.29001,1.85013 -16.08602,1.07883c-1.79838,-1.88631 -1.55056,-4.55494 -1.87887,-7.04985c-0.12406,-0.94278 -0.2637,-2.05415 -0.33786,-3.21166c1.04289,-2.1004 0.56282,-4.11974 0.8637,-6.29791c0.03099,-0.05789 0.06293,-0.11497 0.09584,-0.17122c1.19475,-2.04223 2.63028,-2.36778 4.69238,-3.01744c4.20295,-1.32412 11.83845,-2.60965 15.70507,0.24491c1.25415,0.70433 2.09842,1.63516 2.66556,2.71113c0.18762,0.72607 0.43573,1.41462 0.74136,2.03784c0.35532,1.51155 0.40482,3.17255 0.40171,4.8278v0.20453c0,0 0,0.31839 0.14669,0.6618c-0.34289,1.63001 -0.92876,3.40982 -1.72389,4.62477z" fill="#f9d20d" stroke="none" stroke-width="1"/></g></g></svg>