<svg version="1.1" xmlns="http://www.w3.org/2000/svg" xmlns:xlink="http://www.w3.org/1999/xlink" width="48.30003" height="51.39981" viewBox="0,0,48.30003,51.39981"><g transform="translate(-213.95657,-154.80574)"><g data-paper-data="{&quot;isPaintingLayer&quot;:true}" fill-rule="nonzero" stroke-linecap="butt" stroke-linejoin="miter" stroke-miterlimit="10" stroke-dasharray="" stroke-dashoffset="0" style="mix-blend-mode: normal"><path d="M250.3178,195.30461c-0.0264,0.01678 -0.05284,0.03351 -0.07933,0.05018" fill="none" stroke="#c2b59b" stroke-width="0.5"/><path d="M229.06759,202.74572c-0.00562,0.03598 -0.01105,0.0714 -0.01629,0.10629c0.04916,-0.52596 0.21607,-1.07411 0.30276,-1.58231c0.14411,-0.84483 0.59638,-1.64943 1.13198,-2.44469c-0.55385,1.38222 -1.23534,2.74821 -1.41844,3.92071z" fill="#df6530" stroke="none" stroke-width="1"/><path d="M229.39199,175.37991c0.21494,-0.11893 0.446,-0.16872 0.6868,-0.17758c-0.41953,0.45482 -0.76711,0.95194 -1.04975,1.48191c0.05485,-0.63865 0.16082,-1.19249 0.36295,-1.30433z" fill="#df6530" stroke="none" stroke-width="1"/><path d="M217.09135,186.04026c-0.06753,-0.01847 -0.16143,-0.23292 -0.27555,-0.52695c0.29142,0.19761 0.58157,0.37779 0.82219,0.52066c-0.18019,0.0466 -0.36185,0.05684 -0.54665,0.00629z" fill="#df6530" stroke="none" stroke-width="1"/><path d="M234.47449,196.29828l-0.45213,0.33909c0.02366,-0.13381 0.0423,-0.26544 0.05518,-0.39461c0.00201,-0.02015 0.00392,-0.04025 0.00572,-0.0603c0.13498,0.03793 0.26636,0.07674 0.39122,0.11582z" fill="#df6530" stroke="none" stroke-width="1"/><path d="M250.02026,194.88106c-0.12427,-0.41384 0.05593,-0.08829 0.34477,0.52297c-0.07642,-0.03164 -0.15369,-0.06009 -0.23175,-0.08556c-0.04924,-0.14243 -0.08847,-0.28776 -0.11302,-0.43741z" fill="#df6530" stroke="none" stroke-width="1"/><path d="M246.9162,193.87139c0.13894,-0.0022 0.27788,-0.00439 0.41682,-0.00659c-0.04127,0.09102 -0.08411,0.18012 -0.12934,0.26628c-0.10341,-0.06151 -0.20823,-0.1183 -0.31436,-0.17058c0.00971,-0.02881 0.01869,-0.05851 0.02687,-0.08911z" fill="#df6530" stroke="none" stroke-width="1"/><path d="M245.54223,199.74095l0,-0.1763c0.08479,0.22708 0.08577,0.52476 0.04165,0.85844c-0.0322,-0.20511 -0.04742,-0.43104 -0.04165,-0.68214z" fill="#df6530" stroke="none" stroke-width="1"/><path d="M249.22416,169.27021c-0.00003,-0.00053 -0.00007,-0.00105 -0.0001,-0.00158c0.00018,0.0005 0.00035,0.00101 0.00053,0.00151c-0.00014,0.00002 -0.00028,0.00005 -0.00042,0.00007z" fill="#df6530" stroke="none" stroke-width="1"/><path d="M257.73199,161.67518c1.19627,0.04984 2.84113,0.59813 3.68848,1.44548c0.28668,0.29863 0.50753,0.60871 0.67471,0.92835c0.25502,2.08177 0.3076,4.42425 -0.60227,5.49518c-0.99689,1.17335 -3.88319,1.41647 -5.25385,1.49669c-0.47142,0.02759 -2.04364,0.51662 -2.65717,-0.07209c-2.13495,-2.0486 -3.21484,-7.37111 -0.24854,-8.6723c1.15119,-0.24249 2.32742,-0.50147 3.51243,-0.71286c0.24275,0.05503 0.521,0.07328 0.88621,0.09155z" fill="#df6530" stroke="none" stroke-width="1"/><path d="M222.15797,175.4707c1.06255,-0.00423 1.27085,-0.30742 2.06217,0.431c3.05819,2.85376 -3.85684,6.22025 -6.47633,6.56483c-0.28583,-0.18949 -0.58384,-0.37741 -0.88762,-0.54823c0.4848,-3.08311 1.67295,-6.43316 5.30178,-6.44761z" fill="#df6530" stroke="none" stroke-width="1"/><path d="M214.06448,180.19344c-0.03779,0.01884 -0.07373,0.03907 -0.10791,0.06052c0.07435,-0.22049 0.15584,-0.44161 0.24316,-0.66343c-0.05069,0.19906 -0.09524,0.39934 -0.13525,0.60291z" fill="#df6530" stroke="none" stroke-width="1"/><path d="M219.92855,193.57239c0.31873,-1.46279 3.54532,-3.84806 5.01789,-2.44345c1.57355,1.50094 1.20664,4.06593 1.23373,5.95318c0.01096,0.764 0.4254,1.87846 -0.22387,2.28129c-1.22343,0.75906 -4.05293,-0.09168 -5.36925,-0.22737c-0.21066,-0.12646 -0.42132,-0.25293 -0.63198,-0.37939c-0.00765,-0.15715 -0.01696,-0.31751 -0.02729,-0.48031l0.02831,-0.00914c0,0 -0.01026,-0.06154 -0.03914,-0.15744c-0.10147,-1.52584 -0.27097,-3.24057 0.01159,-4.53736z" fill="#df6530" stroke="none" stroke-width="1"/><path d="M238.94063,204.94017c-0.59994,0.48506 -1.27179,0.92109 -1.98041,1.26538c-0.13266,-0.70459 -0.83725,-1.05689 -0.83725,-1.05689c-5.57367,-2.47256 1.17328,-7.46005 4.4925,-5.34634c1.09101,0.69476 1.7315,2.25973 2.09647,3.91795c-2.31668,-0.46643 -2.05499,-0.20218 -3.77131,1.2199z" fill="#df6530" stroke="none" stroke-width="1"/><path d="M256.01604,197.0167c-0.48743,0.03934 -1.1994,0.36173 -1.58274,0.17494c-0.09971,-0.20326 -0.20649,-0.4036 -0.31806,-0.60177c-0.0982,-0.71023 0.30336,-1.52171 0.2187,-2.25979c-0.03833,-0.33422 -0.44323,-0.64347 -0.3209,-0.95684c0.27666,-0.7087 4.53188,-1.21035 4.95193,-0.9701c0.64214,0.36727 0.74599,2.74706 0.75863,4.24327c-1.22323,0.21812 -2.43973,0.26797 -3.70757,0.3703z" fill="#df6530" stroke="none" stroke-width="1"/><path d="M235.28117,191.63838c-1.04841,-0.41673 -1.71552,-2.41644 -2.20812,-3.27697c-2.00625,-3.50474 -2.56555,-5.61539 -1.31254,-9.41226c0.57095,-1.73011 0.33755,-2.14597 2.11049,-2.8176c0.47177,-0.2715 0.96699,-0.50395 1.48013,-0.7023c1.24031,0.00786 2.48037,0.08927 3.6152,0.40371c1.68035,0.4656 3.23435,1.38048 4.95015,1.69088c1.91726,0.34684 3.78121,0.36105 5.62499,0.16566c0.17761,1.18383 -0.04536,2.61801 -0.04536,3.64416c0,2.90821 1.5887,8.16645 -1.66496,9.57503c-0.44487,-0.01021 -0.88974,-0.02043 -1.33461,-0.03064l-1.07987,0.36289c0,0 -0.45026,0.22513 -0.69868,0.6754c-2.90946,0.11047 -6.87758,0.73934 -9.43681,-0.27793z" fill="#df6530" stroke="none" stroke-width="1"/><path d="M244.97165,174.44518c0.54402,0.0299 1.15607,0.13697 1.75092,0.33156c-0.75123,-0.00837 -1.50765,-0.06732 -2.27308,-0.20519c-0.12588,-0.02267 -0.25078,-0.04896 -0.37485,-0.07835c0.03446,-0.02868 0.0688,-0.05763 0.10308,-0.08673c0.26753,0.01124 0.53238,0.02434 0.79393,0.03871z" fill="#df6530" stroke="none" stroke-width="1"/><path d="M223.63838,160.92751c0.94705,-0.64799 0.94706,-0.94705 1.14642,-1.99377c0.59814,-3.19004 2.59192,-4.83492 5.88165,-3.83802c1.24611,0.39876 2.19316,0.99689 3.48911,0.84735c0.69054,-0.07673 1.19735,-0.37653 1.67531,-0.73783c0.71917,0.87132 1.33117,1.86841 1.78249,2.90966c-0.11746,0.21393 -0.18427,0.45961 -0.18427,0.7209c0,0.59464 0.34601,1.10846 0.84768,1.35111c0.11917,0.57935 0.18036,1.156 0.17495,1.71677c-0.00227,0.23519 0.13324,1.38617 0.13292,2.33876c-0.4145,0.60224 -1.11569,1.11715 -1.96656,1.55243c-1.48006,-0.06965 -3.27385,-0.56921 -4.27466,-0.67815c-0.91187,-0.09925 -1.87184,-0.33913 -2.60269,-0.89339c-1.48646,-0.39174 -3.24102,-0.76595 -4.58219,-1.57298c-0.80412,-0.48387 -1.33235,-0.98928 -1.90802,-1.52318c0.13763,-0.05381 0.26788,-0.11968 0.38787,-0.19966z" fill="#df6530" stroke="none" stroke-width="1"/><path d="M229.35406,201.2697c0.14411,-0.84483 0.59638,-1.64943 1.13198,-2.44469c-0.54166,1.35179 -1.20539,2.68805 -1.40563,3.84299c-0.00245,-0.00041 -0.00491,-0.00082 -0.00736,-0.00122c0.06534,-0.46832 0.20445,-0.94827 0.28101,-1.39707z" fill="#ea9b1f" stroke="none" stroke-width="1"/><path d="M229.39199,175.37991c0.21494,-0.11893 0.446,-0.16872 0.6868,-0.17758c-0.41953,0.45482 -0.76711,0.95194 -1.04975,1.48191c0.05485,-0.63865 0.16082,-1.19249 0.36295,-1.30433z" fill="#ea9b1f" stroke="none" stroke-width="1"/><path d="M217.09135,186.04026c-0.06753,-0.01847 -0.16143,-0.23292 -0.27555,-0.52695c0.29142,0.19761 0.58157,0.37779 0.82219,0.52066c-0.18019,0.0466 -0.36185,0.05684 -0.54665,0.00629z" fill="#ea9b1f" stroke="none" stroke-width="1"/><path d="M234.47449,196.29828l-0.45213,0.33909c0.02366,-0.13381 0.0423,-0.26544 0.05518,-0.39461c0.00201,-0.02015 0.00392,-0.04025 0.00572,-0.0603c0.13498,0.03793 0.26636,0.07674 0.39122,0.11582z" fill="#ea9b1f" stroke="none" stroke-width="1"/><path d="M250.02026,194.88106c-0.12427,-0.41384 0.05593,-0.08829 0.34477,0.52297c-0.07642,-0.03164 -0.15369,-0.06009 -0.23175,-0.08556c-0.04924,-0.14243 -0.08847,-0.28776 -0.11302,-0.43741z" fill="#ea9b1f" stroke="none" stroke-width="1"/><path d="M246.9162,193.87139c0.13894,-0.0022 0.27788,-0.00439 0.41682,-0.00659c-0.04127,0.09102 -0.08411,0.18012 -0.12934,0.26628c-0.10341,-0.06151 -0.20823,-0.1183 -0.31436,-0.17058c0.00971,-0.02881 0.01869,-0.05851 0.02687,-0.08911z" fill="#ea9b1f" stroke="none" stroke-width="1"/><path d="M245.54223,199.74095l0,-0.1763c0.08479,0.22708 0.08577,0.52476 0.04165,0.85844c-0.0322,-0.20511 -0.04742,-0.43104 -0.04165,-0.68214z" fill="#ea9b1f" stroke="none" stroke-width="1"/><path d="M217.34347,191.97087c-0.02717,-0.02409 -0.05426,-0.04832 -0.08124,-0.07274c0.03987,-0.00193 0.08004,-0.00435 0.12046,-0.00727c-0.01332,0.02663 -0.02639,0.0533 -0.03922,0.08001z" fill="#ea9b1f" stroke="none" stroke-width="1"/><path d="M249.22416,169.27021c-0.00003,-0.00053 -0.00007,-0.00105 -0.0001,-0.00158c0.00018,0.0005 0.00035,0.00101 0.00053,0.00151c-0.00014,0.00002 -0.00028,0.00005 -0.00042,0.00007z" fill="#ea9b1f" stroke="none" stroke-width="1"/><path d="M257.98119,165.4135c1.29877,1.51523 2.9109,2.06431 3.94807,3.34823c-0.11104,0.30347 -0.25446,0.56838 -0.43635,0.78247c-0.99689,1.17335 -3.88319,1.41647 -5.25385,1.49669c-0.47142,0.02759 -2.04364,0.51662 -2.65717,-0.07209c-2.13495,-2.0486 -3.21484,-7.37111 -0.24854,-8.6723c0.82237,-0.17323 1.65751,-0.35487 2.49952,-0.52156c0.69748,1.30374 1.35464,2.69056 2.14832,3.63857z" fill="#ea9b1f" stroke="none" stroke-width="1"/><path d="M222.15797,175.4707c1.06255,-0.00423 1.27085,-0.30742 2.06217,0.431c3.05819,2.85376 -3.85684,6.22025 -6.47633,6.56483c-0.28583,-0.18949 -0.58384,-0.37741 -0.88762,-0.54823c0.4848,-3.08311 1.67295,-6.43316 5.30178,-6.44761z" fill="#ea9b1f" stroke="none" stroke-width="1"/><path d="M223.53868,198.85915c-1.09659,-0.69783 -1.74455,-1.54518 -2.29285,-2.74146c-0.45908,-0.91816 -0.5799,-1.62492 -1.37499,-2.23708c0.01669,-0.10505 0.03585,-0.2079 0.05771,-0.30823c0.31873,-1.46279 3.54532,-3.84806 5.01789,-2.44345c1.57355,1.50094 1.20664,4.06593 1.23373,5.95318c0.01096,0.764 0.4254,1.87846 -0.22387,2.28129c-0.36019,0.22348 -0.8596,0.30741 -1.41861,0.31115c-0.30741,-0.29962 -0.6326,-0.57985 -0.99901,-0.8154z" fill="#ea9b1f" stroke="none" stroke-width="1"/><path d="M241.03407,204.94019c-0.84735,-0.14953 -1.69471,-0.59814 -2.54207,-0.69783c-1.29594,-0.14953 -1.74455,0.4486 -2.84113,0.59813c-0.0416,0.00378 -0.08275,0.00667 -0.12347,0.0087c-4.45826,-2.55045 1.89799,-7.07833 5.08807,-5.04687c1.33463,0.84991 1.99509,3.00204 2.30169,5.03409c-0.59649,0.14041 -1.2116,0.2098 -1.88309,0.10378z" fill="#ea9b1f" stroke="none" stroke-width="1"/><path d="M256.01604,197.0167c-0.48743,0.03934 -1.1994,0.36173 -1.58274,0.17494c-0.09971,-0.20326 -0.20649,-0.4036 -0.31806,-0.60177c-0.0982,-0.71023 0.30336,-1.52171 0.2187,-2.25979c-0.03833,-0.33422 -0.44323,-0.64347 -0.3209,-0.95684c0.27666,-0.7087 4.53188,-1.21035 4.95193,-0.9701c0.25931,0.14831 0.43084,0.62481 0.54403,1.23879c-0.19408,0.97187 -0.15416,2.03688 -0.37338,3.09731c-1.02659,0.14262 -2.05499,0.19154 -3.11958,0.27747z" fill="#ea9b1f" stroke="none" stroke-width="1"/><path d="M235.28117,191.63838c-1.04841,-0.41673 -1.71552,-2.41644 -2.20812,-3.27697c-2.00625,-3.50474 -2.56555,-5.61539 -1.31254,-9.41226c0.57095,-1.73011 0.33755,-2.14597 2.11049,-2.8176c0.47177,-0.2715 0.96699,-0.50395 1.48013,-0.7023c1.24031,0.00786 2.48037,0.08927 3.6152,0.40371c1.68035,0.4656 3.23435,1.38048 4.95015,1.69088c1.91726,0.34684 3.78121,0.36105 5.62499,0.16566c0.17761,1.18383 -0.04536,2.61801 -0.04536,3.64416c0,2.90821 1.5887,8.16645 -1.66496,9.57503c-0.44487,-0.01021 -0.88974,-0.02043 -1.33461,-0.03064l-1.07987,0.36289c0,0 -0.45026,0.22513 -0.69868,0.6754c-2.90946,0.11047 -6.87758,0.73934 -9.43681,-0.27793z" fill="#ea9b1f" stroke="none" stroke-width="1"/><path d="M244.97165,174.44518c0.54402,0.0299 1.15607,0.13697 1.75092,0.33156c-0.75123,-0.00837 -1.50765,-0.06732 -2.27308,-0.20519c-0.12588,-0.02267 -0.25078,-0.04896 -0.37485,-0.07835c0.03446,-0.02868 0.0688,-0.05763 0.10308,-0.08673c0.26753,0.01124 0.53238,0.02434 0.79393,0.03871z" fill="#ea9b1f" stroke="none" stroke-width="1"/><path d="M230.36736,156.5412c1.78741,-1.78741 3.97543,-0.57031 6.27675,-0.22738c0.3728,0.57302 0.69968,1.17918 0.96925,1.80108c-0.11746,0.21393 -0.18427,0.45961 -0.18427,0.7209c0,0.59464 0.34601,1.10846 0.84768,1.35111c0.11917,0.57935 0.18036,1.156 0.17495,1.71677c-0.00227,0.23519 0.13324,1.38617 0.13292,2.33876c-0.4145,0.60224 -1.11569,1.11715 -1.96656,1.55243c-1.48006,-0.06965 -3.27385,-0.56921 -4.27466,-0.67815c-0.91187,-0.09925 -1.87184,-0.33913 -2.60269,-0.89339c-1.48646,-0.39174 -3.24102,-0.76595 -4.58219,-1.57298c-0.85455,-0.51421 -1.39751,-1.05276 -2.01695,-1.62395c0.1359,-0.06218 4.14992,-1.45896 7.22579,-4.4852z" fill="#ea9b1f" stroke="none" stroke-width="1"/><path d="M229.39199,175.37991c0.21494,-0.11893 0.446,-0.16872 0.6868,-0.17758c-0.41953,0.45482 -0.76711,0.95194 -1.04975,1.48191c0.05485,-0.63865 0.16082,-1.19249 0.36295,-1.30433z" fill="#f3bb1b" stroke="none" stroke-width="1"/><path d="M230.48603,198.82501c-0.208,0.5191 -0.434,1.0359 -0.64484,1.54103c-0.07248,-0.00245 -0.14462,-0.00531 -0.21635,-0.00866c0.2153,-0.5198 0.52149,-1.02796 0.8612,-1.53237z" fill="#f3bb1b" stroke="none" stroke-width="1"/><path d="M234.47449,196.29828l-0.45213,0.33909c0.02366,-0.13381 0.0423,-0.26544 0.05518,-0.39461c0.00201,-0.02015 0.00392,-0.04025 0.00572,-0.0603c0.13498,0.03793 0.26636,0.07674 0.39122,0.11582z" fill="#f3bb1b" stroke="none" stroke-width="1"/><path d="M250.02026,194.88106c-0.12427,-0.41384 0.05593,-0.08829 0.34477,0.52297c-0.07642,-0.03164 -0.15369,-0.06009 -0.23175,-0.08556c-0.04924,-0.14243 -0.08847,-0.28776 -0.11302,-0.43741z" fill="#f3bb1b" stroke="none" stroke-width="1"/><path d="M246.9162,193.87139c0.13894,-0.0022 0.27788,-0.00439 0.41682,-0.00659c-0.04127,0.09102 -0.08411,0.18012 -0.12934,0.26628c-0.10341,-0.06151 -0.20823,-0.1183 -0.31436,-0.17058c0.00971,-0.02881 0.01869,-0.05851 0.02687,-0.08911z" fill="#f3bb1b" stroke="none" stroke-width="1"/><path d="M245.54223,199.74095l0,-0.1763c0.08479,0.22708 0.08577,0.52476 0.04165,0.85844c-0.0322,-0.20511 -0.04742,-0.43104 -0.04165,-0.68214z" fill="#f3bb1b" stroke="none" stroke-width="1"/><path d="M249.22416,169.27021c-0.00003,-0.00053 -0.00007,-0.00105 -0.0001,-0.00158c0.00018,0.0005 0.00035,0.00101 0.00053,0.00151c-0.00014,0.00002 -0.00028,0.00005 -0.00042,0.00007z" fill="#f3bb1b" stroke="none" stroke-width="1"/><path d="M253.84411,162.22347c1.84424,1.49533 1.64486,3.43928 2.94083,5.48289c0.61861,0.96229 1.97181,1.7824 3.03027,2.7871c-1.22146,0.37964 -2.70496,0.49644 -3.57615,0.54743c-0.47142,0.02759 -2.04364,0.51662 -2.65717,-0.07209c-2.13495,-2.0486 -3.21484,-7.37111 -0.24854,-8.6723c0.15817,-0.03332 0.31682,-0.06695 0.4759,-0.10072c0.01163,0.00917 0.02325,0.0184 0.03486,0.0277z" fill="#f3bb1b" stroke="none" stroke-width="1"/><path d="M218.20532,179.96812c0,-0.6251 -0.09227,-1.2431 -0.21431,-1.85306c0.8031,-1.52694 2.0823,-2.63607 4.16697,-2.64436c1.06255,-0.00423 1.27085,-0.30742 2.06217,0.431c2.91317,2.71844 -3.22348,5.90214 -6.07625,6.49581c0.03133,-0.74615 0.06142,-1.54827 0.06142,-2.42939z" fill="#f3bb1b" stroke="none" stroke-width="1"/><path d="M224.94644,191.12894c1.57355,1.50094 1.20664,4.06593 1.23373,5.95318c0.00788,0.54922 0.22427,1.27955 0.10411,1.79642c-2.65498,-4.98264 -4.00203,-5.81432 -5.21572,-6.9238c1.15973,-1.0247 2.90311,-1.75559 3.87789,-0.82579z" fill="#f3bb1b" stroke="none" stroke-width="1"/><path d="M240.3861,203.4947c-1.60337,0 -3.77187,-1.88374 -5.42459,-2.67058c1.38928,-1.33446 3.96525,-2.09718 5.65397,-1.02179c0.97975,0.62391 1.59619,1.94959 1.97603,3.41437c-0.69502,0.17523 -1.42452,0.27801 -2.2054,0.27801z" fill="#f3bb1b" stroke="none" stroke-width="1"/><path d="M254.99054,194.3233c-0.24685,0.27849 -0.48243,0.55939 -0.71106,0.84016c0.05114,-0.28193 0.08552,-0.56259 0.05446,-0.83338c-0.03833,-0.33422 -0.44323,-0.64347 -0.3209,-0.95684c0.16317,-0.418 1.71043,-0.76398 3.03848,-0.92818c-0.73033,0.56712 -1.44231,1.16935 -2.06098,1.87824z" fill="#f3bb1b" stroke="none" stroke-width="1"/><path d="M235.28117,191.63838c-1.04841,-0.41673 -1.71552,-2.41644 -2.20812,-3.27697c-2.00625,-3.50474 -2.56555,-5.61539 -1.31254,-9.41226c0.57095,-1.73011 0.33755,-2.14597 2.11049,-2.8176c0.47177,-0.2715 0.96699,-0.50395 1.48013,-0.7023c1.24031,0.00786 2.48037,0.08927 3.6152,0.40371c1.68035,0.4656 3.23435,1.38048 4.95015,1.69088c1.91726,0.34684 3.78121,0.36105 5.62499,0.16566c0.17761,1.18383 -0.04536,2.61801 -0.04536,3.64416c0,2.90821 1.5887,8.16645 -1.66496,9.57503c-0.44487,-0.01021 -0.88974,-0.02043 -1.33461,-0.03064l-1.07987,0.36289c0,0 -0.45026,0.22513 -0.69868,0.6754c-2.90946,0.11047 -6.87758,0.73934 -9.43681,-0.27793z" fill="#f3bb1b" stroke="none" stroke-width="1"/><path d="M244.97165,174.44518c0.54402,0.0299 1.15607,0.13697 1.75092,0.33156c-0.75123,-0.00837 -1.50765,-0.06732 -2.27308,-0.20519c-0.12588,-0.02267 -0.25078,-0.04896 -0.37485,-0.07835c0.03446,-0.02868 0.0688,-0.05763 0.10308,-0.08673c0.26753,0.01124 0.53238,0.02434 0.79393,0.03871z" fill="#f3bb1b" stroke="none" stroke-width="1"/><path d="M232.90943,160.67832c1.73927,-0.68847 2.97807,-2.06181 4.61638,-2.76044c0.02982,0.06548 0.059,0.13116 0.08755,0.19701c-0.11746,0.21393 -0.18427,0.45961 -0.18427,0.7209c0,0.59464 0.34601,1.10846 0.84768,1.35111c0.11916,0.57935 0.18036,1.156 0.17495,1.71677c-0.00227,0.23519 0.13324,1.38617 0.13292,2.33876c-0.4145,0.60224 -1.11569,1.11715 -1.96656,1.55243c-1.48006,-0.06965 -3.27385,-0.56921 -4.27466,-0.67815c-0.91187,-0.09925 -1.87184,-0.33913 -2.60269,-0.89339c-1.02032,-0.26889 -2.16694,-0.52953 -3.21949,-0.92755c2.05104,-1.044 4.35554,-1.79875 6.38821,-2.61746z" fill="#f3bb1b" stroke="none" stroke-width="1"/><path d="M229.39199,175.37991c0.21494,-0.11893 0.446,-0.16872 0.6868,-0.17758c-0.41953,0.45482 -0.76711,0.95194 -1.04975,1.48191c0.05485,-0.63865 0.16082,-1.19249 0.36295,-1.30433z" fill="#f9d20d" stroke="none" stroke-width="1"/><path d="M234.47449,196.29828l-0.45213,0.33909c0.02366,-0.13381 0.0423,-0.26544 0.05518,-0.39461c0.00201,-0.02015 0.00392,-0.04025 0.00572,-0.0603c0.13498,0.03793 0.26636,0.07674 0.39122,0.11582z" fill="#f9d20d" stroke="none" stroke-width="1"/><path d="M250.02026,194.88106c-0.12427,-0.41384 0.05593,-0.08829 0.34477,0.52297c-0.07642,-0.03164 -0.15369,-0.06009 -0.23175,-0.08556c-0.04924,-0.14243 -0.08847,-0.28776 -0.11302,-0.43741z" fill="#f9d20d" stroke="none" stroke-width="1"/><path d="M246.9162,193.87139c0.13894,-0.0022 0.27788,-0.00439 0.41682,-0.00659c-0.04127,0.09102 -0.08411,0.18012 -0.12934,0.26628c-0.10341,-0.06151 -0.20823,-0.1183 -0.31436,-0.17058c0.00971,-0.02881 0.01869,-0.05851 0.02687,-0.08911z" fill="#f9d20d" stroke="none" stroke-width="1"/><path d="M249.22416,169.27021c-0.00003,-0.00052 -0.00007,-0.00105 -0.0001,-0.00157c0.00017,0.0005 0.00035,0.001 0.00052,0.0015c-0.00014,0.00002 -0.00028,0.00005 -0.00042,0.00007z" fill="#f9d20d" stroke="none" stroke-width="1"/><path d="M256.23905,171.04089c-0.47142,0.02759 -2.04364,0.51662 -2.65717,-0.07209c-1.48167,-1.42174 -2.45518,-4.42035 -1.92069,-6.55728c2.28907,1.75107 4.18662,3.98814 5.53853,6.55711c-0.3617,0.03432 -0.69061,0.05645 -0.96067,0.07226z" fill="#f9d20d" stroke="none" stroke-width="1"/><path d="M219.70066,180.21734c0,-1.48596 0.16296,-2.93386 0.472,-4.3268c0.56421,-0.26561 1.22056,-0.4168 1.98531,-0.41984c1.06255,-0.00423 1.27085,-0.30742 2.06217,0.431c2.43185,2.26928 -1.44269,4.86279 -4.4489,6.00321c-0.04674,-0.55632 -0.07059,-1.11916 -0.07059,-1.68757z" fill="#f9d20d" stroke="none" stroke-width="1"/><path d="M224.94644,191.12894c1.02144,0.9743 1.22523,2.39695 1.24989,3.79155c-1.29888,-1.18375 -2.44032,-2.5373 -3.38922,-4.02553c0.79586,-0.28657 1.58975,-0.29023 2.13933,0.23398z" fill="#f9d20d" stroke="none" stroke-width="1"/><path d="M239.58861,200.10529c-1.08744,0 -2.15449,-0.08727 -3.19454,-0.2552c1.35586,-0.64618 3.01503,-0.81599 4.2214,-0.04776c0.11872,0.0756 0.2321,0.16151 0.34037,0.25671c-0.45177,0.03068 -0.90768,0.04626 -1.36723,0.04626z" fill="#f9d20d" stroke="none" stroke-width="1"/><path d="M254.01304,193.37323c0.07419,-0.19004 0.43447,-0.36519 0.93018,-0.51515c-0.27126,0.32913 -0.55291,0.64937 -0.84443,0.96025c-0.0835,-0.1495 -0.14364,-0.29684 -0.08576,-0.4451z" fill="#f9d20d" stroke="none" stroke-width="1"/><path d="M235.28117,191.63838c-1.04841,-0.41673 -1.71552,-2.41644 -2.20812,-3.27697c-2.00625,-3.50474 -2.56555,-5.61539 -1.31254,-9.41226c0.57095,-1.73011 0.33755,-2.14597 2.11049,-2.8176c0.47177,-0.2715 0.96699,-0.50395 1.48013,-0.7023c1.24031,0.00786 2.48037,0.08927 3.6152,0.40371c1.68035,0.4656 3.23435,1.38048 4.95015,1.69088c1.91726,0.34684 3.78121,0.36105 5.62499,0.16566c0.17761,1.18383 -0.04536,2.61801 -0.04536,3.64416c0,2.90821 1.5887,8.16645 -1.66496,9.57503c-0.44487,-0.01021 -0.88974,-0.02043 -1.33461,-0.03064l-1.07987,0.36289c0,0 -0.45026,0.22513 -0.69868,0.6754c-2.90946,0.11047 -6.87758,0.73934 -9.43681,-0.27793z" fill="#f9d20d" stroke="none" stroke-width="1"/><path d="M244.97165,174.44518c0.54402,0.0299 1.15607,0.13697 1.75092,0.33156c-0.75123,-0.00837 -1.50765,-0.06732 -2.27308,-0.20519c-0.12588,-0.02267 -0.25078,-0.04896 -0.37485,-0.07835c0.03446,-0.02868 0.0688,-0.05763 0.10308,-0.08673c0.26753,0.01124 0.53238,0.02434 0.79393,0.03871z" fill="#f9d20d" stroke="none" stroke-width="1"/><path d="M238.45171,161.90368c-0.00227,0.23519 0.13324,1.38617 0.13292,2.33876c-0.4145,0.60224 -1.11569,1.11715 -1.96656,1.55243c-1.48006,-0.06965 -3.27385,-0.56921 -4.27466,-0.67815c-0.91187,-0.09925 -1.87184,-0.33913 -2.60269,-0.89339c-0.4641,-0.12231 -0.95434,-0.24291 -1.44996,-0.37551c2.8809,-1.99211 6.31328,-3.2433 10.02169,-3.47815c0.09563,0.51775 0.14411,1.03224 0.13927,1.53401z" fill="#f9d20d" stroke="none" stroke-width="1"/></g></g></svg>